<?xml version="1.0" encoding="UTF-8"?>
<svg width="900px" height="440px" viewBox="0 0 900 440" version="1.1" xmlns="http://www.w3.org/2000/svg" xmlns:xlink="http://www.w3.org/1999/xlink">
    <g stroke="none" stroke-width="1" fill="none" fill-rule="evenodd">
        <g transform="translate(-151.000000, -289.000000)">
            <g transform="translate(151.000000, 289.000000)">
                <rect id="Mask-Copy-4" stroke="#373737" fill-rule="nonzero" x="0.5" y="0.5" width="899" height="439"></rect>
                <path d="M51.24,124 L51.24,98.8 L66.864,98.8 L66.864,102.328 L54.984,102.328 L54.984,109.24 L62.652,109.24 L62.652,112.768 L54.984,112.768 L54.984,124 L51.24,124 Z M84.468,121.876 C82.9559924,123.580009 80.904013,124.432 78.312,124.432 C75.719987,124.432 73.6740075,123.580009 72.174,121.876 C70.6739925,120.171991 69.924,117.820015 69.924,114.82 C69.924,111.819985 70.6739925,109.462009 72.174,107.746 C73.6740075,106.029991 75.719987,105.172 78.312,105.172 C80.904013,105.172 82.9559924,106.029991 84.468,107.746 C85.9800076,109.462009 86.736,111.819985 86.736,114.82 C86.736,117.820015 85.9800076,120.171991 84.468,121.876 Z M78.312,120.904 C79.7520072,120.904 80.8919958,120.364005 81.732,119.284 C82.5720042,118.203995 82.992,116.716009 82.992,114.82 C82.992,112.923991 82.5720042,111.430005 81.732,110.338 C80.8919958,109.245995 79.7520072,108.7 78.312,108.7 C76.8959929,108.7 75.7680042,109.245995 74.928,110.338 C74.0879958,111.430005 73.668,112.923991 73.668,114.82 C73.668,116.692009 74.0879958,118.173995 74.928,119.266 C75.7680042,120.358005 76.8959929,120.904 78.312,120.904 Z M91.236,124 L91.236,105.604 L94.98,105.604 L94.98,107.836 C95.7960041,106.059991 97.1639904,105.172 99.084,105.172 C100.284006,105.172 101.315996,105.543996 102.18,106.288 L101.64,109.744 C100.751996,109.143997 99.7800053,108.844 98.724,108.844 C97.715995,108.844 96.8400037,109.221996 96.096,109.978 C95.3519963,110.734004 94.98,111.963991 94.98,113.668 L94.98,124 L91.236,124 Z M124.68,124 L124.68,122.416 C123.383994,123.760007 121.70401,124.432 119.64,124.432 C117.69599,124.432 116.118006,123.898005 114.906,122.83 C113.693994,121.761995 113.088,120.24401 113.088,118.276 C113.088,116.28399 113.771993,114.772005 115.14,113.74 C116.508007,112.707995 118.17599,112.192 120.144,112.192 C121.944009,112.192 123.455994,112.551996 124.68,113.272 L124.68,112.264 C124.68,110.895993 124.368003,109.924003 123.744,109.348 C123.119997,108.771997 122.124007,108.484 120.756,108.484 C118.73999,108.484 116.988007,109.035994 115.5,110.14 L114.384,107.08 C116.232009,105.807994 118.523986,105.172 121.26,105.172 C122.172005,105.172 122.987996,105.249999 123.708,105.406 C124.428004,105.562001 125.159996,105.861998 125.904,106.306 C126.648004,106.750002 127.229998,107.463995 127.65,108.448 C128.070002,109.432005 128.28,110.643993 128.28,112.084 L128.28,124 L124.68,124 Z M120.324,121.12 C122.052009,121.12 123.503994,120.460007 124.68,119.14 L124.68,116.332 C123.551994,115.731997 122.244007,115.432 120.756,115.432 C119.555994,115.432 118.578004,115.665998 117.822,116.134 C117.065996,116.602002 116.688,117.315995 116.688,118.276 C116.688,119.164004 116.999997,119.859997 117.624,120.364 C118.248003,120.868003 119.147994,121.12 120.324,121.12 Z M144.696,124 L144.696,113.02 C144.696,111.555993 144.360003,110.470004 143.688,109.762 C143.015997,109.053996 142.128006,108.7 141.024,108.7 C138.383987,108.7 137.064,110.115986 137.064,112.948 L137.064,124 L133.32,124 L133.32,105.604 L137.064,105.604 L137.064,107.368 C138.216006,105.903993 139.79999,105.172 141.816,105.172 C146.232022,105.172 148.44,107.787974 148.44,113.02 L148.44,124 L144.696,124 Z M155.892,130.984 L158.736,123.676 L151.86,105.604 L155.568,105.604 L160.104,117.628 C160.320001,118.180003 160.487999,118.719997 160.608,119.248 C160.728001,118.719997 160.895999,118.180003 161.112,117.628 L165.684,105.604 L169.428,105.604 L159.708,130.984 L155.892,130.984 Z M189.84,124.432 C187.967991,124.432 186.492005,123.760007 185.412,122.416 L185.412,129.508 L181.668,131.236 L181.668,105.604 L185.412,105.604 L185.412,107.08 C186.564006,105.807994 188.039991,105.172 189.84,105.172 C192.168012,105.172 194.009993,106.029991 195.366,107.746 C196.722007,109.462009 197.4,111.819985 197.4,114.82 C197.4,117.796015 196.710007,120.141991 195.33,121.858 C193.949993,123.574009 192.120011,124.432 189.84,124.432 Z M189.3,120.904 C190.716007,120.904 191.795996,120.382005 192.54,119.338 C193.284004,118.293995 193.656,116.78801 193.656,114.82 C193.656,112.995991 193.272004,111.520006 192.504,110.392 C191.735996,109.263994 190.668007,108.7 189.3,108.7 C187.571991,108.7 186.276004,109.395993 185.412,110.788 L185.412,118.78 C186.468005,120.196007 187.763992,120.904 189.3,120.904 Z M201.9,124 L201.9,105.604 L205.644,105.604 L205.644,107.836 C206.460004,106.059991 207.82799,105.172 209.748,105.172 C210.948006,105.172 211.979996,105.543996 212.844,106.288 L212.304,109.744 C211.415996,109.143997 210.444005,108.844 209.388,108.844 C208.379995,108.844 207.504004,109.221996 206.76,109.978 C206.015996,110.734004 205.644,111.963991 205.644,113.668 L205.644,124 L201.9,124 Z M229.836,121.876 C228.323992,123.580009 226.272013,124.432 223.68,124.432 C221.087987,124.432 219.042008,123.580009 217.542,121.876 C216.041992,120.171991 215.292,117.820015 215.292,114.82 C215.292,111.819985 216.041992,109.462009 217.542,107.746 C219.042008,106.029991 221.087987,105.172 223.68,105.172 C226.272013,105.172 228.323992,106.029991 229.836,107.746 C231.348008,109.462009 232.104,111.819985 232.104,114.82 C232.104,117.820015 231.348008,120.171991 229.836,121.876 Z M223.68,120.904 C225.120007,120.904 226.259996,120.364005 227.1,119.284 C227.940004,118.203995 228.36,116.716009 228.36,114.82 C228.36,112.923991 227.940004,111.430005 227.1,110.338 C226.259996,109.245995 225.120007,108.7 223.68,108.7 C222.263993,108.7 221.136004,109.245995 220.296,110.338 C219.455996,111.430005 219.036,112.923991 219.036,114.82 C219.036,116.692009 219.455996,118.173995 220.296,119.266 C221.136004,120.358005 222.263993,120.904 223.68,120.904 Z M240.096,102.076 C239.663998,102.508002 239.136003,102.724 238.512,102.724 C237.887997,102.724 237.354002,102.502002 236.91,102.058 C236.465998,101.613998 236.244,101.080003 236.244,100.456 C236.244,99.8319969 236.465998,99.2980022 236.91,98.854 C237.354002,98.4099978 237.887997,98.188 238.512,98.188 C239.136003,98.188 239.669998,98.4099978 240.114,98.854 C240.558002,99.2980022 240.78,99.8319969 240.78,100.456 C240.78,101.080003 240.552002,101.619998 240.096,102.076 Z M233.436,131.704 L231.636,128.932 C233.532009,128.523998 234.839996,127.996003 235.56,127.348 C236.280004,126.699997 236.64,125.716007 236.64,124.396 L236.64,105.604 L240.384,105.604 L240.384,123.136 C240.384,125.824013 239.808006,127.767994 238.656,128.968 C237.383994,130.312007 235.644011,131.223998 233.436,131.704 Z M253.272,124.432 C250.703987,124.432 248.670008,123.574009 247.17,121.858 C245.669993,120.141991 244.92,117.784015 244.92,114.784 C244.92,111.783985 245.675992,109.432009 247.188,107.728 C248.700008,106.023991 250.727987,105.172 253.272,105.172 C255.576012,105.172 257.471993,105.903993 258.96,107.368 C260.448007,108.832007 261.192,110.967986 261.192,113.776 C261.192,114.808005 261.144,115.611997 261.048,116.188 L248.664,116.188 C248.688,117.652007 249.161995,118.839995 250.086,119.752 C251.010005,120.664005 252.083994,121.12 253.308,121.12 C254.892008,121.12 256.163995,120.496006 257.124,119.248 L259.572,121.768 C258.083993,123.544009 255.984014,124.432 253.272,124.432 Z M248.664,113.164 L257.448,113.164 C257.424,111.579992 257.004004,110.404004 256.188,109.636 C255.371996,108.867996 254.400006,108.484 253.272,108.484 C251.999994,108.484 250.938004,108.861996 250.086,109.618 C249.233996,110.374004 248.76,111.555992 248.664,113.164 Z M272.64,124.432 C270.167988,124.432 268.212007,123.580009 266.772,121.876 C265.331993,120.171991 264.612,117.820015 264.612,114.82 C264.612,111.819985 265.331993,109.462009 266.772,107.746 C268.212007,106.029991 270.167988,105.172 272.64,105.172 C276.216018,105.172 278.531995,106.755984 279.588,109.924 L276.024,111.148 C275.423997,109.563992 274.344008,108.772 272.784,108.772 C271.391993,108.772 270.318004,109.305995 269.562,110.374 C268.805996,111.442005 268.428,112.923991 268.428,114.82 C268.428,116.692009 268.799996,118.161995 269.544,119.23 C270.288004,120.298005 271.319993,120.832 272.64,120.832 C274.416009,120.832 275.567997,119.932009 276.096,118.132 L279.66,119.248 C278.675995,122.704017 276.336018,124.432 272.64,124.432 Z M289.488,124.432 C286.751986,124.432 285.384,122.908015 285.384,119.86 L285.384,108.844 L282.54,108.844 L282.54,105.604 L285.384,105.604 L285.384,99.808 L289.128,98.008 L289.128,105.604 L293.484,105.604 L293.484,108.844 L289.128,108.844 L289.128,118.888 C289.128,120.280007 289.727994,120.976 290.928,120.976 C291.816004,120.976 292.727995,120.688003 293.664,120.112 L293.196,123.604 C292.091994,124.156003 290.856007,124.432 289.488,124.432 Z M309.936,102.076 C309.503998,102.508002 308.976003,102.724 308.352,102.724 C307.727997,102.724 307.194002,102.502002 306.75,102.058 C306.305998,101.613998 306.084,101.080003 306.084,100.456 C306.084,99.8319969 306.305998,99.2980022 306.75,98.854 C307.194002,98.4099978 307.727997,98.188 308.352,98.188 C308.976003,98.188 309.509998,98.4099978 309.954,98.854 C310.398002,99.2980022 310.62,99.8319969 310.62,100.456 C310.62,101.080003 310.392002,101.619998 309.936,102.076 Z M306.48,124 L306.48,105.604 L310.224,105.604 L310.224,124 L306.48,124 Z M327.036,124 L327.036,113.02 C327.036,111.555993 326.700003,110.470004 326.028,109.762 C325.355997,109.053996 324.468006,108.7 323.364,108.7 C320.723987,108.7 319.404,110.115986 319.404,112.948 L319.404,124 L315.66,124 L315.66,105.604 L319.404,105.604 L319.404,107.368 C320.556006,105.903993 322.13999,105.172 324.156,105.172 C328.572022,105.172 330.78,107.787974 330.78,113.02 L330.78,124 L327.036,124 Z M342.732,124.432 C340.451989,124.432 338.610007,123.574009 337.206,121.858 C335.801993,120.141991 335.1,117.796015 335.1,114.82 C335.1,111.819985 335.789993,109.462009 337.17,107.746 C338.550007,106.029991 340.403988,105.172 342.732,105.172 C344.484009,105.172 345.935994,105.807994 347.088,107.08 L347.088,105.604 L350.832,105.604 L350.832,129.508 L347.088,131.2 L347.088,122.416 C345.983994,123.760007 344.532009,124.432 342.732,124.432 Z M343.2,120.904 C344.760008,120.904 346.055995,120.196007 347.088,118.78 L347.088,110.788 C346.223996,109.395993 344.928009,108.7 343.2,108.7 C341.831993,108.7 340.764004,109.263994 339.996,110.392 C339.227996,111.520006 338.844,112.995991 338.844,114.82 C338.844,116.78801 339.215996,118.293995 339.96,119.338 C340.704004,120.382005 341.783993,120.904 343.2,120.904 Z M367.428,124 L367.428,122.236 C366.275994,123.700007 364.69201,124.432 362.676,124.432 C358.259978,124.432 356.052,121.816026 356.052,116.584 L356.052,105.604 L359.796,105.604 L359.796,116.584 C359.796,118.048007 360.131997,119.133996 360.804,119.842 C361.476003,120.550004 362.363994,120.904 363.468,120.904 C366.108013,120.904 367.428,119.488014 367.428,116.656 L367.428,105.604 L371.172,105.604 L371.172,124 L367.428,124 Z M380.064,102.076 C379.631998,102.508002 379.104003,102.724 378.48,102.724 C377.855997,102.724 377.322002,102.502002 376.878,102.058 C376.433998,101.613998 376.212,101.080003 376.212,100.456 C376.212,99.8319969 376.433998,99.2980022 376.878,98.854 C377.322002,98.4099978 377.855997,98.188 378.48,98.188 C379.104003,98.188 379.637998,98.4099978 380.082,98.854 C380.526002,99.2980022 380.748,99.8319969 380.748,100.456 C380.748,101.080003 380.520002,101.619998 380.064,102.076 Z M376.608,124 L376.608,105.604 L380.352,105.604 L380.352,124 L376.608,124 Z M393.24,124.432 C390.671987,124.432 388.638008,123.574009 387.138,121.858 C385.637993,120.141991 384.888,117.784015 384.888,114.784 C384.888,111.783985 385.643992,109.432009 387.156,107.728 C388.668008,106.023991 390.695987,105.172 393.24,105.172 C395.544012,105.172 397.439993,105.903993 398.928,107.368 C400.416007,108.832007 401.16,110.967986 401.16,113.776 C401.16,114.808005 401.112,115.611997 401.016,116.188 L388.632,116.188 C388.656,117.652007 389.129995,118.839995 390.054,119.752 C390.978005,120.664005 392.051994,121.12 393.276,121.12 C394.860008,121.12 396.131995,120.496006 397.092,119.248 L399.54,121.768 C398.051993,123.544009 395.952014,124.432 393.24,124.432 Z M388.632,113.164 L397.416,113.164 C397.392,111.579992 396.972004,110.404004 396.156,109.636 C395.339996,108.867996 394.368006,108.484 393.24,108.484 C391.967994,108.484 390.906004,108.861996 390.054,109.618 C389.201996,110.374004 388.728,111.555992 388.632,113.164 Z M405.48,124 L405.48,105.604 L409.224,105.604 L409.224,107.836 C410.040004,106.059991 411.40799,105.172 413.328,105.172 C414.528006,105.172 415.559996,105.543996 416.424,106.288 L415.884,109.744 C414.995996,109.143997 414.024005,108.844 412.968,108.844 C411.959995,108.844 411.084004,109.221996 410.34,109.978 C409.595996,110.734004 409.224,111.963991 409.224,113.668 L409.224,124 L405.48,124 Z M422.004,130.984 L424.848,123.676 L417.972,105.604 L421.68,105.604 L426.216,117.628 C426.432001,118.180003 426.599999,118.719997 426.72,119.248 C426.840001,118.719997 427.007999,118.180003 427.224,117.628 L431.796,105.604 L435.54,105.604 L425.82,130.984 L422.004,130.984 Z M461.424,121.876 C459.911992,123.580009 457.860013,124.432 455.268,124.432 C452.675987,124.432 450.630008,123.580009 449.13,121.876 C447.629993,120.171991 446.88,117.820015 446.88,114.82 C446.88,111.819985 447.629993,109.462009 449.13,107.746 C450.630008,106.029991 452.675987,105.172 455.268,105.172 C457.860013,105.172 459.911992,106.029991 461.424,107.746 C462.936008,109.462009 463.692,111.819985 463.692,114.82 C463.692,117.820015 462.936008,120.171991 461.424,121.876 Z M455.268,120.904 C456.708007,120.904 457.847996,120.364005 458.688,119.284 C459.528004,118.203995 459.948,116.716009 459.948,114.82 C459.948,112.923991 459.528004,111.430005 458.688,110.338 C457.847996,109.245995 456.708007,108.7 455.268,108.7 C453.851993,108.7 452.724004,109.245995 451.884,110.338 C451.043996,111.430005 450.624,112.923991 450.624,114.82 C450.624,116.692009 451.043996,118.173995 451.884,119.266 C452.724004,120.358005 453.851993,120.904 455.268,120.904 Z M468.192,124 L468.192,105.604 L471.936,105.604 L471.936,107.836 C472.752004,106.059991 474.11999,105.172 476.04,105.172 C477.240006,105.172 478.271996,105.543996 479.136,106.288 L478.596,109.744 C477.707996,109.143997 476.736005,108.844 475.68,108.844 C474.671995,108.844 473.796004,109.221996 473.052,109.978 C472.307996,110.734004 471.936,111.963991 471.936,113.668 L471.936,124 L468.192,124 Z M496.164,108.844 L496.164,124 L492.42,124 L492.42,108.844 L489.684,108.844 L489.684,105.604 L492.42,105.604 L492.42,102.652 C492.42,101.091992 492.815996,99.9880032 493.608,99.34 C494.400004,98.6919968 495.407994,98.368 496.632,98.368 C497.928006,98.368 499.151994,98.6559971 500.304,99.232 L500.304,102.328 C499.271995,101.895998 498.396004,101.68 497.676,101.68 C496.667995,101.68 496.164,102.231994 496.164,103.336 L496.164,105.604 L500.304,105.604 L500.304,108.844 L496.164,108.844 Z M516.828,121.876 C515.315992,123.580009 513.264013,124.432 510.672,124.432 C508.079987,124.432 506.034008,123.580009 504.534,121.876 C503.033993,120.171991 502.284,117.820015 502.284,114.82 C502.284,111.819985 503.033993,109.462009 504.534,107.746 C506.034008,106.029991 508.079987,105.172 510.672,105.172 C513.264013,105.172 515.315992,106.029991 516.828,107.746 C518.340008,109.462009 519.096,111.819985 519.096,114.82 C519.096,117.820015 518.340008,120.171991 516.828,121.876 Z M510.672,120.904 C512.112007,120.904 513.251996,120.364005 514.092,119.284 C514.932004,118.203995 515.352,116.716009 515.352,114.82 C515.352,112.923991 514.932004,111.430005 514.092,110.338 C513.251996,109.245995 512.112007,108.7 510.672,108.7 C509.255993,108.7 508.128004,109.245995 507.288,110.338 C506.447996,111.430005 506.028,112.923991 506.028,114.82 C506.028,116.692009 506.447996,118.173995 507.288,119.266 C508.128004,120.358005 509.255993,120.904 510.672,120.904 Z M523.596,124 L523.596,105.604 L527.34,105.604 L527.34,107.836 C528.156004,106.059991 529.52399,105.172 531.444,105.172 C532.644006,105.172 533.675996,105.543996 534.54,106.288 L534,109.744 C533.111996,109.143997 532.140005,108.844 531.084,108.844 C530.075995,108.844 529.200004,109.221996 528.456,109.978 C527.711996,110.734004 527.34,111.963991 527.34,113.668 L527.34,124 L523.596,124 Z M568.128,124 L568.128,112.984 C568.128,110.127986 567.000011,108.7 564.744,108.7 C563.687995,108.7 562.812003,109.089996 562.116,109.87 C561.419997,110.650004 561.072,111.747993 561.072,113.164 L561.072,124 L557.328,124 L557.328,112.984 C557.328,110.127986 556.200011,108.7 553.944,108.7 C552.887995,108.7 552.012003,109.089996 551.316,109.87 C550.619997,110.650004 550.272,111.747993 550.272,113.164 L550.272,124 L546.528,124 L546.528,105.604 L550.272,105.604 L550.272,107.296 C551.256005,105.879993 552.803989,105.172 554.916,105.172 C557.196011,105.172 558.827995,106.047991 559.812,107.8 C560.940006,106.047991 562.751988,105.172 565.248,105.172 C567.24001,105.172 568.841994,105.747994 570.054,106.9 C571.266006,108.052006 571.872,109.791988 571.872,112.12 L571.872,124 L568.128,124 Z M590.736,121.876 C589.223992,123.580009 587.172013,124.432 584.58,124.432 C581.987987,124.432 579.942008,123.580009 578.442,121.876 C576.941993,120.171991 576.192,117.820015 576.192,114.82 C576.192,111.819985 576.941993,109.462009 578.442,107.746 C579.942008,106.029991 581.987987,105.172 584.58,105.172 C587.172013,105.172 589.223992,106.029991 590.736,107.746 C592.248008,109.462009 593.004,111.819985 593.004,114.82 C593.004,117.820015 592.248008,120.171991 590.736,121.876 Z M584.58,120.904 C586.020007,120.904 587.159996,120.364005 588,119.284 C588.840004,118.203995 589.26,116.716009 589.26,114.82 C589.26,112.923991 588.840004,111.430005 588,110.338 C587.159996,109.245995 586.020007,108.7 584.58,108.7 C583.163993,108.7 582.036004,109.245995 581.196,110.338 C580.355996,111.430005 579.936,112.923991 579.936,114.82 C579.936,116.692009 580.355996,118.173995 581.196,119.266 C582.036004,120.358005 583.163993,120.904 584.58,120.904 Z M597.504,124 L597.504,105.604 L601.248,105.604 L601.248,107.836 C602.064004,106.059991 603.43199,105.172 605.352,105.172 C606.552006,105.172 607.583996,105.543996 608.448,106.288 L607.908,109.744 C607.019996,109.143997 606.048005,108.844 604.992,108.844 C603.983995,108.844 603.108004,109.221996 602.364,109.978 C601.619996,110.734004 601.248,111.963991 601.248,113.668 L601.248,124 L597.504,124 Z M619.248,124.432 C616.679987,124.432 614.646008,123.574009 613.146,121.858 C611.645993,120.141991 610.896,117.784015 610.896,114.784 C610.896,111.783985 611.651992,109.432009 613.164,107.728 C614.676008,106.023991 616.703987,105.172 619.248,105.172 C621.552012,105.172 623.447993,105.903993 624.936,107.368 C626.424007,108.832007 627.168,110.967986 627.168,113.776 C627.168,114.808005 627.12,115.611997 627.024,116.188 L614.64,116.188 C614.664,117.652007 615.137995,118.839995 616.062,119.752 C616.986005,120.664005 618.059994,121.12 619.284,121.12 C620.868008,121.12 622.139995,120.496006 623.1,119.248 L625.548,121.768 C624.059993,123.544009 621.960014,124.432 619.248,124.432 Z M614.64,113.164 L623.424,113.164 C623.4,111.579992 622.980004,110.404004 622.164,109.636 C621.347996,108.867996 620.376006,108.484 619.248,108.484 C617.975994,108.484 616.914004,108.861996 616.062,109.618 C615.209996,110.374004 614.736,111.555992 614.64,113.164 Z M54.192,156.076 C53.7599978,156.508002 53.2320031,156.724 52.608,156.724 C51.9839969,156.724 51.4500022,156.502002 51.006,156.058 C50.5619978,155.613998 50.34,155.080003 50.34,154.456 C50.34,153.831997 50.5619978,153.298002 51.006,152.854 C51.4500022,152.409998 51.9839969,152.188 52.608,152.188 C53.2320031,152.188 53.7659978,152.409998 54.21,152.854 C54.6540022,153.298002 54.876,153.831997 54.876,154.456 C54.876,155.080003 54.6480023,155.619998 54.192,156.076 Z M50.736,178 L50.736,159.604 L54.48,159.604 L54.48,178 L50.736,178 Z M71.292,178 L71.292,167.02 C71.292,165.555993 70.9560034,164.470004 70.284,163.762 C69.6119966,163.053996 68.7240055,162.7 67.62,162.7 C64.9799868,162.7 63.66,164.115986 63.66,166.948 L63.66,178 L59.916,178 L59.916,159.604 L63.66,159.604 L63.66,161.368 C64.8120058,159.903993 66.3959899,159.172 68.412,159.172 C72.8280221,159.172 75.036,161.787974 75.036,167.02 L75.036,178 L71.292,178 Z M85.296,162.844 L85.296,178 L81.552,178 L81.552,162.844 L78.816,162.844 L78.816,159.604 L81.552,159.604 L81.552,156.652 C81.552,155.091992 81.947996,153.988003 82.74,153.34 C83.532004,152.691997 84.5399939,152.368 85.764,152.368 C87.0600065,152.368 88.2839942,152.655997 89.436,153.232 L89.436,156.328 C88.4039948,155.895998 87.5280036,155.68 86.808,155.68 C85.799995,155.68 85.296,156.231994 85.296,157.336 L85.296,159.604 L89.436,159.604 L89.436,162.844 L85.296,162.844 Z M105.96,175.876 C104.447992,177.580009 102.396013,178.432 99.804,178.432 C97.211987,178.432 95.1660075,177.580009 93.666,175.876 C92.1659925,174.171991 91.416,171.820015 91.416,168.82 C91.416,165.819985 92.1659925,163.462009 93.666,161.746 C95.1660075,160.029991 97.211987,159.172 99.804,159.172 C102.396013,159.172 104.447992,160.029991 105.96,161.746 C107.472008,163.462009 108.228,165.819985 108.228,168.82 C108.228,171.820015 107.472008,174.171991 105.96,175.876 Z M99.804,174.904 C101.244007,174.904 102.383996,174.364005 103.224,173.284 C104.064004,172.203995 104.484,170.716009 104.484,168.82 C104.484,166.923991 104.064004,165.430005 103.224,164.338 C102.383996,163.245995 101.244007,162.7 99.804,162.7 C98.3879929,162.7 97.2600042,163.245995 96.42,164.338 C95.5799958,165.430005 95.16,166.923991 95.16,168.82 C95.16,170.692009 95.5799958,172.173995 96.42,173.266 C97.2600042,174.358005 98.3879929,174.904 99.804,174.904 Z M112.728,178 L112.728,159.604 L116.472,159.604 L116.472,161.836 C117.288004,160.059991 118.65599,159.172 120.576,159.172 C121.776006,159.172 122.807996,159.543996 123.672,160.288 L123.132,163.744 C122.243996,163.143997 121.272005,162.844 120.216,162.844 C119.207995,162.844 118.332004,163.221996 117.588,163.978 C116.843996,164.734004 116.472,165.963991 116.472,167.668 L116.472,178 L112.728,178 Z M148.62,178 L148.62,166.984 C148.62,164.127986 147.492011,162.7 145.236,162.7 C144.179995,162.7 143.304003,163.089996 142.608,163.87 C141.911997,164.650004 141.564,165.747993 141.564,167.164 L141.564,178 L137.82,178 L137.82,166.984 C137.82,164.127986 136.692011,162.7 134.436,162.7 C133.379995,162.7 132.504003,163.089996 131.808,163.87 C131.111997,164.650004 130.764,165.747993 130.764,167.164 L130.764,178 L127.02,178 L127.02,159.604 L130.764,159.604 L130.764,161.296 C131.748005,159.879993 133.295989,159.172 135.408,159.172 C137.688011,159.172 139.319995,160.047991 140.304,161.8 C141.432006,160.047991 143.243988,159.172 145.74,159.172 C147.73201,159.172 149.333994,159.747994 150.546,160.9 C151.758006,162.052006 152.364,163.791988 152.364,166.12 L152.364,178 L148.62,178 Z M168.096,178 L168.096,176.416 C166.799994,177.760007 165.12001,178.432 163.056,178.432 C161.11199,178.432 159.534006,177.898005 158.322,176.83 C157.109994,175.761995 156.504,174.24401 156.504,172.276 C156.504,170.28399 157.187993,168.772005 158.556,167.74 C159.924007,166.707995 161.59199,166.192 163.56,166.192 C165.360009,166.192 166.871994,166.551996 168.096,167.272 L168.096,166.264 C168.096,164.895993 167.784003,163.924003 167.16,163.348 C166.535997,162.771997 165.540007,162.484 164.172,162.484 C162.15599,162.484 160.404007,163.035994 158.916,164.14 L157.8,161.08 C159.648009,159.807994 161.939986,159.172 164.676,159.172 C165.588005,159.172 166.403996,159.249999 167.124,159.406 C167.844004,159.562001 168.575996,159.861998 169.32,160.306 C170.064004,160.750002 170.645998,161.463995 171.066,162.448 C171.486002,163.432005 171.696,164.643993 171.696,166.084 L171.696,178 L168.096,178 Z M163.74,175.12 C165.468009,175.12 166.919994,174.460007 168.096,173.14 L168.096,170.332 C166.967994,169.731997 165.660007,169.432 164.172,169.432 C162.971994,169.432 161.994004,169.665998 161.238,170.134 C160.481996,170.602002 160.104,171.315995 160.104,172.276 C160.104,173.164004 160.415997,173.859997 161.04,174.364 C161.664003,174.868003 162.563994,175.12 163.74,175.12 Z M182.064,178.432 C179.327986,178.432 177.96,176.908015 177.96,173.86 L177.96,162.844 L175.116,162.844 L175.116,159.604 L177.96,159.604 L177.96,153.808 L181.704,152.008 L181.704,159.604 L186.06,159.604 L186.06,162.844 L181.704,162.844 L181.704,172.888 C181.704,174.280007 182.303994,174.976 183.504,174.976 C184.392004,174.976 185.303995,174.688003 186.24,174.112 L185.772,177.604 C184.667994,178.156003 183.432007,178.432 182.064,178.432 Z M193.872,156.076 C193.439998,156.508002 192.912003,156.724 192.288,156.724 C191.663997,156.724 191.130002,156.502002 190.686,156.058 C190.241998,155.613998 190.02,155.080003 190.02,154.456 C190.02,153.831997 190.241998,153.298002 190.686,152.854 C191.130002,152.409998 191.663997,152.188 192.288,152.188 C192.912003,152.188 193.445998,152.409998 193.89,152.854 C194.334002,153.298002 194.556,153.831997 194.556,154.456 C194.556,155.080003 194.328002,155.619998 193.872,156.076 Z M190.416,178 L190.416,159.604 L194.16,159.604 L194.16,178 L190.416,178 Z M213.24,175.876 C211.727992,177.580009 209.676013,178.432 207.084,178.432 C204.491987,178.432 202.446008,177.580009 200.946,175.876 C199.445992,174.171991 198.696,171.820015 198.696,168.82 C198.696,165.819985 199.445992,163.462009 200.946,161.746 C202.446008,160.029991 204.491987,159.172 207.084,159.172 C209.676013,159.172 211.727992,160.029991 213.24,161.746 C214.752008,163.462009 215.508,165.819985 215.508,168.82 C215.508,171.820015 214.752008,174.171991 213.24,175.876 Z M207.084,174.904 C208.524007,174.904 209.663996,174.364005 210.504,173.284 C211.344004,172.203995 211.764,170.716009 211.764,168.82 C211.764,166.923991 211.344004,165.430005 210.504,164.338 C209.663996,163.245995 208.524007,162.7 207.084,162.7 C205.667993,162.7 204.540004,163.245995 203.7,164.338 C202.859996,165.430005 202.44,166.923991 202.44,168.82 C202.44,170.692009 202.859996,172.173995 203.7,173.266 C204.540004,174.358005 205.667993,174.904 207.084,174.904 Z M231.384,178 L231.384,167.02 C231.384,165.555993 231.048003,164.470004 230.376,163.762 C229.703997,163.053996 228.816006,162.7 227.712,162.7 C225.071987,162.7 223.752,164.115986 223.752,166.948 L223.752,178 L220.008,178 L220.008,159.604 L223.752,159.604 L223.752,161.368 C224.904006,159.903993 226.48799,159.172 228.504,159.172 C232.920022,159.172 235.128,161.787974 235.128,167.02 L235.128,178 L231.384,178 Z M259.5,178 L259.5,176.416 C258.203994,177.760007 256.52401,178.432 254.46,178.432 C252.51599,178.432 250.938006,177.898005 249.726,176.83 C248.513994,175.761995 247.908,174.24401 247.908,172.276 C247.908,170.28399 248.591993,168.772005 249.96,167.74 C251.328007,166.707995 252.99599,166.192 254.964,166.192 C256.764009,166.192 258.275994,166.551996 259.5,167.272 L259.5,166.264 C259.5,164.895993 259.188003,163.924003 258.564,163.348 C257.939997,162.771997 256.944007,162.484 255.576,162.484 C253.55999,162.484 251.808007,163.035994 250.32,164.14 L249.204,161.08 C251.052009,159.807994 253.343986,159.172 256.08,159.172 C256.992005,159.172 257.807996,159.249999 258.528,159.406 C259.248004,159.562001 259.979996,159.861998 260.724,160.306 C261.468004,160.750002 262.049998,161.463995 262.47,162.448 C262.890002,163.432005 263.1,164.643993 263.1,166.084 L263.1,178 L259.5,178 Z M255.144,175.12 C256.872009,175.12 258.323994,174.460007 259.5,173.14 L259.5,170.332 C258.371994,169.731997 257.064007,169.432 255.576,169.432 C254.375994,169.432 253.398004,169.665998 252.642,170.134 C251.885996,170.602002 251.508,171.315995 251.508,172.276 C251.508,173.164004 251.819997,173.859997 252.444,174.364 C253.068003,174.868003 253.967994,175.12 255.144,175.12 Z M276.24,178.432 C274.487991,178.432 273.036006,177.796006 271.884,176.524 L271.884,178 L268.14,178 L268.14,153.736 L271.884,152.008 L271.884,161.008 C272.988006,159.783994 274.439991,159.172 276.24,159.172 C278.520011,159.172 280.361993,160.029991 281.766,161.746 C283.170007,163.462009 283.872,165.807985 283.872,168.784 C283.872,171.856015 283.194007,174.231992 281.838,175.912 C280.481993,177.592008 278.616012,178.432 276.24,178.432 Z M275.772,174.904 C277.164007,174.904 278.237996,174.358005 278.994,173.266 C279.750004,172.173995 280.128,170.680009 280.128,168.784 C280.128,166.81599 279.756004,165.310005 279.012,164.266 C278.267996,163.221995 277.188007,162.7 275.772,162.7 C274.907996,162.7 274.128003,162.909998 273.432,163.33 C272.735997,163.750002 272.220002,164.235997 271.884,164.788 L271.884,172.816 C272.748004,174.208007 274.043991,174.904 275.772,174.904 Z M302.016,175.876 C300.503992,177.580009 298.452013,178.432 295.86,178.432 C293.267987,178.432 291.222008,177.580009 289.722,175.876 C288.221992,174.171991 287.472,171.820015 287.472,168.82 C287.472,165.819985 288.221992,163.462009 289.722,161.746 C291.222008,160.029991 293.267987,159.172 295.86,159.172 C298.452013,159.172 300.503992,160.029991 302.016,161.746 C303.528008,163.462009 304.284,165.819985 304.284,168.82 C304.284,171.820015 303.528008,174.171991 302.016,175.876 Z M295.86,174.904 C297.300007,174.904 298.439996,174.364005 299.28,173.284 C300.120004,172.203995 300.54,170.716009 300.54,168.82 C300.54,166.923991 300.120004,165.430005 299.28,164.338 C298.439996,163.245995 297.300007,162.7 295.86,162.7 C294.443993,162.7 293.316004,163.245995 292.476,164.338 C291.635996,165.430005 291.216,166.923991 291.216,168.82 C291.216,170.692009 291.635996,172.173995 292.476,173.266 C293.316004,174.358005 294.443993,174.904 295.86,174.904 Z M319.98,178 L319.98,176.236 C318.827994,177.700007 317.24401,178.432 315.228,178.432 C310.811978,178.432 308.604,175.816026 308.604,170.584 L308.604,159.604 L312.348,159.604 L312.348,170.584 C312.348,172.048007 312.683997,173.133996 313.356,173.842 C314.028003,174.550004 314.915994,174.904 316.02,174.904 C318.660013,174.904 319.98,173.488014 319.98,170.656 L319.98,159.604 L323.724,159.604 L323.724,178 L319.98,178 Z M334.452,178.432 C331.715986,178.432 330.348,176.908015 330.348,173.86 L330.348,162.844 L327.504,162.844 L327.504,159.604 L330.348,159.604 L330.348,153.808 L334.092,152.008 L334.092,159.604 L338.448,159.604 L338.448,162.844 L334.092,162.844 L334.092,172.888 C334.092,174.280007 334.691994,174.976 335.892,174.976 C336.780004,174.976 337.691995,174.688003 338.628,174.112 L338.16,177.604 C337.055994,178.156003 335.820007,178.432 334.452,178.432 Z M354.864,178 L349.968,159.604 L353.64,159.604 L356.232,171.052 C356.400001,171.772004 356.52,172.395997 356.592,172.924 C356.664,172.467998 356.795999,171.844004 356.988,171.052 L360.048,159.604 L363.504,159.604 L366.564,171.052 C366.756001,171.844004 366.888,172.467998 366.96,172.924 C367.032,172.395997 367.151999,171.772004 367.32,171.052 L369.912,159.604 L373.584,159.604 L368.688,178 L365.376,178 L362.316,167.308 C362.027999,166.323995 361.836,165.556003 361.74,165.004 C361.619999,165.772004 361.440001,166.551996 361.2,167.344 L358.176,178 L354.864,178 Z M377.544,178 L377.544,153.736 L381.288,152.008 L381.288,161.368 C382.440006,159.903993 384.02399,159.172 386.04,159.172 C390.456022,159.172 392.664,161.787974 392.664,167.02 L392.664,178 L388.92,178 L388.92,167.02 C388.92,165.555993 388.584003,164.470004 387.912,163.762 C387.239997,163.053996 386.352006,162.7 385.248,162.7 C382.607987,162.7 381.288,164.115986 381.288,166.948 L381.288,178 L377.544,178 Z M408.396,178 L408.396,176.416 C407.099994,177.760007 405.42001,178.432 403.356,178.432 C401.41199,178.432 399.834006,177.898005 398.622,176.83 C397.409994,175.761995 396.804,174.24401 396.804,172.276 C396.804,170.28399 397.487993,168.772005 398.856,167.74 C400.224007,166.707995 401.89199,166.192 403.86,166.192 C405.660009,166.192 407.171994,166.551996 408.396,167.272 L408.396,166.264 C408.396,164.895993 408.084003,163.924003 407.46,163.348 C406.835997,162.771997 405.840007,162.484 404.472,162.484 C402.45599,162.484 400.704007,163.035994 399.216,164.14 L398.1,161.08 C399.948009,159.807994 402.239986,159.172 404.976,159.172 C405.888005,159.172 406.703996,159.249999 407.424,159.406 C408.144004,159.562001 408.875996,159.861998 409.62,160.306 C410.364004,160.750002 410.945998,161.463995 411.366,162.448 C411.786002,163.432005 411.996,164.643993 411.996,166.084 L411.996,178 L408.396,178 Z M404.04,175.12 C405.768009,175.12 407.219994,174.460007 408.396,173.14 L408.396,170.332 C407.267994,169.731997 405.960007,169.432 404.472,169.432 C403.271994,169.432 402.294004,169.665998 401.538,170.134 C400.781996,170.602002 400.404,171.315995 400.404,172.276 C400.404,173.164004 400.715997,173.859997 401.34,174.364 C401.964003,174.868003 402.863994,175.12 404.04,175.12 Z M422.364,178.432 C419.627986,178.432 418.26,176.908015 418.26,173.86 L418.26,162.844 L415.416,162.844 L415.416,159.604 L418.26,159.604 L418.26,153.808 L422.004,152.008 L422.004,159.604 L426.36,159.604 L426.36,162.844 L422.004,162.844 L422.004,172.888 C422.004,174.280007 422.603994,174.976 423.804,174.976 C424.692004,174.976 425.603995,174.688003 426.54,174.112 L426.072,177.604 C424.967994,178.156003 423.732007,178.432 422.364,178.432 Z M440.04,178 L440.04,152.8 L443.784,152.8 L443.784,178 L440.04,178 Z M465.276,178.432 C462.947988,178.432 461.094007,177.574009 459.714,175.858 C458.333993,174.141991 457.644,171.784015 457.644,168.784 C457.644,165.807985 458.345993,163.462009 459.75,161.746 C461.154007,160.029991 462.995989,159.172 465.276,159.172 C467.076009,159.172 468.527994,159.747994 469.632,160.9 L469.632,153.736 L473.376,152.008 L473.376,178 L469.632,178 L469.632,176.704 C468.599995,177.856006 467.148009,178.432 465.276,178.432 Z M465.816,174.904 C467.496008,174.904 468.767996,174.208007 469.632,172.816 L469.632,164.716 C469.295998,164.163997 468.798003,163.690002 468.138,163.294 C467.477997,162.897998 466.704004,162.7 465.816,162.7 C464.399993,162.7 463.308004,163.227995 462.54,164.284 C461.771996,165.340005 461.388,166.83999 461.388,168.784 C461.388,170.608009 461.783996,172.083994 462.576,173.212 C463.368004,174.340006 464.447993,174.904 465.816,174.904 Z M492.42,175.876 C490.907992,177.580009 488.856013,178.432 486.264,178.432 C483.671987,178.432 481.626008,177.580009 480.126,175.876 C478.625992,174.171991 477.876,171.820015 477.876,168.82 C477.876,165.819985 478.625992,163.462009 480.126,161.746 C481.626008,160.029991 483.671987,159.172 486.264,159.172 C488.856013,159.172 490.907992,160.029991 492.42,161.746 C493.932008,163.462009 494.688,165.819985 494.688,168.82 C494.688,171.820015 493.932008,174.171991 492.42,175.876 Z M486.264,174.904 C487.704007,174.904 488.843996,174.364005 489.684,173.284 C490.524004,172.203995 490.944,170.716009 490.944,168.82 C490.944,166.923991 490.524004,165.430005 489.684,164.338 C488.843996,163.245995 487.704007,162.7 486.264,162.7 C484.847993,162.7 483.720004,163.245995 482.88,164.338 C482.039996,165.430005 481.62,166.923991 481.62,168.82 C481.62,170.692009 482.039996,172.173995 482.88,173.266 C483.720004,174.358005 484.847993,174.904 486.264,174.904 Z M497.964,182.176 C498.396002,181.791998 498.845998,181.246004 499.314,180.538 C499.782002,179.829996 500.064,179.128003 500.16,178.432 C499.511997,178.384 498.948002,178.126002 498.468,177.658 C497.987998,177.189998 497.748,176.608003 497.748,175.912 C497.748,175.119996 498.011997,174.466003 498.54,173.95 C499.068003,173.433997 499.691996,173.176 500.412,173.176 C501.228004,173.176 501.905997,173.457997 502.446,174.022 C502.986003,174.586003 503.256,175.395995 503.256,176.452 C503.256,177.772007 502.890004,179.031994 502.158,180.232 C501.425996,181.432006 500.496006,182.379997 499.368,183.076 L497.964,182.176 Z M524.028,178.432 C522.155991,178.432 520.680005,177.760007 519.6,176.416 L519.6,183.508 L515.856,185.236 L515.856,159.604 L519.6,159.604 L519.6,161.08 C520.752006,159.807994 522.227991,159.172 524.028,159.172 C526.356012,159.172 528.197993,160.029991 529.554,161.746 C530.910007,163.462009 531.588,165.819985 531.588,168.82 C531.588,171.796015 530.898007,174.141991 529.518,175.858 C528.137993,177.574009 526.308011,178.432 524.028,178.432 Z M523.488,174.904 C524.904007,174.904 525.983996,174.382005 526.728,173.338 C527.472004,172.293995 527.844,170.78801 527.844,168.82 C527.844,166.995991 527.460004,165.520006 526.692,164.392 C525.923996,163.263994 524.856007,162.7 523.488,162.7 C521.759991,162.7 520.464004,163.395993 519.6,164.788 L519.6,172.78 C520.656005,174.196007 521.951992,174.904 523.488,174.904 Z M536.268,178 L536.268,153.772 L540.012,152.008 L540.012,178 L536.268,178 Z M553.044,178.432 C550.475987,178.432 548.442008,177.574009 546.942,175.858 C545.441992,174.141991 544.692,171.784015 544.692,168.784 C544.692,165.783985 545.447992,163.432009 546.96,161.728 C548.472008,160.023991 550.499987,159.172 553.044,159.172 C555.348012,159.172 557.243993,159.903993 558.732,161.368 C560.220007,162.832007 560.964,164.967986 560.964,167.776 C560.964,168.808005 560.916,169.611997 560.82,170.188 L548.436,170.188 C548.46,171.652007 548.933995,172.839995 549.858,173.752 C550.782005,174.664005 551.855994,175.12 553.08,175.12 C554.664008,175.12 555.935995,174.496006 556.896,173.248 L559.344,175.768 C557.855993,177.544009 555.756014,178.432 553.044,178.432 Z M548.436,167.164 L557.22,167.164 C557.196,165.579992 556.776004,164.404004 555.96,163.636 C555.143996,162.867996 554.172006,162.484 553.044,162.484 C551.771994,162.484 550.710004,162.861996 549.858,163.618 C549.005996,164.374004 548.532,165.555992 548.436,167.164 Z M575.796,178 L575.796,176.416 C574.499994,177.760007 572.82001,178.432 570.756,178.432 C568.81199,178.432 567.234006,177.898005 566.022,176.83 C564.809994,175.761995 564.204,174.24401 564.204,172.276 C564.204,170.28399 564.887993,168.772005 566.256,167.74 C567.624007,166.707995 569.29199,166.192 571.26,166.192 C573.060009,166.192 574.571994,166.551996 575.796,167.272 L575.796,166.264 C575.796,164.895993 575.484003,163.924003 574.86,163.348 C574.235997,162.771997 573.240007,162.484 571.872,162.484 C569.85599,162.484 568.104007,163.035994 566.616,164.14 L565.5,161.08 C567.348009,159.807994 569.639986,159.172 572.376,159.172 C573.288005,159.172 574.103996,159.249999 574.824,159.406 C575.544004,159.562001 576.275996,159.861998 577.02,160.306 C577.764004,160.750002 578.345998,161.463995 578.766,162.448 C579.186002,163.432005 579.396,164.643993 579.396,166.084 L579.396,178 L575.796,178 Z M571.44,175.12 C573.168009,175.12 574.619994,174.460007 575.796,173.14 L575.796,170.332 C574.667994,169.731997 573.360007,169.432 571.872,169.432 C570.671994,169.432 569.694004,169.665998 568.938,170.134 C568.181996,170.602002 567.804,171.315995 567.804,172.276 C567.804,173.164004 568.115997,173.859997 568.74,174.364 C569.364003,174.868003 570.263994,175.12 571.44,175.12 Z M590.124,178.432 C588.683993,178.432 587.328006,178.162003 586.056,177.622 C584.783994,177.081997 583.824003,176.356005 583.176,175.444 L585.84,173.176 C587.160007,174.424006 588.563993,175.048 590.052,175.048 C592.212011,175.048 593.292,174.388007 593.292,173.068 C593.292,172.611998 593.088002,172.192002 592.68,171.808 C592.271998,171.423998 591.864002,171.142001 591.456,170.962 C591.047998,170.781999 590.388005,170.512002 589.476,170.152 C587.45999,169.479997 585.978005,168.688005 585.03,167.776 C584.081995,166.863995 583.608,165.688007 583.608,164.248 C583.608,162.663992 584.213994,161.422005 585.426,160.522 C586.638006,159.621995 588.167991,159.172 590.016,159.172 C592.776014,159.172 594.923992,160.095991 596.46,161.944 L593.76,164.104 C592.775995,163.071995 591.528008,162.556 590.016,162.556 C589.223996,162.556 588.594002,162.705998 588.126,163.006 C587.657998,163.306002 587.424,163.719997 587.424,164.248 C587.424,164.800003 587.705997,165.249998 588.27,165.598 C588.834003,165.946002 589.739994,166.359998 590.988,166.84 C593.07601,167.536003 594.605995,168.351995 595.578,169.288 C596.550005,170.224005 597.036,171.483992 597.036,173.068 C597.036,174.796009 596.418006,176.121995 595.182,177.046 C593.945994,177.970005 592.260011,178.432 590.124,178.432 Z M608.988,178.432 C606.419987,178.432 604.386008,177.574009 602.886,175.858 C601.385993,174.141991 600.636,171.784015 600.636,168.784 C600.636,165.783985 601.391992,163.432009 602.904,161.728 C604.416008,160.023991 606.443987,159.172 608.988,159.172 C611.292012,159.172 613.187993,159.903993 614.676,161.368 C616.164007,162.832007 616.908,164.967986 616.908,167.776 C616.908,168.808005 616.86,169.611997 616.764,170.188 L604.38,170.188 C604.404,171.652007 604.877995,172.839995 605.802,173.752 C606.726005,174.664005 607.799994,175.12 609.024,175.12 C610.608008,175.12 611.879995,174.496006 612.84,173.248 L615.288,175.768 C613.799993,177.544009 611.700014,178.432 608.988,178.432 Z M604.38,167.164 L613.164,167.164 C613.14,165.579992 612.720004,164.404004 611.904,163.636 C611.087996,162.867996 610.116006,162.484 608.988,162.484 C607.715994,162.484 606.654004,162.861996 605.802,163.618 C604.949996,164.374004 604.476,165.555992 604.38,167.164 Z M634.908,162.844 L634.908,178 L631.164,178 L631.164,162.844 L628.428,162.844 L628.428,159.604 L631.164,159.604 L631.164,156.652 C631.164,155.091992 631.559996,153.988003 632.352,153.34 C633.144004,152.691997 634.151994,152.368 635.376,152.368 C636.672006,152.368 637.895994,152.655997 639.048,153.232 L639.048,156.328 C638.015995,155.895998 637.140004,155.68 636.42,155.68 C635.411995,155.68 634.908,156.231994 634.908,157.336 L634.908,159.604 L639.048,159.604 L639.048,162.844 L634.908,162.844 Z M649.38,178.432 C646.811987,178.432 644.778008,177.574009 643.278,175.858 C641.777993,174.141991 641.028,171.784015 641.028,168.784 C641.028,165.783985 641.783992,163.432009 643.296,161.728 C644.808008,160.023991 646.835987,159.172 649.38,159.172 C651.684012,159.172 653.579993,159.903993 655.068,161.368 C656.556007,162.832007 657.3,164.967986 657.3,167.776 C657.3,168.808005 657.252,169.611997 657.156,170.188 L644.772,170.188 C644.796,171.652007 645.269995,172.839995 646.194,173.752 C647.118005,174.664005 648.191994,175.12 649.416,175.12 C651.000008,175.12 652.271995,174.496006 653.232,173.248 L655.68,175.768 C654.191993,177.544009 652.092014,178.432 649.38,178.432 Z M644.772,167.164 L653.556,167.164 C653.532,165.579992 653.112004,164.404004 652.296,163.636 C651.479996,162.867996 650.508006,162.484 649.38,162.484 C648.107994,162.484 647.046004,162.861996 646.194,163.618 C645.341996,164.374004 644.868,165.555992 644.772,167.164 Z M669.072,178.432 C666.503987,178.432 664.470008,177.574009 662.97,175.858 C661.469993,174.141991 660.72,171.784015 660.72,168.784 C660.72,165.783985 661.475992,163.432009 662.988,161.728 C664.500008,160.023991 666.527987,159.172 669.072,159.172 C671.376012,159.172 673.271993,159.903993 674.76,161.368 C676.248007,162.832007 676.992,164.967986 676.992,167.776 C676.992,168.808005 676.944,169.611997 676.848,170.188 L664.464,170.188 C664.488,171.652007 664.961995,172.839995 665.886,173.752 C666.810005,174.664005 667.883994,175.12 669.108,175.12 C670.692008,175.12 671.963995,174.496006 672.924,173.248 L675.372,175.768 C673.883993,177.544009 671.784014,178.432 669.072,178.432 Z M664.464,167.164 L673.248,167.164 C673.224,165.579992 672.804004,164.404004 671.988,163.636 C671.171996,162.867996 670.200006,162.484 669.072,162.484 C667.799994,162.484 666.738004,162.861996 665.886,163.618 C665.033996,164.374004 664.56,165.555992 664.464,167.164 Z M681.492,178 L681.492,153.772 L685.236,152.008 L685.236,178 L681.492,178 Z M704.496,162.844 L704.496,178 L700.752,178 L700.752,162.844 L698.016,162.844 L698.016,159.604 L700.752,159.604 L700.752,156.652 C700.752,155.091992 701.147996,153.988003 701.94,153.34 C702.732004,152.691997 703.739994,152.368 704.964,152.368 C706.260006,152.368 707.483994,152.655997 708.636,153.232 L708.636,156.328 C707.603995,155.895998 706.728004,155.68 706.008,155.68 C704.999995,155.68 704.496,156.231994 704.496,157.336 L704.496,159.604 L708.636,159.604 L708.636,162.844 L704.496,162.844 Z M711.516,178 L711.516,159.604 L715.26,159.604 L715.26,161.836 C716.076004,160.059991 717.44399,159.172 719.364,159.172 C720.564006,159.172 721.595996,159.543996 722.46,160.288 L721.92,163.744 C721.031996,163.143997 720.060005,162.844 719.004,162.844 C717.995995,162.844 717.120004,163.221996 716.376,163.978 C715.631996,164.734004 715.26,165.963991 715.26,167.668 L715.26,178 L711.516,178 Z M733.26,178.432 C730.691987,178.432 728.658008,177.574009 727.158,175.858 C725.657992,174.141991 724.908,171.784015 724.908,168.784 C724.908,165.783985 725.663992,163.432009 727.176,161.728 C728.688008,160.023991 730.715987,159.172 733.26,159.172 C735.564012,159.172 737.459993,159.903993 738.948,161.368 C740.436007,162.832007 741.18,164.967986 741.18,167.776 C741.18,168.808005 741.132,169.611997 741.036,170.188 L728.652,170.188 C728.676,171.652007 729.149995,172.839995 730.074,173.752 C730.998005,174.664005 732.071994,175.12 733.296,175.12 C734.880008,175.12 736.151995,174.496006 737.112,173.248 L739.56,175.768 C738.071993,177.544009 735.972014,178.432 733.26,178.432 Z M728.652,167.164 L737.436,167.164 C737.412,165.579992 736.992004,164.404004 736.176,163.636 C735.359996,162.867996 734.388006,162.484 733.26,162.484 C731.987994,162.484 730.926004,162.861996 730.074,163.618 C729.221996,164.374004 728.748,165.555992 728.652,167.164 Z M752.952,178.432 C750.383987,178.432 748.350007,177.574009 746.85,175.858 C745.349993,174.141991 744.6,171.784015 744.6,168.784 C744.6,165.783985 745.355992,163.432009 746.868,161.728 C748.380008,160.023991 750.407987,159.172 752.952,159.172 C755.256012,159.172 757.151993,159.903993 758.64,161.368 C760.128007,162.832007 760.872,164.967986 760.872,167.776 C760.872,168.808005 760.824,169.611997 760.728,170.188 L748.344,170.188 C748.368,171.652007 748.841995,172.839995 749.766,173.752 C750.690005,174.664005 751.763994,175.12 752.988,175.12 C754.572008,175.12 755.843995,174.496006 756.804,173.248 L759.252,175.768 C757.763993,177.544009 755.664014,178.432 752.952,178.432 Z M748.344,167.164 L757.128,167.164 C757.104,165.579992 756.684004,164.404004 755.868,163.636 C755.051996,162.867996 754.080006,162.484 752.952,162.484 C751.679994,162.484 750.618004,162.861996 749.766,163.618 C748.913996,164.374004 748.44,165.555992 748.344,167.164 Z M56.028,232.432 C53.2919863,232.432 51.924,230.908015 51.924,227.86 L51.924,216.844 L49.08,216.844 L49.08,213.604 L51.924,213.604 L51.924,207.808 L55.668,206.008 L55.668,213.604 L60.024,213.604 L60.024,216.844 L55.668,216.844 L55.668,226.888 C55.668,228.280007 56.267994,228.976 57.468,228.976 C58.3560044,228.976 59.2679953,228.688003 60.204,228.112 L59.736,231.604 C58.6319945,232.156003 57.3960068,232.432 56.028,232.432 Z M77.988,229.876 C76.4759924,231.580009 74.424013,232.432 71.832,232.432 C69.239987,232.432 67.1940075,231.580009 65.694,229.876 C64.1939925,228.171991 63.444,225.820015 63.444,222.82 C63.444,219.819985 64.1939925,217.462009 65.694,215.746 C67.1940075,214.029991 69.239987,213.172 71.832,213.172 C74.424013,213.172 76.4759924,214.029991 77.988,215.746 C79.5000076,217.462009 80.256,219.819985 80.256,222.82 C80.256,225.820015 79.5000076,228.171991 77.988,229.876 Z M71.832,228.904 C73.2720072,228.904 74.4119958,228.364005 75.252,227.284 C76.0920042,226.203995 76.512,224.716009 76.512,222.82 C76.512,220.923991 76.0920042,219.430005 75.252,218.338 C74.4119958,217.245995 73.2720072,216.7 71.832,216.7 C70.4159929,216.7 69.2880042,217.245995 68.448,218.338 C67.6079958,219.430005 67.188,220.923991 67.188,222.82 C67.188,224.692009 67.6079958,226.173995 68.448,227.266 C69.2880042,228.358005 70.4159929,228.904 71.832,228.904 Z M99.552,239.2 L97.68,236.32 C100.224013,236.175999 101.993995,235.750004 102.99,235.042 C103.986005,234.333996 104.484,233.368006 104.484,232.144 L104.484,230.524 C103.451995,231.796006 101.97601,232.432 100.056,232.432 C97.847989,232.432 96.0360071,231.598008 94.62,229.93 C93.2039929,228.261992 92.496,225.880015 92.496,222.784 C92.496,219.807985 93.197993,217.462009 94.602,215.746 C96.006007,214.029991 97.8479886,213.172 100.128,213.172 C101.928009,213.172 103.379994,213.747994 104.484,214.9 L104.484,213.604 L108.228,213.604 L108.228,230.812 C108.228,233.644014 107.520007,235.695994 106.104,236.968 C104.687993,238.240006 102.504015,238.983999 99.552,239.2 Z M100.74,228.904 C102.372008,228.904 103.619996,228.184007 104.484,226.744 L104.484,218.788 C104.099998,218.163997 103.566003,217.660002 102.882,217.276 C102.197997,216.891998 101.484004,216.7 100.74,216.7 C99.2759927,216.7 98.1600038,217.221995 97.392,218.266 C96.6239962,219.310005 96.24,220.81599 96.24,222.784 C96.24,224.656009 96.641996,226.143994 97.446,227.248 C98.250004,228.352006 99.347993,228.904 100.74,228.904 Z M121.08,232.432 C118.511987,232.432 116.478008,231.574009 114.978,229.858 C113.477993,228.141991 112.728,225.784015 112.728,222.784 C112.728,219.783985 113.483992,217.432009 114.996,215.728 C116.508008,214.023991 118.535987,213.172 121.08,213.172 C123.384012,213.172 125.279993,213.903993 126.768,215.368 C128.256007,216.832007 129,218.967986 129,221.776 C129,222.808005 128.952,223.611997 128.856,224.188 L116.472,224.188 C116.496,225.652007 116.969995,226.839995 117.894,227.752 C118.818005,228.664005 119.891994,229.12 121.116,229.12 C122.700008,229.12 123.971995,228.496006 124.932,227.248 L127.38,229.768 C125.891993,231.544009 123.792014,232.432 121.08,232.432 Z M116.472,221.164 L125.256,221.164 C125.232,219.579992 124.812004,218.404004 123.996,217.636 C123.179996,216.867996 122.208006,216.484 121.08,216.484 C119.807994,216.484 118.746004,216.861996 117.894,217.618 C117.041996,218.374004 116.568,219.555992 116.472,221.164 Z M138.648,232.432 C135.911986,232.432 134.544,230.908015 134.544,227.86 L134.544,216.844 L131.7,216.844 L131.7,213.604 L134.544,213.604 L134.544,207.808 L138.288,206.008 L138.288,213.604 L142.644,213.604 L142.644,216.844 L138.288,216.844 L138.288,226.888 C138.288,228.280007 138.887994,228.976 140.088,228.976 C140.976004,228.976 141.887995,228.688003 142.824,228.112 L142.356,231.604 C141.251994,232.156003 140.016007,232.432 138.648,232.432 Z M159.096,210.076 C158.663998,210.508002 158.136003,210.724 157.512,210.724 C156.887997,210.724 156.354002,210.502002 155.91,210.058 C155.465998,209.613998 155.244,209.080003 155.244,208.456 C155.244,207.831997 155.465998,207.298002 155.91,206.854 C156.354002,206.409998 156.887997,206.188 157.512,206.188 C158.136003,206.188 158.669998,206.409998 159.114,206.854 C159.558002,207.298002 159.78,207.831997 159.78,208.456 C159.78,209.080003 159.552002,209.619998 159.096,210.076 Z M155.64,232 L155.64,213.604 L159.384,213.604 L159.384,232 L155.64,232 Z M176.196,232 L176.196,221.02 C176.196,219.555993 175.860003,218.470004 175.188,217.762 C174.515997,217.053996 173.628006,216.7 172.524,216.7 C169.883987,216.7 168.564,218.115986 168.564,220.948 L168.564,232 L164.82,232 L164.82,213.604 L168.564,213.604 L168.564,215.368 C169.716006,213.903993 171.29999,213.172 173.316,213.172 C177.732022,213.172 179.94,215.787974 179.94,221.02 L179.94,232 L176.196,232 Z M199.128,232.432 C196.391986,232.432 195.024,230.908015 195.024,227.86 L195.024,216.844 L192.18,216.844 L192.18,213.604 L195.024,213.604 L195.024,207.808 L198.768,206.008 L198.768,213.604 L203.124,213.604 L203.124,216.844 L198.768,216.844 L198.768,226.888 C198.768,228.280007 199.367994,228.976 200.568,228.976 C201.456004,228.976 202.367995,228.688003 203.304,228.112 L202.836,231.604 C201.731994,232.156003 200.496007,232.432 199.128,232.432 Z M221.088,229.876 C219.575992,231.580009 217.524013,232.432 214.932,232.432 C212.339987,232.432 210.294008,231.580009 208.794,229.876 C207.293993,228.171991 206.544,225.820015 206.544,222.82 C206.544,219.819985 207.293993,217.462009 208.794,215.746 C210.294008,214.029991 212.339987,213.172 214.932,213.172 C217.524013,213.172 219.575992,214.029991 221.088,215.746 C222.600008,217.462009 223.356,219.819985 223.356,222.82 C223.356,225.820015 222.600008,228.171991 221.088,229.876 Z M214.932,228.904 C216.372007,228.904 217.511996,228.364005 218.352,227.284 C219.192004,226.203995 219.612,224.716009 219.612,222.82 C219.612,220.923991 219.192004,219.430005 218.352,218.338 C217.511996,217.245995 216.372007,216.7 214.932,216.7 C213.515993,216.7 212.388004,217.245995 211.548,218.338 C210.707996,219.430005 210.288,220.923991 210.288,222.82 C210.288,224.692009 210.707996,226.173995 211.548,227.266 C212.388004,228.358005 213.515993,228.904 214.932,228.904 Z M239.052,232 L239.052,230.236 C237.899994,231.700007 236.31601,232.432 234.3,232.432 C229.883978,232.432 227.676,229.816026 227.676,224.584 L227.676,213.604 L231.42,213.604 L231.42,224.584 C231.42,226.048007 231.755997,227.133996 232.428,227.842 C233.100003,228.550004 233.987994,228.904 235.092,228.904 C237.732013,228.904 239.052,227.488014 239.052,224.656 L239.052,213.604 L242.796,213.604 L242.796,232 L239.052,232 Z M255.324,232.432 C252.851988,232.432 250.896007,231.580009 249.456,229.876 C248.015993,228.171991 247.296,225.820015 247.296,222.82 C247.296,219.819985 248.015993,217.462009 249.456,215.746 C250.896007,214.029991 252.851988,213.172 255.324,213.172 C258.900018,213.172 261.215995,214.755984 262.272,217.924 L258.708,219.148 C258.107997,217.563992 257.028008,216.772 255.468,216.772 C254.075993,216.772 253.002004,217.305995 252.246,218.374 C251.489996,219.442005 251.112,220.923991 251.112,222.82 C251.112,224.692009 251.483996,226.161995 252.228,227.23 C252.972004,228.298005 254.003993,228.832 255.324,228.832 C257.100009,228.832 258.251997,227.932009 258.78,226.132 L262.344,227.248 C261.359995,230.704017 259.020018,232.432 255.324,232.432 Z M266.844,232 L266.844,207.736 L270.588,206.008 L270.588,215.368 C271.740006,213.903993 273.32399,213.172 275.34,213.172 C279.756022,213.172 281.964,215.787974 281.964,221.02 L281.964,232 L278.22,232 L278.22,221.02 C278.22,219.555993 277.884003,218.470004 277.212,217.762 C276.539997,217.053996 275.652006,216.7 274.548,216.7 C271.907987,216.7 270.588,218.115986 270.588,220.948 L270.588,232 L266.844,232 Z M288.48,232.432 C287.711996,232.432 287.070003,232.174003 286.554,231.658 C286.037997,231.141997 285.78,230.524004 285.78,229.804 C285.78,229.083996 286.037997,228.460003 286.554,227.932 C287.070003,227.403997 287.711996,227.14 288.48,227.14 C289.224004,227.14 289.865997,227.403997 290.406,227.932 C290.946003,228.460003 291.216,229.083996 291.216,229.804 C291.216,230.524004 290.946003,231.141997 290.406,231.658 C289.865997,232.174003 289.224004,232.432 288.48,232.432 Z" id="For-any-project-inqu" fill="#848484"></path>
                <rect id="Rectangle-6" stroke="#373737" fill-rule="nonzero" x="50.5" y="302.5" width="149" height="54"></rect>
                <path d="M108.908,325.886 C108.908,326.007334 108.847334,326.068 108.726,326.068 L103.63,326.068 C103.583333,326.068 103.56,326.091333 103.56,326.138 L103.56,329.568 C103.56,329.614667 103.583333,329.638 103.63,329.638 L107.186,329.638 C107.307334,329.638 107.368,329.698666 107.368,329.82 L107.368,330.324 C107.368,330.445334 107.307334,330.506 107.186,330.506 L103.63,330.506 C103.583333,330.506 103.56,330.529333 103.56,330.576 L103.56,334.062 C103.56,334.108667 103.583333,334.132 103.63,334.132 L108.726,334.132 C108.847334,334.132 108.908,334.192666 108.908,334.314 L108.908,334.818 C108.908,334.939334 108.847334,335 108.726,335 L102.748,335 C102.626666,335 102.566,334.939334 102.566,334.818 L102.566,325.382 C102.566,325.260666 102.626666,325.2 102.748,325.2 L108.726,325.2 C108.847334,325.2 108.908,325.260666 108.908,325.382 L108.908,325.886 Z M113.218,335 C113.096666,335 113.036,334.939334 113.036,334.818 L113.036,325.382 C113.036,325.260666 113.096666,325.2 113.218,325.2 L113.876,325.2 C113.96,325.2 114.03,325.242 114.086,325.326 L116.648,329.372 C116.676,329.428 116.704,329.428 116.732,329.372 L119.308,325.326 C119.364,325.242 119.434,325.2 119.518,325.2 L120.176,325.2 C120.297334,325.2 120.358,325.260666 120.358,325.382 L120.358,334.818 C120.358,334.939334 120.297334,335 120.176,335 L119.546,335 C119.424666,335 119.364,334.939334 119.364,334.818 L119.364,327.09 C119.364,327.052666 119.354667,327.034 119.336,327.034 C119.317333,327.034 119.298667,327.048 119.28,327.076 L117.068,330.576 C117.012,330.66 116.942,330.702 116.858,330.702 L116.536,330.702 C116.452,330.702 116.382,330.66 116.326,330.576 L114.114,327.076 C114.095333,327.048 114.076667,327.034 114.058,327.034 C114.039333,327.034 114.03,327.052666 114.03,327.09 L114.03,334.818 C114.03,334.939334 113.969334,335 113.848,335 L113.218,335 Z M130.828,335 C130.725333,335 130.66,334.948667 130.632,334.846 L130.072,333.138 C130.053333,333.100666 130.03,333.082 130.002,333.082 L125.83,333.082 C125.802,333.082 125.778667,333.100666 125.76,333.138 L125.214,334.846 C125.186,334.948667 125.120667,335 125.018,335 L124.346,335 C124.280666,335 124.234,334.981334 124.206,334.944 C124.178,334.906666 124.173333,334.855334 124.192,334.79 L127.272,325.354 C127.3,325.251333 127.365333,325.2 127.468,325.2 L128.364,325.2 C128.466667,325.2 128.532,325.251333 128.56,325.354 L131.654,334.79 C131.663333,334.808667 131.668,334.832 131.668,334.86 C131.668,334.897334 131.651667,334.93 131.619,334.958 C131.586333,334.986 131.546667,335 131.5,335 L130.828,335 Z M126.068,332.186 C126.058667,332.242 126.077333,332.27 126.124,332.27 L129.722,332.27 C129.778,332.27 129.796667,332.242 129.778,332.186 L127.958,326.46 C127.948667,326.422666 127.934667,326.404 127.916,326.404 C127.897333,326.404 127.883333,326.422666 127.874,326.46 L126.068,332.186 Z M135.67,335 C135.548666,335 135.488,334.939334 135.488,334.818 L135.488,325.382 C135.488,325.260666 135.548666,325.2 135.67,325.2 L136.3,325.2 C136.421334,325.2 136.482,325.260666 136.482,325.382 L136.482,334.818 C136.482,334.939334 136.421334,335 136.3,335 L135.67,335 Z M141.296,335 C141.174666,335 141.114,334.939334 141.114,334.818 L141.114,325.382 C141.114,325.260666 141.174666,325.2 141.296,325.2 L141.926,325.2 C142.047334,325.2 142.108,325.260666 142.108,325.382 L142.108,334.062 C142.108,334.108667 142.131333,334.132 142.178,334.132 L147.064,334.132 C147.185334,334.132 147.246,334.192666 147.246,334.314 L147.246,334.818 C147.246,334.939334 147.185334,335 147.064,335 L141.296,335 Z" id="EMAIL" fill="#848484"></path>
                <rect id="Rectangle-6-Copy" stroke="#373737" fill-rule="nonzero" x="236.5" y="302.5" width="149" height="54"></rect>
                <path d="M274.636,335 C274.514666,335 274.454,334.939334 274.454,334.818 L274.454,325.382 C274.454,325.260666 274.514666,325.2 274.636,325.2 L275.266,325.2 C275.387334,325.2 275.448,325.260666 275.448,325.382 L275.448,334.062 C275.448,334.108667 275.471333,334.132 275.518,334.132 L280.404,334.132 C280.525334,334.132 280.586,334.192666 280.586,334.314 L280.586,334.818 C280.586,334.939334 280.525334,335 280.404,335 L274.636,335 Z M284.588,335 C284.466666,335 284.406,334.939334 284.406,334.818 L284.406,325.382 C284.406,325.260666 284.466666,325.2 284.588,325.2 L285.218,325.2 C285.339334,325.2 285.4,325.260666 285.4,325.382 L285.4,334.818 C285.4,334.939334 285.339334,335 285.218,335 L284.588,335 Z M290.214,335 C290.092666,335 290.032,334.939334 290.032,334.818 L290.032,325.382 C290.032,325.260666 290.092666,325.2 290.214,325.2 L290.844,325.2 C290.928,325.2 290.998,325.242 291.054,325.326 L295.758,332.942 C295.776667,332.97 295.795333,332.981667 295.814,332.977 C295.832667,332.972333 295.842,332.951334 295.842,332.914 L295.842,325.382 C295.842,325.260666 295.902666,325.2 296.024,325.2 L296.654,325.2 C296.775334,325.2 296.836,325.260666 296.836,325.382 L296.836,334.818 C296.836,334.939334 296.775334,335 296.654,335 L296.024,335 C295.94,335 295.87,334.958 295.814,334.874 L291.096,327.23 C291.077333,327.202 291.058667,327.190333 291.04,327.195 C291.021333,327.199667 291.012,327.220666 291.012,327.258 L291.026,334.818 C291.026,334.939334 290.965334,335 290.844,335 L290.214,335 Z M301.636,335 C301.514666,335 301.454,334.939334 301.454,334.818 L301.454,325.382 C301.454,325.260666 301.514666,325.2 301.636,325.2 L302.266,325.2 C302.387334,325.2 302.448,325.260666 302.448,325.382 L302.448,330.058 C302.448,330.086 302.457333,330.104667 302.476,330.114 C302.494667,330.123333 302.513333,330.114 302.532,330.086 L306.928,325.298 C306.984,325.232666 307.058666,325.2 307.152,325.2 L307.852,325.2 C307.954667,325.2 308.006,325.237333 308.006,325.312 C308.006,325.349334 307.987334,325.386666 307.95,325.424 L304.576,329.246 C304.548,329.283334 304.543333,329.316 304.562,329.344 L308.244,334.776 C308.272,334.813334 308.286,334.850666 308.286,334.888 C308.286,334.962667 308.234667,335 308.132,335 L307.404,335 C307.310666,335 307.236,334.962667 307.18,334.888 L303.89,330.058 C303.852666,330.002 303.82,329.997333 303.792,330.044 L302.476,331.43 C302.457333,331.467334 302.448,331.5 302.448,331.528 L302.448,334.818 C302.448,334.939334 302.387334,335 302.266,335 L301.636,335 Z M318.35,325.886 C318.35,326.007334 318.289334,326.068 318.168,326.068 L313.072,326.068 C313.025333,326.068 313.002,326.091333 313.002,326.138 L313.002,329.568 C313.002,329.614667 313.025333,329.638 313.072,329.638 L316.628,329.638 C316.749334,329.638 316.81,329.698666 316.81,329.82 L316.81,330.324 C316.81,330.445334 316.749334,330.506 316.628,330.506 L313.072,330.506 C313.025333,330.506 313.002,330.529333 313.002,330.576 L313.002,334.062 C313.002,334.108667 313.025333,334.132 313.072,334.132 L318.168,334.132 C318.289334,334.132 318.35,334.192666 318.35,334.314 L318.35,334.818 C318.35,334.939334 318.289334,335 318.168,335 L312.19,335 C312.068666,335 312.008,334.939334 312.008,334.818 L312.008,325.382 C312.008,325.260666 312.068666,325.2 312.19,325.2 L318.168,325.2 C318.289334,325.2 318.35,325.260666 318.35,325.382 L318.35,325.886 Z M322.66,335 C322.538666,335 322.478,334.939334 322.478,334.818 L322.478,325.382 C322.478,325.260666 322.538666,325.2 322.66,325.2 L325.922,325.2 C326.846005,325.2 327.580997,325.442664 328.127,325.928 C328.673003,326.413336 328.946,327.071329 328.946,327.902 L328.946,332.298 C328.946,333.128671 328.673003,333.786664 328.127,334.272 C327.580997,334.757336 326.846005,335 325.922,335 L322.66,335 Z M323.472,334.062 C323.472,334.108667 323.495333,334.132 323.542,334.132 L325.964,334.132 C326.57067,334.132 327.053665,333.954668 327.413,333.6 C327.772335,333.245332 327.952,332.769336 327.952,332.172 L327.952,328.042 C327.952,327.43533 327.774668,326.954668 327.42,326.6 C327.065332,326.245332 326.580003,326.068 325.964,326.068 L323.542,326.068 C323.495333,326.068 323.472,326.091333 323.472,326.138 L323.472,334.062 Z M333.312,335 C333.190666,335 333.13,334.939334 333.13,334.818 L333.13,325.382 C333.13,325.260666 333.190666,325.2 333.312,325.2 L333.942,325.2 C334.063334,325.2 334.124,325.260666 334.124,325.382 L334.124,334.818 C334.124,334.939334 334.063334,335 333.942,335 L333.312,335 Z M338.938,335 C338.816666,335 338.756,334.939334 338.756,334.818 L338.756,325.382 C338.756,325.260666 338.816666,325.2 338.938,325.2 L339.568,325.2 C339.652,325.2 339.722,325.242 339.778,325.326 L344.482,332.942 C344.500667,332.97 344.519333,332.981667 344.538,332.977 C344.556667,332.972333 344.566,332.951334 344.566,332.914 L344.566,325.382 C344.566,325.260666 344.626666,325.2 344.748,325.2 L345.378,325.2 C345.499334,325.2 345.56,325.260666 345.56,325.382 L345.56,334.818 C345.56,334.939334 345.499334,335 345.378,335 L344.748,335 C344.664,335 344.594,334.958 344.538,334.874 L339.82,327.23 C339.801333,327.202 339.782667,327.190333 339.764,327.195 C339.745333,327.199667 339.736,327.220666 339.736,327.258 L339.75,334.818 C339.75,334.939334 339.689334,335 339.568,335 L338.938,335 Z" id="LINKEDIN" fill="#848484"></path>
            </g>
        </g>
    </g>
</svg>