<?xml version="1.0" encoding="UTF-8"?>
<svg width="900px" height="440px" viewBox="0 0 900 440" version="1.1" xmlns="http://www.w3.org/2000/svg" xmlns:xlink="http://www.w3.org/1999/xlink">
    <g stroke="none" stroke-width="1" fill="none" fill-rule="evenodd">
        <g transform="translate(-151.000000, -289.000000)">
            <g transform="translate(151.000000, 289.000000)">
                <g>
                    <rect id="Mask-Copy-4" stroke="#373737" fill-rule="nonzero" x="0.5" y="0.5" width="899" height="439"></rect>
                    <path d="M50.76,216.048499 L50.76,171.248499 L68.744,171.248499 C73.8213587,171.248499 77.5546547,172.571152 79.944,175.216499 C82.3333453,177.861845 83.528,181.10448 83.528,184.944499 C83.528,188.528517 82.290679,191.707152 79.816,194.480499 C77.341321,197.253846 73.6506912,198.640499 68.744,198.640499 L57.416,198.640499 L57.416,216.048499 L50.76,216.048499 Z M69.128,192.240499 C71.6880128,192.240499 73.5759939,191.525839 74.792,190.096499 C76.0080061,188.667158 76.616,186.949842 76.616,184.944499 C76.616,183.024489 76.0293392,181.328506 74.856,179.856499 C73.6826608,178.384491 71.7733466,177.648499 69.128,177.648499 L57.416,177.648499 L57.416,192.240499 L69.128,192.240499 Z M106.376,216.048499 L106.376,213.232499 C104.071988,215.621844 101.085352,216.816499 97.416,216.816499 C93.9599827,216.816499 91.1546774,215.867175 89,213.968499 C86.8453226,212.069823 85.768,209.371183 85.768,205.872499 C85.768,202.331148 86.9839878,199.643175 89.416,197.808499 C91.8480122,195.973823 94.8133158,195.056499 98.312,195.056499 C101.512016,195.056499 104.199989,195.696492 106.376,196.976499 L106.376,195.184499 C106.376,192.752487 105.821339,191.024504 104.712,190.000499 C103.602661,188.976494 101.832012,188.464499 99.4,188.464499 C95.8159821,188.464499 92.7013466,189.445822 90.056,191.408499 L88.072,185.968499 C91.3573498,183.707154 95.4319757,182.576499 100.296,182.576499 C101.917341,182.576499 103.367994,182.715164 104.648,182.992499 C105.928006,183.269834 107.229327,183.803162 108.552,184.592499 C109.874673,185.381836 110.90933,186.651157 111.656,188.400499 C112.40267,190.149841 112.776,192.304486 112.776,194.864499 L112.776,216.048499 L106.376,216.048499 Z M98.632,210.928499 C101.704015,210.928499 104.285323,209.755177 106.376,207.408499 L106.376,202.416499 C104.370657,201.349827 102.045347,200.816499 99.4,200.816499 C97.266656,200.816499 95.5280067,201.232495 94.184,202.064499 C92.8399933,202.896503 92.168,204.165824 92.168,205.872499 C92.168,207.451173 92.7226611,208.688494 93.832,209.584499 C94.9413389,210.480503 96.5413229,210.928499 98.632,210.928499 Z M140.04,216.048499 L140.04,212.912499 C137.99199,215.515179 135.176018,216.816499 131.592,216.816499 C123.741294,216.816499 119.816,212.165879 119.816,202.864499 L119.816,183.344499 L126.472,183.344499 L126.472,202.864499 C126.472,205.467179 127.069327,207.397826 128.264,208.656499 C129.458673,209.915172 131.037324,210.544499 133,210.544499 C137.693357,210.544499 140.04,208.027191 140.04,202.992499 L140.04,183.344499 L146.696,183.344499 L146.696,216.048499 L140.04,216.048499 Z M155.016,216.048499 L155.016,172.976499 L161.672,169.840499 L161.672,216.048499 L155.016,216.048499 Z M176.2,177.072499 C175.431996,177.840503 174.493339,178.224499 173.384,178.224499 C172.274661,178.224499 171.325337,177.829836 170.536,177.040499 C169.746663,176.251162 169.352,175.301838 169.352,174.192499 C169.352,173.08316 169.746663,172.133836 170.536,171.344499 C171.325337,170.555162 172.274661,170.160499 173.384,170.160499 C174.493339,170.160499 175.442663,170.555162 176.232,171.344499 C177.021337,172.133836 177.416,173.08316 177.416,174.192499 C177.416,175.301838 177.010671,176.261828 176.2,177.072499 Z M170.056,216.048499 L170.056,183.344499 L176.712,183.344499 L176.712,216.048499 L170.056,216.048499 Z M205,216.048499 L205,196.528499 C205,193.925819 204.402673,191.995172 203.208,190.736499 C202.013327,189.477826 200.434676,188.848499 198.472,188.848499 C193.778643,188.848499 191.432,191.365807 191.432,196.400499 L191.432,216.048499 L184.776,216.048499 L184.776,183.344499 L191.432,183.344499 L191.432,186.480499 C193.48001,183.877819 196.295982,182.576499 199.88,182.576499 C207.730706,182.576499 211.656,187.227119 211.656,196.528499 L211.656,216.048499 L205,216.048499 Z M232.584,216.816499 C228.018644,216.816499 224.40268,215.291181 221.736,212.240499 C219.06932,209.189817 217.736,204.997859 217.736,199.664499 C217.736,194.331139 219.079987,190.149847 221.768,187.120499 C224.456013,184.09115 228.061311,182.576499 232.584,182.576499 C236.68002,182.576499 240.050653,183.877819 242.696,186.480499 C245.341347,189.083179 246.664,192.880474 246.664,197.872499 C246.664,199.707175 246.578668,201.136494 246.408,202.160499 L224.392,202.160499 C224.434667,204.763179 225.277325,206.875157 226.92,208.496499 C228.562675,210.11784 230.471989,210.928499 232.648,210.928499 C235.464014,210.928499 237.725325,209.819177 239.432,207.600499 L243.784,212.080499 C241.138653,215.237848 237.405357,216.816499 232.584,216.816499 Z M224.392,196.784499 L240.008,196.784499 C239.965333,193.968485 239.218674,191.877839 237.768,190.512499 C236.317326,189.147159 234.589343,188.464499 232.584,188.464499 C230.322655,188.464499 228.434674,189.136492 226.92,190.480499 C225.405326,191.824506 224.562668,193.925818 224.392,196.784499 Z M292.936,215.472499 C290.674655,216.368503 288.157347,216.816499 285.384,216.816499 C282.610653,216.816499 280.093345,216.368503 277.832,215.472499 C275.570655,214.576494 273.714674,213.38184 272.264,211.888499 C270.813326,210.395158 269.597338,208.624509 268.616,206.576499 C267.634662,204.528489 266.930669,202.437843 266.504,200.304499 C266.077331,198.171155 265.864,195.95251 265.864,193.648499 C265.864,191.344487 266.077331,189.125843 266.504,186.992499 C266.930669,184.859155 267.634662,182.768509 268.616,180.720499 C269.597338,178.672489 270.813326,176.90184 272.264,175.408499 C273.714674,173.915158 275.570655,172.720503 277.832,171.824499 C280.093345,170.928494 282.610653,170.480499 285.384,170.480499 C288.157347,170.480499 290.674655,170.928494 292.936,171.824499 C295.197345,172.720503 297.053326,173.915158 298.504,175.408499 C299.954674,176.90184 301.170662,178.672489 302.152,180.720499 C303.133338,182.768509 303.837331,184.859155 304.264,186.992499 C304.690669,189.125843 304.904,191.344487 304.904,193.648499 C304.904,195.95251 304.690669,198.171155 304.264,200.304499 C303.837331,202.437843 303.133338,204.528489 302.152,206.576499 C301.170662,208.624509 299.954674,210.395158 298.504,211.888499 C297.053326,213.38184 295.197345,214.576494 292.936,215.472499 Z M279.496,208.944499 C281.202675,209.925837 283.165322,210.416499 285.384,210.416499 C287.602678,210.416499 289.565325,209.893837 291.272,208.848499 C292.978675,207.80316 294.301329,206.427174 295.24,204.720499 C296.178671,203.013824 296.871998,201.232508 297.32,199.376499 C297.768002,197.52049 297.992,195.611175 297.992,193.648499 C297.992,191.600489 297.768002,189.627175 297.32,187.728499 C296.871998,185.829823 296.178671,184.048507 295.24,182.384499 C294.301329,180.720491 292.978675,179.387171 291.272,178.384499 C289.565325,177.381827 287.602678,176.880499 285.384,176.880499 C283.165322,176.880499 281.202675,177.40316 279.496,178.448499 C277.789325,179.493837 276.466671,180.869824 275.528,182.576499 C274.589329,184.283174 273.896002,186.06449 273.448,187.920499 C272.999998,189.776508 272.776,191.685822 272.776,193.648499 C272.776,195.696509 272.999998,197.669823 273.448,199.568499 C273.896002,201.467175 274.589329,203.248491 275.528,204.912499 C276.466671,206.576507 277.789325,207.920494 279.496,208.944499 Z M322.376,216.816499 C319.815987,216.816499 317.405345,216.336504 315.144,215.376499 C312.882655,214.416494 311.176006,213.12584 310.024,211.504499 L314.76,207.472499 C317.106678,209.691177 319.602653,210.800499 322.248,210.800499 C326.088019,210.800499 328.008,209.627177 328.008,207.280499 C328.008,206.469828 327.645337,205.723169 326.92,205.040499 C326.194663,204.357829 325.469337,203.8565 324.744,203.536499 C324.018663,203.216497 322.845341,202.736502 321.224,202.096499 C317.639982,200.901826 315.005342,199.49384 313.32,197.872499 C311.634658,196.251157 310.792,194.160512 310.792,191.600499 C310.792,188.784485 311.869323,186.576507 314.024,184.976499 C316.178677,183.376491 318.89865,182.576499 322.184,182.576499 C327.090691,182.576499 330.90932,184.219149 333.64,187.504499 L328.84,191.344499 C327.090658,189.509823 324.872013,188.592499 322.184,188.592499 C320.775993,188.592499 319.656004,188.859163 318.824,189.392499 C317.991996,189.925835 317.576,190.661827 317.576,191.600499 C317.576,192.581837 318.077328,193.381829 319.08,194.000499 C320.082672,194.619169 321.693322,195.355161 323.912,196.208499 C327.624019,197.445838 330.343991,198.896491 332.072,200.560499 C333.800009,202.224507 334.664,204.464485 334.664,207.280499 C334.664,210.352514 333.565344,212.709824 331.368,214.352499 C329.170656,215.995174 326.173352,216.816499 322.376,216.816499 Z M379.464,216.048499 L379.464,196.464499 C379.464,191.38714 377.458687,188.848499 373.448,188.848499 C371.570657,188.848499 370.01334,189.541825 368.776,190.928499 C367.53866,192.315172 366.92,194.267153 366.92,196.784499 L366.92,216.048499 L360.264,216.048499 L360.264,196.464499 C360.264,191.38714 358.258687,188.848499 354.248,188.848499 C352.370657,188.848499 350.81334,189.541825 349.576,190.928499 C348.33866,192.315172 347.72,194.267153 347.72,196.784499 L347.72,216.048499 L341.064,216.048499 L341.064,183.344499 L347.72,183.344499 L347.72,186.352499 C349.469342,183.835153 352.221315,182.576499 355.976,182.576499 C360.029354,182.576499 362.930658,184.133817 364.68,187.248499 C366.685343,184.133817 369.906644,182.576499 374.344,182.576499 C377.885351,182.576499 380.733323,183.600489 382.888,185.648499 C385.042677,187.696509 386.12,190.789811 386.12,194.928499 L386.12,216.048499 L379.464,216.048499 Z M418.056,212.272499 C415.367987,215.301847 411.720023,216.816499 407.112,216.816499 C402.503977,216.816499 398.86668,215.301847 396.2,212.272499 C393.53332,209.24315 392.2,205.061859 392.2,199.728499 C392.2,194.395139 393.53332,190.203181 396.2,187.152499 C398.86668,184.101817 402.503977,182.576499 407.112,182.576499 C411.720023,182.576499 415.367987,184.101817 418.056,187.152499 C420.744013,190.203181 422.088,194.395139 422.088,199.728499 C422.088,205.061859 420.744013,209.24315 418.056,212.272499 Z M407.112,210.544499 C409.672013,210.544499 411.698659,209.584508 413.192,207.664499 C414.685341,205.744489 415.432,203.099182 415.432,199.728499 C415.432,196.357815 414.685341,193.701842 413.192,191.760499 C411.698659,189.819156 409.672013,188.848499 407.112,188.848499 C404.594654,188.848499 402.589341,189.819156 401.096,191.760499 C399.602659,193.701842 398.856,196.357815 398.856,199.728499 C398.856,203.056515 399.602659,205.691156 401.096,207.632499 C402.589341,209.573842 404.594654,210.544499 407.112,210.544499 Z M448.712,216.048499 L448.712,196.528499 C448.712,193.925819 448.114673,191.995172 446.92,190.736499 C445.725327,189.477826 444.146676,188.848499 442.184,188.848499 C437.490643,188.848499 435.144,191.365807 435.144,196.400499 L435.144,216.048499 L428.488,216.048499 L428.488,183.344499 L435.144,183.344499 L435.144,186.480499 C437.19201,183.877819 440.007982,182.576499 443.592,182.576499 C451.442706,182.576499 455.368,187.227119 455.368,196.528499 L455.368,216.048499 L448.712,216.048499 Z M472.52,216.816499 C467.655976,216.816499 465.224,214.107193 465.224,208.688499 L465.224,189.104499 L460.168,189.104499 L460.168,183.344499 L465.224,183.344499 L465.224,173.040499 L471.88,169.840499 L471.88,183.344499 L479.624,183.344499 L479.624,189.104499 L471.88,189.104499 L471.88,206.960499 C471.88,209.435178 472.946656,210.672499 475.08,210.672499 C476.658675,210.672499 478.279992,210.160504 479.944,209.136499 L479.112,215.344499 C477.149324,216.325837 474.952012,216.816499 472.52,216.816499 Z M483.528,223.472499 C484.296004,222.789829 485.095996,221.819172 485.928,220.560499 C486.760004,219.301826 487.261332,218.053838 487.432,216.816499 C486.279994,216.731165 485.277338,216.272503 484.424,215.440499 C483.570662,214.608495 483.144,213.573838 483.144,212.336499 C483.144,210.928492 483.613329,209.765837 484.552,208.848499 C485.490671,207.931161 486.599994,207.472499 487.88,207.472499 C489.330674,207.472499 490.535995,207.973827 491.496,208.976499 C492.456005,209.979171 492.936,211.419156 492.936,213.296499 C492.936,215.643177 492.28534,217.883155 490.984,220.016499 C489.68266,222.149843 488.029343,223.835159 486.024,225.072499 L483.528,223.472499 Z M530.824,216.048499 L530.824,213.232499 C528.519988,215.621844 525.533352,216.816499 521.864,216.816499 C518.407983,216.816499 515.602677,215.867175 513.448,213.968499 C511.293323,212.069823 510.216,209.371183 510.216,205.872499 C510.216,202.331148 511.431988,199.643175 513.864,197.808499 C516.296012,195.973823 519.261316,195.056499 522.76,195.056499 C525.960016,195.056499 528.647989,195.696492 530.824,196.976499 L530.824,195.184499 C530.824,192.752487 530.269339,191.024504 529.16,190.000499 C528.050661,188.976494 526.280012,188.464499 523.848,188.464499 C520.263982,188.464499 517.149347,189.445822 514.504,191.408499 L512.52,185.968499 C515.80535,183.707154 519.879976,182.576499 524.744,182.576499 C526.365341,182.576499 527.815994,182.715164 529.096,182.992499 C530.376006,183.269834 531.677327,183.803162 533,184.592499 C534.322673,185.381836 535.35733,186.651157 536.104,188.400499 C536.85067,190.149841 537.224,192.304486 537.224,194.864499 L537.224,216.048499 L530.824,216.048499 Z M523.08,210.928499 C526.152015,210.928499 528.733323,209.755177 530.824,207.408499 L530.824,202.416499 C528.818657,201.349827 526.493347,200.816499 523.848,200.816499 C521.714656,200.816499 519.976007,201.232495 518.632,202.064499 C517.287993,202.896503 516.616,204.165824 516.616,205.872499 C516.616,207.451173 517.170661,208.688494 518.28,209.584499 C519.389339,210.480503 520.989323,210.928499 523.08,210.928499 Z M559.304,216.048499 L559.304,171.248499 L587.08,171.248499 L587.08,177.520499 L565.96,177.520499 L565.96,189.808499 L579.592,189.808499 L579.592,196.080499 L565.96,196.080499 L565.96,216.048499 L559.304,216.048499 Z M587.72,216.048499 L587.72,183.344499 L594.376,183.344499 L594.376,187.312499 C595.826674,184.15515 598.25865,182.576499 601.672,182.576499 C603.805344,182.576499 605.639992,183.237826 607.176,184.560499 L606.216,190.704499 C604.637325,189.637827 602.909343,189.104499 601.032,189.104499 C599.239991,189.104499 597.682673,189.776492 596.36,191.120499 C595.037327,192.464506 594.376,194.65115 594.376,197.680499 L594.376,216.048499 L587.72,216.048499 Z M624.776,216.816499 C620.210644,216.816499 616.59468,215.291181 613.928,212.240499 C611.26132,209.189817 609.928,204.997859 609.928,199.664499 C609.928,194.331139 611.271987,190.149847 613.96,187.120499 C616.648013,184.09115 620.253311,182.576499 624.776,182.576499 C628.87202,182.576499 632.242653,183.877819 634.888,186.480499 C637.533347,189.083179 638.856,192.880474 638.856,197.872499 C638.856,199.707175 638.770668,201.136494 638.6,202.160499 L616.584,202.160499 C616.626667,204.763179 617.469325,206.875157 619.112,208.496499 C620.754675,210.11784 622.663989,210.928499 624.84,210.928499 C627.656014,210.928499 629.917325,209.819177 631.624,207.600499 L635.976,212.080499 C633.330653,215.237848 629.597357,216.816499 624.776,216.816499 Z M616.584,196.784499 L632.2,196.784499 C632.157333,193.968485 631.410674,191.877839 629.96,190.512499 C628.509326,189.147159 626.781343,188.464499 624.776,188.464499 C622.514655,188.464499 620.626674,189.136492 619.112,190.480499 C617.597326,191.824506 616.754668,193.925818 616.584,196.784499 Z M665.16,216.048499 L665.16,196.528499 C665.16,193.925819 664.562673,191.995172 663.368,190.736499 C662.173327,189.477826 660.594676,188.848499 658.632,188.848499 C653.938643,188.848499 651.592,191.365807 651.592,196.400499 L651.592,216.048499 L644.936,216.048499 L644.936,183.344499 L651.592,183.344499 L651.592,186.480499 C653.64001,183.877819 656.455982,182.576499 660.04,182.576499 C667.890706,182.576499 671.816,187.227119 671.816,196.528499 L671.816,216.048499 L665.16,216.048499 Z M692.168,216.816499 C687.773311,216.816499 684.296013,215.301847 681.736,212.272499 C679.175987,209.24315 677.896,205.061859 677.896,199.728499 C677.896,194.395139 679.175987,190.203181 681.736,187.152499 C684.296013,184.101817 687.773311,182.576499 692.168,182.576499 C698.525365,182.576499 702.642657,185.392471 704.52,191.024499 L698.184,193.200499 C697.117328,190.384485 695.197347,188.976499 692.424,188.976499 C689.949321,188.976499 688.040007,189.925823 686.696,191.824499 C685.351993,193.723175 684.68,196.357815 684.68,199.728499 C684.68,203.056515 685.341327,205.669823 686.664,207.568499 C687.986673,209.467175 689.821322,210.416499 692.168,210.416499 C695.325349,210.416499 697.373329,208.816515 698.312,205.616499 L704.648,207.600499 C702.898658,213.74453 698.7387,216.816499 692.168,216.816499 Z M711.048,216.048499 L711.048,172.912499 L717.704,169.840499 L717.704,186.480499 C719.75201,183.877819 722.567982,182.576499 726.152,182.576499 C734.002706,182.576499 737.928,187.227119 737.928,196.528499 L737.928,216.048499 L731.272,216.048499 L731.272,196.528499 C731.272,193.925819 730.674673,191.995172 729.48,190.736499 C728.285327,189.477826 726.706676,188.848499 724.744,188.848499 C720.050643,188.848499 717.704,191.365807 717.704,196.400499 L717.704,216.048499 L711.048,216.048499 Z M58.76,270.104499 L58.76,297.048499 L52.104,297.048499 L52.104,270.104499 L47.24,270.104499 L47.24,264.344499 L52.104,264.344499 L52.104,259.096499 C52.104,256.323152 52.807993,254.360505 54.216,253.208499 C55.624007,252.056493 57.4159891,251.480499 59.592,251.480499 C61.8960115,251.480499 64.0719898,251.992494 66.12,253.016499 L66.12,258.520499 C64.2853242,257.752495 62.7280064,257.368499 61.448,257.368499 C59.655991,257.368499 58.76,258.349822 58.76,260.312499 L58.76,264.344499 L66.12,264.344499 L66.12,270.104499 L58.76,270.104499 Z M69.817778,297.048499 L69.817778,264.344499 L76.473778,264.344499 L76.473778,268.312499 C77.9244519,265.15515 80.3564276,263.576499 83.769778,263.576499 C85.903122,263.576499 87.7377703,264.237826 89.273778,265.560499 L88.313778,271.704499 C86.7351034,270.637827 85.0071207,270.104499 83.129778,270.104499 C81.337769,270.104499 79.7804513,270.776492 78.457778,272.120499 C77.1351047,273.464506 76.473778,275.65115 76.473778,278.680499 L76.473778,297.048499 L69.817778,297.048499 Z M107.051556,297.816499 C102.4862,297.816499 98.870236,296.291181 96.203556,293.240499 C93.536876,290.189817 92.203556,285.997859 92.203556,280.664499 C92.203556,275.331139 93.5475426,271.149847 96.235556,268.120499 C98.9235694,265.09115 102.528867,263.576499 107.051556,263.576499 C111.147576,263.576499 114.518209,264.877819 117.163556,267.480499 C119.808903,270.083179 121.131556,273.880474 121.131556,278.872499 C121.131556,280.707175 121.046224,282.136494 120.875556,283.160499 L98.859556,283.160499 C98.9022229,285.763179 99.7448811,287.875157 101.387556,289.496499 C103.030231,291.11784 104.939545,291.928499 107.115556,291.928499 C109.93157,291.928499 112.192881,290.819177 113.899556,288.600499 L118.251556,293.080499 C115.606209,296.237848 111.872913,297.816499 107.051556,297.816499 Z M98.859556,277.784499 L114.475556,277.784499 C114.432889,274.968485 113.68623,272.877839 112.235556,271.512499 C110.784882,270.147159 109.056899,269.464499 107.051556,269.464499 C104.790211,269.464499 102.90223,270.136492 101.387556,271.480499 C99.8728818,272.824506 99.0302235,274.925818 98.859556,277.784499 Z M140.637334,297.816499 C136.071978,297.816499 132.456014,296.291181 129.789334,293.240499 C127.122654,290.189817 125.789334,285.997859 125.789334,280.664499 C125.789334,275.331139 127.133321,271.149847 129.821334,268.120499 C132.509347,265.09115 136.114645,263.576499 140.637334,263.576499 C144.733354,263.576499 148.103987,264.877819 150.749334,267.480499 C153.394681,270.083179 154.717334,273.880474 154.717334,278.872499 C154.717334,280.707175 154.632002,282.136494 154.461334,283.160499 L132.445334,283.160499 C132.488001,285.763179 133.330659,287.875157 134.973334,289.496499 C136.616009,291.11784 138.525323,291.928499 140.701334,291.928499 C143.517348,291.928499 145.778659,290.819177 147.485334,288.600499 L151.837334,293.080499 C149.191987,296.237848 145.458691,297.816499 140.637334,297.816499 Z M132.445334,277.784499 L148.061334,277.784499 C148.018667,274.968485 147.272008,272.877839 145.821334,271.512499 C144.37066,270.147159 142.642677,269.464499 140.637334,269.464499 C138.375989,269.464499 136.488008,270.136492 134.973334,271.480499 C133.45866,272.824506 132.616002,274.925818 132.445334,277.784499 Z M161.295112,297.048499 L161.295112,253.976499 L167.951112,250.840499 L167.951112,297.048499 L161.295112,297.048499 Z M195.13689,297.048499 L195.13689,294.232499 C192.832878,296.621844 189.846242,297.816499 186.17689,297.816499 C182.720873,297.816499 179.915567,296.867175 177.76089,294.968499 C175.606213,293.069823 174.52889,290.371183 174.52889,286.872499 C174.52889,283.331148 175.744878,280.643175 178.17689,278.808499 C180.608902,276.973823 183.574206,276.056499 187.07289,276.056499 C190.272906,276.056499 192.960879,276.696492 195.13689,277.976499 L195.13689,276.184499 C195.13689,273.752487 194.582229,272.024504 193.47289,271.000499 C192.363551,269.976494 190.592902,269.464499 188.16089,269.464499 C184.576872,269.464499 181.462237,270.445822 178.81689,272.408499 L176.83289,266.968499 C180.11824,264.707154 184.192866,263.576499 189.05689,263.576499 C190.678231,263.576499 192.128884,263.715164 193.40889,263.992499 C194.688896,264.269834 195.990217,264.803162 197.31289,265.592499 C198.635563,266.381836 199.67022,267.651157 200.41689,269.400499 C201.16356,271.149841 201.53689,273.304486 201.53689,275.864499 L201.53689,297.048499 L195.13689,297.048499 Z M187.39289,291.928499 C190.464905,291.928499 193.046213,290.755177 195.13689,288.408499 L195.13689,283.416499 C193.131547,282.349827 190.806237,281.816499 188.16089,281.816499 C186.027546,281.816499 184.288897,282.232495 182.94489,283.064499 C181.600883,283.896503 180.92889,285.165824 180.92889,286.872499 C180.92889,288.451173 181.483551,289.688494 182.59289,290.584499 C183.702229,291.480503 185.302213,291.928499 187.39289,291.928499 Z M229.298668,297.048499 L229.298668,277.528499 C229.298668,274.925819 228.701341,272.995172 227.506668,271.736499 C226.311995,270.477826 224.733344,269.848499 222.770668,269.848499 C218.077311,269.848499 215.730668,272.365807 215.730668,277.400499 L215.730668,297.048499 L209.074668,297.048499 L209.074668,264.344499 L215.730668,264.344499 L215.730668,267.480499 C217.778678,264.877819 220.59465,263.576499 224.178668,263.576499 C232.029374,263.576499 235.954668,268.227119 235.954668,277.528499 L235.954668,297.048499 L229.298668,297.048499 Z M256.484446,297.816499 C252.089757,297.816499 248.612459,296.301847 246.052446,293.272499 C243.492433,290.24315 242.212446,286.061859 242.212446,280.728499 C242.212446,275.395139 243.492433,271.203181 246.052446,268.152499 C248.612459,265.101817 252.089757,263.576499 256.484446,263.576499 C262.841811,263.576499 266.959103,266.392471 268.836446,272.024499 L262.500446,274.200499 C261.433774,271.384485 259.513793,269.976499 256.740446,269.976499 C254.265767,269.976499 252.356453,270.925823 251.012446,272.824499 C249.668439,274.723175 248.996446,277.357815 248.996446,280.728499 C248.996446,284.056515 249.657773,286.669823 250.980446,288.568499 C252.303119,290.467175 254.137768,291.416499 256.484446,291.416499 C259.641795,291.416499 261.689775,289.816515 262.628446,286.616499 L268.964446,288.600499 C267.215104,294.74453 263.055146,297.816499 256.484446,297.816499 Z M288.790224,297.816499 C284.224868,297.816499 280.608904,296.291181 277.942224,293.240499 C275.275544,290.189817 273.942224,285.997859 273.942224,280.664499 C273.942224,275.331139 275.286211,271.149847 277.974224,268.120499 C280.662237,265.09115 284.267535,263.576499 288.790224,263.576499 C292.886244,263.576499 296.256877,264.877819 298.902224,267.480499 C301.547571,270.083179 302.870224,273.880474 302.870224,278.872499 C302.870224,280.707175 302.784892,282.136494 302.614224,283.160499 L280.598224,283.160499 C280.640891,285.763179 281.483549,287.875157 283.126224,289.496499 C284.768899,291.11784 286.678213,291.928499 288.854224,291.928499 C291.670238,291.928499 293.931549,290.819177 295.638224,288.600499 L299.990224,293.080499 C297.344877,296.237848 293.611581,297.816499 288.790224,297.816499 Z M280.598224,277.784499 L296.214224,277.784499 C296.171557,274.968485 295.424898,272.877839 293.974224,271.512499 C292.52355,270.147159 290.795567,269.464499 288.790224,269.464499 C286.528879,269.464499 284.640898,270.136492 283.126224,271.480499 C281.61155,272.824506 280.768892,274.925818 280.598224,277.784499 Z M340.53778,297.816499 C335.460421,297.816499 331.385795,296.419179 328.31378,293.624499 C325.241765,290.829818 323.70578,286.317863 323.70578,280.088499 L323.70578,252.248499 L330.36178,252.248499 L330.36178,280.088499 C330.36178,284.269853 331.257771,287.203157 333.04978,288.888499 C334.841789,290.573841 337.337764,291.416499 340.53778,291.416499 C343.737796,291.416499 346.244438,290.573841 348.05778,288.888499 C349.871122,287.203157 350.77778,284.269853 350.77778,280.088499 L350.77778,252.248499 L357.43378,252.248499 L357.43378,280.088499 C357.43378,286.317863 355.919128,290.829818 352.88978,293.624499 C349.860432,296.419179 345.743139,297.816499 340.53778,297.816499 Z M391.531558,297.048499 L381.611558,280.344499 L371.691558,297.048499 L364.011558,297.048499 L377.771558,273.880499 L364.971558,252.248499 L372.651558,252.248499 L381.611558,267.416499 L390.571558,252.248499 L398.251558,252.248499 L385.451558,273.880499 L399.211558,297.048499 L391.531558,297.048499 Z M426.007114,297.048499 L426.007114,252.248499 L424.007114,252.248499 L424.007114,297.048499 L426.007114,297.048499 Z M468.53067,297.816499 C463.453311,297.816499 459.378685,296.419179 456.30667,293.624499 C453.234655,290.829818 451.69867,286.317863 451.69867,280.088499 L451.69867,252.248499 L458.35467,252.248499 L458.35467,280.088499 C458.35467,284.269853 459.250661,287.203157 461.04267,288.888499 C462.834679,290.573841 465.330654,291.416499 468.53067,291.416499 C471.730686,291.416499 474.237328,290.573841 476.05067,288.888499 C477.864012,287.203157 478.77067,284.269853 478.77067,280.088499 L478.77067,252.248499 L485.42667,252.248499 L485.42667,280.088499 C485.42667,286.317863 483.912018,290.829818 480.88267,293.624499 C477.853322,296.419179 473.736029,297.816499 468.53067,297.816499 Z M495.524448,297.048499 L495.524448,252.248499 L502.180448,252.248499 L502.180448,297.048499 L495.524448,297.048499 Z M537.544004,297.816499 C533.405317,297.816499 530.10935,296.291181 527.656004,293.240499 C525.202658,290.189817 523.976004,285.997859 523.976004,280.664499 C523.976004,275.373806 525.223992,271.203181 527.720004,268.152499 C530.216016,265.101817 533.49065,263.576499 537.544004,263.576499 C540.74402,263.576499 543.325328,264.600489 545.288004,266.648499 L545.288004,253.912499 L551.944004,250.840499 L551.944004,297.048499 L545.288004,297.048499 L545.288004,294.744499 C543.453328,296.792509 540.872021,297.816499 537.544004,297.816499 Z M538.504004,291.544499 C541.490686,291.544499 543.751996,290.307178 545.288004,287.832499 L545.288004,273.432499 C544.690668,272.451161 543.805343,271.608502 542.632004,270.904499 C541.458665,270.200495 540.082679,269.848499 538.504004,269.848499 C535.986658,269.848499 534.045344,270.787156 532.680004,272.664499 C531.314664,274.541842 530.632004,277.208482 530.632004,280.664499 C530.632004,283.907182 531.335997,286.531155 532.744004,288.536499 C534.152011,290.541842 536.071992,291.544499 538.504004,291.544499 Z M573.369782,297.816499 C568.804426,297.816499 565.188462,296.291181 562.521782,293.240499 C559.855102,290.189817 558.521782,285.997859 558.521782,280.664499 C558.521782,275.331139 559.865769,271.149847 562.553782,268.120499 C565.241795,265.09115 568.847093,263.576499 573.369782,263.576499 C577.465802,263.576499 580.836435,264.877819 583.481782,267.480499 C586.127129,270.083179 587.449782,273.880474 587.449782,278.872499 C587.449782,280.707175 587.36445,282.136494 587.193782,283.160499 L565.177782,283.160499 C565.220449,285.763179 566.063107,287.875157 567.705782,289.496499 C569.348457,291.11784 571.257771,291.928499 573.433782,291.928499 C576.249796,291.928499 578.511107,290.819177 580.217782,288.600499 L584.569782,293.080499 C581.924435,296.237848 578.191139,297.816499 573.369782,297.816499 Z M565.177782,277.784499 L580.793782,277.784499 C580.751115,274.968485 580.004456,272.877839 578.553782,271.512499 C577.103108,270.147159 575.375125,269.464499 573.369782,269.464499 C571.108437,269.464499 569.220456,270.136492 567.705782,271.480499 C566.191108,272.824506 565.34845,274.925818 565.177782,277.784499 Z M603.81956,297.816499 C601.259547,297.816499 598.848905,297.336504 596.58756,296.376499 C594.326215,295.416494 592.619566,294.12584 591.46756,292.504499 L596.20356,288.472499 C598.550238,290.691177 601.046213,291.800499 603.69156,291.800499 C607.531579,291.800499 609.45156,290.627177 609.45156,288.280499 C609.45156,287.469828 609.088897,286.723169 608.36356,286.040499 C607.638223,285.357829 606.912897,284.8565 606.18756,284.536499 C605.462223,284.216497 604.288901,283.736502 602.66756,283.096499 C599.083542,281.901826 596.448902,280.49384 594.76356,278.872499 C593.078218,277.251157 592.23556,275.160512 592.23556,272.600499 C592.23556,269.784485 593.312883,267.576507 595.46756,265.976499 C597.622237,264.376491 600.34221,263.576499 603.62756,263.576499 C608.534251,263.576499 612.35288,265.219149 615.08356,268.504499 L610.28356,272.344499 C608.534218,270.509823 606.315573,269.592499 603.62756,269.592499 C602.219553,269.592499 601.099564,269.859163 600.26756,270.392499 C599.435556,270.925835 599.01956,271.661827 599.01956,272.600499 C599.01956,273.581837 599.520888,274.381829 600.52356,275.000499 C601.526232,275.619169 603.136882,276.355161 605.35556,277.208499 C609.067579,278.445838 611.787551,279.896491 613.51556,281.560499 C615.243569,283.224507 616.10756,285.464485 616.10756,288.280499 C616.10756,291.352514 615.008904,293.709824 612.81156,295.352499 C610.614216,296.995174 607.616912,297.816499 603.81956,297.816499 Z M628.893338,258.072499 C628.125334,258.840503 627.186677,259.224499 626.077338,259.224499 C624.967999,259.224499 624.018675,258.829836 623.229338,258.040499 C622.440001,257.251162 622.045338,256.301838 622.045338,255.192499 C622.045338,254.08316 622.440001,253.133836 623.229338,252.344499 C624.018675,251.555162 624.967999,251.160499 626.077338,251.160499 C627.186677,251.160499 628.136001,251.555162 628.925338,252.344499 C629.714675,253.133836 630.109338,254.08316 630.109338,255.192499 C630.109338,256.301838 629.704009,257.261828 628.893338,258.072499 Z M622.749338,297.048499 L622.749338,264.344499 L629.405338,264.344499 L629.405338,297.048499 L622.749338,297.048499 Z M648.591116,309.848499 L645.263116,304.728499 C649.785805,304.472498 652.93244,303.715172 654.703116,302.456499 C656.473792,301.197826 657.359116,299.48051 657.359116,297.304499 L657.359116,294.424499 C655.52444,296.685843 652.900466,297.816499 649.487116,297.816499 C645.561763,297.816499 642.340462,296.333847 639.823116,293.368499 C637.30577,290.403151 636.047116,286.168526 636.047116,280.664499 C636.047116,275.373806 637.295104,271.203181 639.791116,268.152499 C642.287128,265.101817 645.561762,263.576499 649.615116,263.576499 C652.815132,263.576499 655.39644,264.600489 657.359116,266.648499 L657.359116,264.344499 L664.015116,264.344499 L664.015116,294.936499 C664.015116,299.971191 662.756462,303.619154 660.239116,305.880499 C657.72177,308.141843 653.839142,309.464497 648.591116,309.848499 Z M650.703116,291.544499 C653.604464,291.544499 655.823108,290.264512 657.359116,287.704499 L657.359116,273.560499 C656.676446,272.45116 655.727122,271.555169 654.511116,270.872499 C653.29511,270.189829 652.025789,269.848499 650.703116,269.848499 C648.100436,269.848499 646.116456,270.77649 644.751116,272.632499 C643.385776,274.488508 642.703116,277.165815 642.703116,280.664499 C642.703116,283.992515 643.417776,286.637822 644.847116,288.600499 C646.276456,290.563175 648.228437,291.544499 650.703116,291.544499 Z M692.416894,297.048499 L692.416894,277.528499 C692.416894,274.925819 691.819567,272.995172 690.624894,271.736499 C689.430221,270.477826 687.85157,269.848499 685.888894,269.848499 C681.195537,269.848499 678.848894,272.365807 678.848894,277.400499 L678.848894,297.048499 L672.192894,297.048499 L672.192894,264.344499 L678.848894,264.344499 L678.848894,267.480499 C680.896904,264.877819 683.712876,263.576499 687.296894,263.576499 C695.1476,263.576499 699.072894,268.227119 699.072894,277.528499 L699.072894,297.048499 L692.416894,297.048499 Z M720.178672,297.816499 C715.613316,297.816499 711.997352,296.291181 709.330672,293.240499 C706.663992,290.189817 705.330672,285.997859 705.330672,280.664499 C705.330672,275.331139 706.674659,271.149847 709.362672,268.120499 C712.050685,265.09115 715.655983,263.576499 720.178672,263.576499 C724.274692,263.576499 727.645325,264.877819 730.290672,267.480499 C732.936019,270.083179 734.258672,273.880474 734.258672,278.872499 C734.258672,280.707175 734.17334,282.136494 734.002672,283.160499 L711.986672,283.160499 C712.029339,285.763179 712.871997,287.875157 714.514672,289.496499 C716.157347,291.11784 718.066661,291.928499 720.242672,291.928499 C723.058686,291.928499 725.319997,290.819177 727.026672,288.600499 L731.378672,293.080499 C728.733325,296.237848 725.000029,297.816499 720.178672,297.816499 Z M711.986672,277.784499 L727.602672,277.784499 C727.560005,274.968485 726.813346,272.877839 725.362672,271.512499 C723.911998,270.147159 722.184015,269.464499 720.178672,269.464499 C717.917327,269.464499 716.029346,270.136492 714.514672,271.480499 C712.999998,272.824506 712.15734,274.925818 711.986672,277.784499 Z M740.51645,297.048499 L740.51645,264.344499 L747.17245,264.344499 L747.17245,268.312499 C748.623124,265.15515 751.0551,263.576499 754.46845,263.576499 C756.601794,263.576499 758.436442,264.237826 759.97245,265.560499 L759.01245,271.704499 C757.433775,270.637827 755.705793,270.104499 753.82845,270.104499 C752.036441,270.104499 750.479123,270.776492 749.15645,272.120499 C747.833777,273.464506 747.17245,275.65115 747.17245,278.680499 L747.17245,297.048499 L740.51645,297.048499 Z M766.806228,297.816499 C765.440888,297.816499 764.299566,297.357837 763.382228,296.440499 C762.46489,295.523161 762.006228,294.424505 762.006228,293.144499 C762.006228,291.864492 762.46489,290.75517 763.382228,289.816499 C764.299566,288.877827 765.440888,288.408499 766.806228,288.408499 C768.128901,288.408499 769.270223,288.877827 770.230228,289.816499 C771.190233,290.75517 771.670228,291.864492 771.670228,293.144499 C771.670228,294.424505 771.190233,295.523161 770.230228,296.440499 C769.270223,297.357837 768.128901,297.816499 766.806228,297.816499 Z" id="Pauline-Osmont,-a-Fr" fill="#848484"></path>
                    <path d="M56.888,100.832346 C56.888,100.711012 56.9486661,100.650346 57.07,100.650346 L57.7,100.650346 C57.8213339,100.650346 57.882,100.711012 57.882,100.832346 L57.882,110.268346 C57.882,110.38968 57.8213339,110.450346 57.7,110.450346 L57.07,110.450346 C56.9486661,110.450346 56.888,110.38968 56.888,110.268346 L56.888,106.026346 C56.888,105.97968 56.8646669,105.956346 56.818,105.956346 L52.38,105.956346 C52.3333331,105.956346 52.31,105.97968 52.31,106.026346 L52.31,110.268346 C52.31,110.38968 52.2493339,110.450346 52.128,110.450346 L51.498,110.450346 C51.3766661,110.450346 51.316,110.38968 51.316,110.268346 L51.316,100.832346 C51.316,100.711012 51.3766661,100.650346 51.498,100.650346 L52.128,100.650346 C52.2493339,100.650346 52.31,100.711012 52.31,100.832346 L52.31,105.018346 C52.31,105.065013 52.3333331,105.088346 52.38,105.088346 L56.818,105.088346 C56.8646669,105.088346 56.888,105.065013 56.888,105.018346 L56.888,100.832346 Z M60.878,102.092346 C60.6539989,102.092346 60.4720007,102.02468 60.332,101.889346 C60.1919993,101.754012 60.122,101.579014 60.122,101.364346 C60.122,101.149679 60.1919993,100.977014 60.332,100.846346 C60.4720007,100.715679 60.6539989,100.650346 60.878,100.650346 C61.1020011,100.650346 61.2839993,100.715679 61.424,100.846346 C61.5640007,100.977014 61.634,101.149679 61.634,101.364346 C61.634,101.579014 61.5640007,101.754012 61.424,101.889346 C61.2839993,102.02468 61.1020011,102.092346 60.878,102.092346 Z M60.57,110.450346 C60.4486661,110.450346 60.388,110.38968 60.388,110.268346 L60.388,103.548346 C60.388,103.427012 60.4486661,103.366346 60.57,103.366346 L61.2,103.366346 C61.3213339,103.366346 61.382,103.427012 61.382,103.548346 L61.382,110.268346 C61.382,110.38968 61.3213339,110.450346 61.2,110.450346 L60.57,110.450346 Z M69.684,104.010346 C69.684,104.13168 69.6233339,104.192346 69.502,104.192346 L67.976,104.192346 C67.9293331,104.192346 67.906,104.21568 67.906,104.262346 L67.906,108.350346 C67.906,108.798349 68.0063323,109.113346 68.207,109.295346 C68.4076677,109.477347 68.7226645,109.568346 69.152,109.568346 L69.46,109.568346 C69.5813339,109.568346 69.642,109.629012 69.642,109.750346 L69.642,110.240346 C69.642,110.36168 69.5813339,110.427013 69.46,110.436346 L68.984,110.436346 C68.3119966,110.436346 67.8033351,110.310348 67.458,110.058346 C67.1126649,109.806345 66.94,109.339683 66.94,108.658346 L66.94,104.262346 C66.94,104.21568 66.9166669,104.192346 66.87,104.192346 L66.072,104.192346 C65.9506661,104.192346 65.89,104.13168 65.89,104.010346 L65.89,103.548346 C65.89,103.427012 65.9506661,103.366346 66.072,103.366346 L66.87,103.366346 C66.9166669,103.366346 66.94,103.343013 66.94,103.296346 L66.94,101.728346 C66.94,101.607012 67.0006661,101.546346 67.122,101.546346 L67.724,101.546346 C67.8453339,101.546346 67.906,101.607012 67.906,101.728346 L67.906,103.296346 C67.906,103.343013 67.9293331,103.366346 67.976,103.366346 L69.502,103.366346 C69.6233339,103.366346 69.684,103.427012 69.684,103.548346 L69.684,104.010346 Z M74.542,103.268346 C75.279337,103.268346 75.8696645,103.487678 76.313,103.926346 C76.7563356,104.365015 76.978,104.953009 76.978,105.690346 L76.978,110.268346 C76.978,110.38968 76.9173339,110.450346 76.796,110.450346 L76.166,110.450346 C76.0446661,110.450346 75.984,110.38968 75.984,110.268346 L75.984,105.886346 C75.984,105.363677 75.8300015,104.941348 75.522,104.619346 C75.2139985,104.297345 74.8126691,104.136346 74.318,104.136346 C73.8419976,104.136346 73.4476682,104.271678 73.135,104.542346 C72.8223318,104.813014 72.6426669,105.167678 72.596,105.606346 L72.596,110.268346 C72.596,110.38968 72.5353339,110.450346 72.414,110.450346 L71.784,110.450346 C71.6626661,110.450346 71.602,110.38968 71.602,110.268346 L71.602,100.832346 C71.602,100.711012 71.6626661,100.650346 71.784,100.650346 L72.414,100.650346 C72.5353339,100.650346 72.596,100.711012 72.596,100.832346 L72.596,104.066346 C72.596,104.094347 72.6053332,104.115346 72.624,104.129346 C72.6426668,104.143346 72.6566666,104.136347 72.666,104.108346 C73.0766687,103.548344 73.7019958,103.268346 74.542,103.268346 Z M81.906,109.708346 C82.3260021,109.699013 82.6876652,109.603347 82.991,109.421346 C83.2943348,109.239346 83.5299992,108.985015 83.698,108.658346 C83.7166668,108.61168 83.7493331,108.579013 83.796,108.560346 C83.8426669,108.54168 83.8893331,108.546346 83.936,108.574346 L84.342,108.798346 C84.4540006,108.86368 84.4820003,108.943013 84.426,109.036346 C84.2019989,109.503015 83.8660022,109.874012 83.418,110.149346 C82.9699978,110.424681 82.4380031,110.562346 81.822,110.562346 C81.1686634,110.562346 80.6180022,110.408348 80.17,110.100346 C79.7219978,109.792345 79.400001,109.363016 79.204,108.812346 C79.0266658,108.345677 78.938,107.701684 78.938,106.880346 C78.938,106.479011 78.9449999,106.159348 78.959,105.921346 C78.9730001,105.683345 79.0079997,105.461681 79.064,105.256346 C79.2226675,104.649677 79.5423309,104.164348 80.023,103.800346 C80.5036691,103.436345 81.0846633,103.254346 81.766,103.254346 C82.5780041,103.254346 83.2149977,103.464344 83.677,103.884346 C84.1390023,104.304349 84.4353327,104.897009 84.566,105.662346 C84.6220003,105.961015 84.65,106.427677 84.65,107.062346 C84.65,107.18368 84.5893339,107.244346 84.468,107.244346 L79.988,107.244346 C79.9413331,107.244346 79.918,107.26768 79.918,107.314346 C79.918,107.781015 79.9459997,108.121679 80.002,108.336346 C80.1046672,108.756349 80.321665,109.090012 80.653,109.337346 C80.984335,109.584681 81.4019975,109.708346 81.906,109.708346 Z M81.766,104.122346 C81.299331,104.122346 80.9166682,104.241345 80.618,104.479346 C80.3193318,104.717348 80.1233338,105.037011 80.03,105.438346 C79.9739997,105.625014 79.9366668,105.942344 79.918,106.390346 C79.918,106.437013 79.9413331,106.460346 79.988,106.460346 L83.586,106.460346 C83.6326669,106.460346 83.656,106.437013 83.656,106.390346 C83.6373332,105.979678 83.6093335,105.681014 83.572,105.494346 C83.4693328,105.074344 83.2616682,104.740681 82.949,104.493346 C82.6363318,104.246012 82.2420024,104.122346 81.766,104.122346 Z M89.48,103.296346 C89.7880015,103.296346 90.0446656,103.352346 90.25,103.464346 C90.3433338,103.50168 90.3760001,103.576346 90.348,103.688346 L90.208,104.304346 C90.1799999,104.416347 90.1053339,104.45368 89.984,104.416346 C89.8066658,104.360346 89.5780014,104.337013 89.298,104.346346 C88.8126642,104.365013 88.4113349,104.544678 88.094,104.885346 C87.7766651,105.226015 87.618,105.657677 87.618,106.180346 L87.618,110.268346 C87.618,110.38968 87.5573339,110.450346 87.436,110.450346 L86.806,110.450346 C86.6846661,110.450346 86.624,110.38968 86.624,110.268346 L86.624,103.548346 C86.624,103.427012 86.6846661,103.366346 86.806,103.366346 L87.436,103.366346 C87.5573339,103.366346 87.618,103.427012 87.618,103.548346 L87.618,104.332346 C87.618,104.36968 87.6249999,104.39068 87.639,104.395346 C87.6530001,104.400013 87.6693332,104.388347 87.688,104.360346 C87.884001,104.024345 88.1336651,103.763014 88.437,103.576346 C88.7403348,103.389679 89.087998,103.296346 89.48,103.296346 Z M94.478,109.708346 C94.8980021,109.699013 95.2596651,109.603347 95.563,109.421346 C95.8663348,109.239346 96.1019992,108.985015 96.27,108.658346 C96.2886668,108.61168 96.3213331,108.579013 96.368,108.560346 C96.4146669,108.54168 96.4613331,108.546346 96.508,108.574346 L96.914,108.798346 C97.0260006,108.86368 97.0540003,108.943013 96.998,109.036346 C96.7739989,109.503015 96.4380022,109.874012 95.99,110.149346 C95.5419978,110.424681 95.0100031,110.562346 94.394,110.562346 C93.7406634,110.562346 93.1900022,110.408348 92.742,110.100346 C92.2939978,109.792345 91.972001,109.363016 91.776,108.812346 C91.5986658,108.345677 91.51,107.701684 91.51,106.880346 C91.51,106.479011 91.5169999,106.159348 91.531,105.921346 C91.5450001,105.683345 91.5799997,105.461681 91.636,105.256346 C91.7946675,104.649677 92.1143309,104.164348 92.595,103.800346 C93.0756691,103.436345 93.6566633,103.254346 94.338,103.254346 C95.1500041,103.254346 95.7869977,103.464344 96.249,103.884346 C96.7110023,104.304349 97.0073327,104.897009 97.138,105.662346 C97.1940003,105.961015 97.222,106.427677 97.222,107.062346 C97.222,107.18368 97.1613339,107.244346 97.04,107.244346 L92.56,107.244346 C92.5133331,107.244346 92.49,107.26768 92.49,107.314346 C92.49,107.781015 92.5179997,108.121679 92.574,108.336346 C92.6766672,108.756349 92.893665,109.090012 93.225,109.337346 C93.556335,109.584681 93.9739975,109.708346 94.478,109.708346 Z M94.338,104.122346 C93.871331,104.122346 93.4886682,104.241345 93.19,104.479346 C92.8913318,104.717348 92.6953338,105.037011 92.602,105.438346 C92.5459997,105.625014 92.5086668,105.942344 92.49,106.390346 C92.49,106.437013 92.5133331,106.460346 92.56,106.460346 L96.158,106.460346 C96.2046669,106.460346 96.228,106.437013 96.228,106.390346 C96.2093332,105.979678 96.1813335,105.681014 96.144,105.494346 C96.0413328,105.074344 95.8336682,104.740681 95.521,104.493346 C95.2083318,104.246012 94.8140024,104.122346 94.338,104.122346 Z M99.196,111.556346 C99.1306663,111.556346 99.0840001,111.540013 99.056,111.507346 C99.0279999,111.47468 99.0186666,111.42568 99.028,111.360346 L99.63,108.448346 C99.6580001,108.336346 99.7233328,108.280346 99.826,108.280346 L100.358,108.280346 C100.488667,108.280346 100.54,108.345679 100.512,108.476346 L99.756,111.402346 C99.7279999,111.505014 99.6580006,111.556346 99.546,111.556346 L99.196,111.556346 Z M106.07,110.450346 C105.948666,110.450346 105.888,110.38968 105.888,110.268346 L105.888,100.832346 C105.888,100.711012 105.948666,100.650346 106.07,100.650346 L106.7,100.650346 C106.821334,100.650346 106.882,100.711012 106.882,100.832346 L106.882,110.268346 C106.882,110.38968 106.821334,110.450346 106.7,110.450346 L106.07,110.450346 Z M114.568,103.254346 C115.408004,103.254346 116.058998,103.469011 116.521,103.898346 C116.983002,104.327682 117.214,104.89701 117.214,105.606346 L117.214,110.268346 C117.214,110.38968 117.153334,110.450346 117.032,110.450346 L116.402,110.450346 C116.280666,110.450346 116.22,110.38968 116.22,110.268346 L116.22,109.764346 C116.22,109.736346 116.210667,109.71768 116.192,109.708346 C116.173333,109.699013 116.154667,109.708346 116.136,109.736346 C115.883999,110.007014 115.569002,110.212346 115.191,110.352346 C114.812998,110.492347 114.400002,110.562346 113.952,110.562346 C113.298663,110.562346 112.750336,110.394348 112.307,110.058346 C111.863664,109.722345 111.642,109.209017 111.642,108.518346 C111.642,107.818343 111.896331,107.265348 112.405,106.859346 C112.913669,106.453344 113.620662,106.250346 114.526,106.250346 L116.15,106.250346 C116.196667,106.250346 116.22,106.227013 116.22,106.180346 L116.22,105.662346 C116.22,105.186344 116.087001,104.810681 115.821,104.535346 C115.554999,104.260012 115.142003,104.122346 114.582,104.122346 C114.143331,104.122346 113.784001,104.206346 113.504,104.374346 C113.223999,104.542347 113.046667,104.775678 112.972,105.074346 C112.944,105.186347 112.874001,105.233013 112.762,105.214346 L112.076,105.130346 C111.954666,105.11168 111.898667,105.060347 111.908,104.976346 C112.001334,104.463011 112.288331,104.047681 112.769,103.730346 C113.249669,103.413012 113.84933,103.254346 114.568,103.254346 Z M114.176,109.708346 C114.726669,109.708346 115.204998,109.570681 115.611,109.295346 C116.017002,109.020012 116.22,108.649015 116.22,108.182346 L116.22,107.104346 C116.22,107.05768 116.196667,107.034346 116.15,107.034346 L114.68,107.034346 C114.063997,107.034346 113.569335,107.160345 113.196,107.412346 C112.822665,107.664348 112.636,108.014344 112.636,108.462346 C112.636,108.873015 112.780665,109.183345 113.07,109.393346 C113.359335,109.603347 113.727998,109.708346 114.176,109.708346 Z M126.44,103.268346 C127.140003,103.268346 127.692998,103.478344 128.099,103.898346 C128.505002,104.318349 128.708,104.892343 128.708,105.620346 L128.708,110.268346 C128.708,110.38968 128.647334,110.450346 128.526,110.450346 L127.91,110.450346 C127.788666,110.450346 127.728,110.38968 127.728,110.268346 L127.728,105.816346 C127.728,105.303011 127.581001,104.894681 127.287,104.591346 C126.992999,104.288012 126.608002,104.136346 126.132,104.136346 C125.637331,104.136346 125.238335,104.285678 124.935,104.584346 C124.631665,104.883015 124.48,105.284344 124.48,105.788346 L124.48,110.268346 C124.48,110.38968 124.419334,110.450346 124.298,110.450346 L123.668,110.450346 C123.546666,110.450346 123.486,110.38968 123.486,110.268346 L123.486,105.816346 C123.486,105.303011 123.341335,104.894681 123.052,104.591346 C122.762665,104.288012 122.375336,104.136346 121.89,104.136346 C121.395331,104.136346 121.001001,104.285678 120.707,104.584346 C120.412999,104.883015 120.266,105.284344 120.266,105.788346 L120.266,110.268346 C120.266,110.38968 120.205334,110.450346 120.084,110.450346 L119.454,110.450346 C119.332666,110.450346 119.272,110.38968 119.272,110.268346 L119.272,103.548346 C119.272,103.427012 119.332666,103.366346 119.454,103.366346 L120.084,103.366346 C120.205334,103.366346 120.266,103.427012 120.266,103.548346 L120.266,104.038346 C120.266,104.066347 120.275333,104.085013 120.294,104.094346 C120.312667,104.10368 120.331333,104.094347 120.35,104.066346 C120.555334,103.795678 120.816665,103.595014 121.134,103.464346 C121.451335,103.333679 121.805998,103.268346 122.198,103.268346 C122.674002,103.268346 123.084665,103.366345 123.43,103.562346 C123.775335,103.758347 124.036666,104.033678 124.214,104.388346 C124.242,104.444347 124.27,104.449013 124.298,104.402346 C124.503334,104.019678 124.792665,103.735014 125.166,103.548346 C125.539335,103.361679 125.963998,103.268346 126.44,103.268346 Z" id="Hi-there,-I-am" fill="#848484"></path>
                </g>
            </g>
        </g>
    </g>
</svg>