<?xml version="1.0" encoding="UTF-8"?>
<svg width="200px" height="440px" viewBox="0 0 200 440" version="1.1" xmlns="http://www.w3.org/2000/svg" xmlns:xlink="http://www.w3.org/1999/xlink">
    <defs>
        <rect id="path-1" x="0" y="0" width="200" height="440"></rect>
    </defs>
    <g stroke="none" stroke-width="1" fill="none" fill-rule="evenodd">
        <g transform="translate(-387.000000, -289.000000)">
            <g transform="translate(387.000000, 289.000000)">
                <mask id="mask-2" fill="white">
                    <use xlink:href="#path-1"></use>
                </mask>
                <rect stroke="#373737" x="0.5" y="0.5" width="199" height="439"></rect>
                <path d="M-68.81,227 L-68.81,150 L-37.9,150 C-29.1732897,150 -22.7566872,152.273311 -18.65,156.82 C-14.5433128,161.366689 -12.49,166.939967 -12.49,173.54 C-12.49,179.700031 -14.6166454,185.163309 -18.87,189.93 C-23.1233546,194.69669 -29.4666245,197.08 -37.9,197.08 L-57.37,197.08 L-57.37,227 L-68.81,227 Z M-37.24,186.08 C-32.839978,186.08 -29.5950105,184.851679 -27.505,182.395 C-25.4149896,179.938321 -24.37,176.986684 -24.37,173.54 C-24.37,170.239983 -25.3783233,167.325013 -27.395,164.795 C-29.4116768,162.264987 -32.6933106,161 -37.24,161 L-57.37,161 L-57.37,186.08 L-37.24,186.08 Z M28.43,227 L28.43,222.16 C24.4699802,226.266687 19.3366982,228.32 13.03,228.32 C7.0899703,228.32 2.26835185,226.68835 -1.435,223.425 C-5.13835185,220.16165 -6.99,215.523363 -6.99,209.51 C-6.99,203.423303 -4.9000209,198.803349 -0.72,195.65 C3.4600209,192.496651 8.5566366,190.92 14.57,190.92 C20.0700275,190.92 24.6899813,192.019989 28.43,194.22 L28.43,191.14 C28.43,186.959979 27.4766762,183.990009 25.57,182.23 C23.6633238,180.469991 20.6200209,179.59 16.44,179.59 C10.2799692,179.59 4.9266894,181.27665 0.38,184.65 L-3.03,175.3 C2.6166949,171.413314 9.6199582,169.47 17.98,169.47 C20.7666806,169.47 23.259989,169.708331 25.46,170.185 C27.660011,170.661669 29.8966553,171.578327 32.17,172.935 C34.4433447,174.291673 36.2216602,176.473318 37.505,179.48 C38.7883397,182.486682 39.43,186.189978 39.43,190.59 L39.43,227 L28.43,227 Z M15.12,218.2 C20.4000264,218.2 24.8366487,216.183354 28.43,212.15 L28.43,203.57 C24.9833161,201.736658 20.9866894,200.82 16.44,200.82 C12.773315,200.82 9.78501155,201.534993 7.475,202.965 C5.16498845,204.395007 4.01,206.576652 4.01,209.51 C4.01,212.223347 4.9633238,214.349992 6.87,215.89 C8.7766762,217.430008 11.5266487,218.2 15.12,218.2 Z M53.73,227 L53.73,170.79 L65.17,170.79 L65.17,177.61 C67.6633458,172.183306 71.843304,169.47 77.71,169.47 C81.376685,169.47 84.5299868,170.606655 87.17,172.88 L85.52,183.44 C82.8066531,181.606657 79.8366828,180.69 76.61,180.69 C73.5299846,180.69 70.8533447,181.844988 68.58,184.155 C66.3066553,186.465012 65.17,190.223307 65.17,195.43 L65.17,227 L53.73,227 Z M106.42,160.01 C105.099993,161.330007 103.486676,161.99 101.58,161.99 C99.6733238,161.99 98.0416734,161.311673 96.685,159.955 C95.3283265,158.598327 94.65,156.966676 94.65,155.06 C94.65,153.153324 95.3283265,151.521673 96.685,150.165 C98.0416734,148.808327 99.6733238,148.13 101.58,148.13 C103.486676,148.13 105.118327,148.808327 106.475,150.165 C107.831673,151.521673 108.51,153.153324 108.51,155.06 C108.51,156.966676 107.81334,158.61666 106.42,160.01 Z M95.86,227 L95.86,170.79 L107.3,170.79 L107.3,227 L95.86,227 Z M140.19,228.32 C135.789978,228.32 131.646686,227.495008 127.76,225.845 C123.873314,224.194992 120.94001,221.976681 118.96,219.19 L127.1,212.26 C131.133353,216.073352 135.423311,217.98 139.97,217.98 C146.570033,217.98 149.87,215.963354 149.87,211.93 C149.87,210.53666 149.246673,209.253339 148,208.08 C146.753327,206.906661 145.506673,206.045003 144.26,205.495 C143.013327,204.944997 140.996681,204.120005 138.21,203.02 C132.049969,200.966656 127.521681,198.546681 124.625,195.76 C121.728319,192.973319 120.28,189.380022 120.28,184.98 C120.28,180.139976 122.131648,176.345014 125.835,173.595 C129.538352,170.844986 134.213305,169.47 139.86,169.47 C148.293375,169.47 154.856643,172.293305 159.55,177.94 L151.3,184.54 C148.293318,181.386651 144.480023,179.81 139.86,179.81 C137.439988,179.81 135.515007,180.268329 134.085,181.185 C132.654993,182.101671 131.94,183.366659 131.94,184.98 C131.94,186.666675 132.801658,188.041661 134.525,189.105 C136.248342,190.168339 139.016648,191.433326 142.83,192.9 C149.210032,195.026677 153.884985,197.519986 156.855,200.38 C159.825015,203.240014 161.31,207.089976 161.31,211.93 C161.31,217.210026 159.421686,221.261653 155.645,224.085 C151.868314,226.908347 146.716699,228.32 140.19,228.32 Z" id="Paris" fill="#E9E9E9" mask="url(#mask-2)"></path>
                <path d="M114.915,375 L103.475,375 L103.475,332.87 C103.475,327.296639 103.658332,323.153347 104.025,320.44 C102.338325,325.426692 100.761674,329.679982 99.295,333.2 L80.705,376.32 L62.005,332.87 C60.0249901,328.396644 58.4116729,324.253352 57.165,320.44 C57.5316685,323.153347 57.715,327.296639 57.715,332.87 L57.715,375 L46.275,375 L46.275,298 L57.825,298 L78.505,346.07 C79.238337,347.830009 79.9349967,349.846655 80.595,352.12 C81.1083359,350.506659 81.8416619,348.490012 82.795,346.07 L103.365,298 L114.915,298 L114.915,375 Z M173.655,368.51 C169.034977,373.716693 162.76504,376.32 154.845,376.32 C146.92496,376.32 140.673356,373.716693 136.09,368.51 C131.506644,363.303307 129.215,356.116713 129.215,346.95 C129.215,337.783288 131.506644,330.57836 136.09,325.335 C140.673356,320.09164 146.92496,317.47 154.845,317.47 C162.76504,317.47 169.034977,320.09164 173.655,325.335 C178.275023,330.57836 180.585,337.783288 180.585,346.95 C180.585,356.116713 178.275023,363.303307 173.655,368.51 Z M154.845,365.54 C159.245022,365.54 162.728321,363.890017 165.295,360.59 C167.86168,357.289984 169.145,352.743362 169.145,346.95 C169.145,341.156638 167.86168,336.591683 165.295,333.255 C162.728321,329.918317 159.245022,328.25 154.845,328.25 C150.518312,328.25 147.07168,329.918317 144.505,333.255 C141.938321,336.591683 140.655,341.156638 140.655,346.95 C140.655,352.670029 141.938321,357.198317 144.505,360.535 C147.07168,363.871683 150.518312,365.54 154.845,365.54 Z M227.995,375 L227.995,341.45 C227.995,336.976644 226.968344,333.658344 224.915,331.495 C222.861656,329.331656 220.14835,328.25 216.775,328.25 C208.708293,328.25 204.675,332.576623 204.675,341.23 L204.675,375 L193.235,375 L193.235,318.79 L204.675,318.79 L204.675,324.18 C208.195018,319.706644 213.034969,317.47 219.195,317.47 C232.688401,317.47 239.435,325.463253 239.435,341.45 L239.435,375 L227.995,375 Z M270.565,376.32 C262.204958,376.32 258.025,371.66338 258.025,362.35 L258.025,328.69 L249.335,328.69 L249.335,318.79 L258.025,318.79 L258.025,301.08 L269.465,295.58 L269.465,318.79 L282.775,318.79 L282.775,328.69 L269.465,328.69 L269.465,359.38 C269.465,363.633355 271.298315,365.76 274.965,365.76 C277.678347,365.76 280.464986,364.880009 283.325,363.12 L281.895,373.79 C278.52165,375.476675 274.745021,376.32 270.565,376.32 Z M294.875,375 L294.875,318.79 L306.315,318.79 L306.315,325.61 C308.808346,320.183306 312.988304,317.47 318.855,317.47 C322.521685,317.47 325.674987,318.606655 328.315,320.88 L326.665,331.44 C323.951653,329.606657 320.981683,328.69 317.755,328.69 C314.674985,328.69 311.998345,329.844988 309.725,332.155 C307.451655,334.465012 306.315,338.223307 306.315,343.43 L306.315,375 L294.875,375 Z M360.215,376.32 C352.368294,376.32 346.153356,373.69836 341.57,368.455 C336.986644,363.21164 334.695,356.006712 334.695,346.84 C334.695,337.673288 337.004977,330.486693 341.625,325.28 C346.245023,320.073307 352.441628,317.47 360.215,317.47 C367.255035,317.47 373.048311,319.706644 377.595,324.18 C382.141689,328.653356 384.415,335.179957 384.415,343.76 C384.415,346.913349 384.268335,349.369991 383.975,351.13 L346.135,351.13 C346.208334,355.603356 347.656653,359.233319 350.48,362.02 C353.303347,364.806681 356.584981,366.2 360.325,366.2 C365.165024,366.2 369.051652,364.293352 371.985,360.48 L379.465,368.18 C374.918311,373.606694 368.501708,376.32 360.215,376.32 Z M346.135,341.89 L372.975,341.89 C372.901666,337.049976 371.618346,333.456678 369.125,331.11 C366.631654,328.763322 363.661684,327.59 360.215,327.59 C356.328314,327.59 353.083346,328.744988 350.48,331.055 C347.876654,333.365012 346.428335,336.976642 346.135,341.89 Z M428.635,375 L428.635,370.16 C424.67498,374.266687 419.541698,376.32 413.235,376.32 C407.29497,376.32 402.473352,374.68835 398.77,371.425 C395.066648,368.16165 393.215,363.523363 393.215,357.51 C393.215,351.423303 395.304979,346.803349 399.485,343.65 C403.665021,340.496651 408.761637,338.92 414.775,338.92 C420.275028,338.92 424.894981,340.019989 428.635,342.22 L428.635,339.14 C428.635,334.959979 427.681676,331.990009 425.775,330.23 C423.868324,328.469991 420.825021,327.59 416.645,327.59 C410.484969,327.59 405.131689,329.27665 400.585,332.65 L397.175,323.3 C402.821695,319.413314 409.824958,317.47 418.185,317.47 C420.971681,317.47 423.464989,317.708331 425.665,318.185 C427.865011,318.661669 430.101655,319.578327 432.375,320.935 C434.648345,322.291673 436.42666,324.473318 437.71,327.48 C438.99334,330.486682 439.635,334.189978 439.635,338.59 L439.635,375 L428.635,375 Z M415.325,366.2 C420.605026,366.2 425.041649,364.183354 428.635,360.15 L428.635,351.57 C425.188316,349.736657 421.191689,348.82 416.645,348.82 C412.978315,348.82 409.990012,349.534993 407.68,350.965 C405.369988,352.395007 404.215,354.576652 404.215,357.51 C404.215,360.223347 405.168324,362.349992 407.075,363.89 C408.981676,365.430008 411.731649,366.2 415.325,366.2 Z M454.485,375 L454.485,300.97 L465.925,295.58 L465.925,375 L454.485,375 Z" id="Montreal" fill="#E9E9E9" mask="url(#mask-2)"></path>
                <path d="M30.926,92 C30.7699992,92 30.692,91.9220008 30.692,91.766 L30.692,79.634 C30.692,79.4779992 30.7699992,79.4 30.926,79.4 L31.736,79.4 C31.8920008,79.4 31.97,79.4779992 31.97,79.634 L31.97,91.766 C31.97,91.9220008 31.8920008,92 31.736,92 L30.926,92 Z M35.894,79.4 C35.9780004,79.4 36.0349998,79.4239998 36.065,79.472 C36.0950002,79.5200002 36.0980001,79.5859996 36.074,79.67 L34.778,82.91 C34.7299998,83.0300006 34.6400007,83.09 34.508,83.09 L33.95,83.09 C33.8659996,83.09 33.8060002,83.0660002 33.77,83.018 C33.7339998,82.9699998 33.7279999,82.9040004 33.752,82.82 L34.796,79.598 C34.8320002,79.4659993 34.9159993,79.4 35.048,79.4 L35.894,79.4 Z M39.98,92 C39.8359993,92 39.7460002,91.9340007 39.71,91.802 L36.794,83.162 C36.7819999,83.1379999 36.776,83.1080002 36.776,83.072 C36.776,83.0239998 36.7969998,82.9820002 36.839,82.946 C36.8810002,82.9099998 36.9319997,82.892 36.992,82.892 L37.91,82.892 C38.0420007,82.892 38.1259998,82.9579993 38.162,83.09 L40.412,90.092 C40.4240001,90.1400002 40.4419999,90.164 40.466,90.164 C40.4900001,90.164 40.5079999,90.1400002 40.52,90.092 L42.77,83.09 C42.8060002,82.9579993 42.8899993,82.892 43.022,82.892 L43.94,82.91 C44.0240004,82.91 44.0809998,82.9339998 44.111,82.982 C44.1410002,83.0300002 44.1440001,83.0959996 44.12,83.18 L41.222,91.802 C41.1859998,91.9340007 41.0960007,92 40.952,92 L39.98,92 Z M49.718,91.046 C50.2580027,91.0339999 50.7229981,90.9110012 51.113,90.677 C51.503002,90.4429988 51.8059989,90.1160021 52.022,89.696 C52.0460001,89.6359997 52.0879997,89.5940001 52.148,89.57 C52.2080003,89.5459999 52.2679997,89.5519998 52.328,89.588 L52.85,89.876 C52.9940007,89.9600004 53.0300004,90.0619994 52.958,90.182 C52.6699986,90.782003 52.2380029,91.2589982 51.662,91.613 C51.0859971,91.9670018 50.402004,92.144 49.61,92.144 C48.7699958,92.144 48.0620029,91.946002 47.486,91.55 C46.9099971,91.153998 46.4960013,90.6020035 46.244,89.894 C46.0159989,89.293997 45.902,88.4660053 45.902,87.41 C45.902,86.8939974 45.9109999,86.4830015 45.929,86.177 C45.9470001,85.8709985 45.9919996,85.5860013 46.064,85.322 C46.268001,84.5419961 46.6789969,83.9180023 47.297,83.45 C47.9150031,82.9819977 48.6619956,82.748 49.538,82.748 C50.5820052,82.748 51.400997,83.0179973 51.995,83.558 C52.589003,84.0980027 52.9699992,84.8599951 53.138,85.844 C53.2100004,86.2280019 53.246,86.8279959 53.246,87.644 C53.246,87.8000008 53.1680008,87.878 53.012,87.878 L47.252,87.878 C47.1919997,87.878 47.162,87.9079997 47.162,87.968 C47.162,88.568003 47.1979996,89.0059986 47.27,89.282 C47.4020007,89.8220027 47.6809979,90.2509984 48.107,90.569 C48.5330021,90.8870016 49.0699968,91.046 49.718,91.046 Z M49.538,83.864 C48.937997,83.864 48.4460019,84.0169985 48.062,84.323 C47.6779981,84.6290015 47.4260006,85.0399974 47.306,85.556 C47.2339996,85.7960012 47.1860001,86.2039971 47.162,86.78 C47.162,86.8400003 47.1919997,86.87 47.252,86.87 L51.878,86.87 C51.9380003,86.87 51.968,86.8400003 51.968,86.78 C51.9439999,86.2519974 51.9080002,85.8680012 51.86,85.628 C51.7279993,85.0879973 51.461002,84.6590016 51.059,84.341 C50.656998,84.0229984 50.1500031,83.864 49.538,83.864 Z M61.31,92 C61.1779993,92 61.0940002,91.9340007 61.058,91.802 L58.538,83.162 C58.5259999,83.1379999 58.52,83.1080002 58.52,83.072 C58.52,83.0239998 58.5409998,82.9820002 58.583,82.946 C58.6250002,82.9099998 58.6759997,82.892 58.736,82.892 L59.582,82.892 C59.7140007,82.892 59.7979998,82.9579993 59.834,83.09 L61.706,90.11 C61.7180001,90.1460002 61.7359999,90.164 61.76,90.164 C61.7840001,90.164 61.8019999,90.1460002 61.814,90.11 L63.74,83.09 C63.7760002,82.9579993 63.8599993,82.892 63.992,82.892 L64.784,82.892 C64.9160007,82.892 64.9999998,82.9579993 65.036,83.09 L66.998,90.11 C67.0100001,90.1460002 67.0279999,90.164 67.052,90.164 C67.0760001,90.164 67.0939999,90.1460002 67.106,90.11 L69.032,83.09 C69.0680002,82.9579993 69.1579993,82.892 69.302,82.892 L70.13,82.91 C70.2140004,82.91 70.2739998,82.9339998 70.31,82.982 C70.3460002,83.0300002 70.3520001,83.0959996 70.328,83.18 L67.772,91.802 C67.7359998,91.9340007 67.6520007,92 67.52,92 L66.638,92 C66.5059993,92 66.4220002,91.9340007 66.386,91.802 L64.442,85.16 C64.4299999,85.1239998 64.4120001,85.106 64.388,85.106 C64.3639999,85.106 64.3460001,85.1239998 64.334,85.16 L62.462,91.802 C62.4259998,91.9340007 62.3420007,92 62.21,92 L61.31,92 Z M75.854,92.144 C74.9779956,92.144 74.2310031,91.9220022 73.613,91.478 C72.9949969,91.0339978 72.5660012,90.4220039 72.326,89.642 C72.1579992,89.0899972 72.074,88.3520046 72.074,87.428 C72.074,86.5159954 72.1519992,85.7840028 72.308,85.232 C72.5480012,84.4639962 72.9769969,83.8580022 73.595,83.414 C74.2130031,82.9699978 74.9659956,82.748 75.854,82.748 C76.7180043,82.748 77.4589969,82.9699978 78.077,83.414 C78.6950031,83.8580022 79.1179989,84.4579962 79.346,85.214 C79.5140008,85.7900029 79.598,86.5279955 79.598,87.428 C79.598,88.3520046 79.5140008,89.0899972 79.346,89.642 C79.1059988,90.4220039 78.6770031,91.0339978 78.059,91.478 C77.4409969,91.9220022 76.7060043,92.144 75.854,92.144 Z M75.854,91.028 C76.4300029,91.028 76.921998,90.8690016 77.33,90.551 C77.738002,90.2329984 78.0139993,89.8040027 78.158,89.264 C78.2540005,88.8799981 78.302,88.2740041 78.302,87.446 C78.302,86.5819957 78.2540005,85.9760017 78.158,85.628 C78.0259993,85.0879973 77.7530021,84.6590016 77.339,84.341 C76.9249979,84.0229984 76.418003,83.864 75.818,83.864 C75.2419971,83.864 74.750002,84.0229984 74.342,84.341 C73.933998,84.6590016 73.6580007,85.0879973 73.514,85.628 C73.4179995,85.9760017 73.37,86.5819957 73.37,87.446 C73.37,88.3100043 73.4179995,88.9159983 73.514,89.264 C73.6460007,89.8040027 73.9189979,90.2329984 74.333,90.551 C74.7470021,90.8690016 75.253997,91.028 75.854,91.028 Z M85.862,82.802 C86.258002,82.802 86.5879987,82.8739993 86.852,83.018 C86.9720006,83.0660002 87.0140002,83.1619993 86.978,83.306 L86.798,84.098 C86.7619998,84.2420007 86.6660008,84.2900002 86.51,84.242 C86.2819989,84.1699996 85.9880018,84.1399999 85.628,84.152 C85.0039969,84.1760001 84.488002,84.4069978 84.08,84.845 C83.671998,85.2830022 83.468,85.8379966 83.468,86.51 L83.468,91.766 C83.468,91.9220008 83.3900008,92 83.234,92 L82.424,92 C82.2679992,92 82.19,91.9220008 82.19,91.766 L82.19,83.126 C82.19,82.9699992 82.2679992,82.892 82.424,82.892 L83.234,82.892 C83.3900008,82.892 83.468,82.9699992 83.468,83.126 L83.468,84.134 C83.468,84.1820002 83.4769999,84.209 83.495,84.215 C83.5130001,84.221 83.5339999,84.2060002 83.558,84.17 C83.8100013,83.7379978 84.1309981,83.4020012 84.521,83.162 C84.911002,82.9219988 85.3579975,82.802 85.862,82.802 Z M88.976,92 C88.8199992,92 88.742,91.9220008 88.742,91.766 L88.742,79.634 C88.742,79.4779992 88.8199992,79.4 88.976,79.4 L89.786,79.4 C89.9420008,79.4 90.02,79.4779992 90.02,79.634 L90.02,86.906 C90.02,86.9420002 90.0319999,86.9689999 90.056,86.987 C90.0800001,87.0050001 90.1039999,86.9960002 90.128,86.96 L93.89,83.018 C93.9620004,82.9339996 94.0579994,82.892 94.178,82.892 L95.132,82.892 C95.2640007,82.892 95.33,82.9399995 95.33,83.036 C95.33,83.0720002 95.3120002,83.1199997 95.276,83.18 L93.044,85.646 C93.0079998,85.6820002 93.0019999,85.7239998 93.026,85.772 L95.726,91.73 C95.7500001,91.7780002 95.762,91.8139999 95.762,91.838 C95.762,91.9460005 95.6900007,92 95.546,92 L94.7,92 C94.5799994,92 94.4900003,91.9400006 94.43,91.82 L92.144,86.618 C92.1319999,86.5939999 92.1140001,86.579 92.09,86.573 C92.0659999,86.567 92.0420001,86.5759999 92.018,86.6 L90.056,88.652 C90.0319999,88.7000002 90.02,88.7419998 90.02,88.778 L90.02,91.766 C90.02,91.9220008 89.9420008,92 89.786,92 L88.976,92 Z M101.306,91.046 C101.846003,91.0339999 102.310998,90.9110012 102.701,90.677 C103.091002,90.4429988 103.393999,90.1160021 103.61,89.696 C103.634,89.6359997 103.676,89.5940001 103.736,89.57 C103.796,89.5459999 103.856,89.5519998 103.916,89.588 L104.438,89.876 C104.582001,89.9600004 104.618,90.0619994 104.546,90.182 C104.257999,90.782003 103.826003,91.2589982 103.25,91.613 C102.673997,91.9670018 101.990004,92.144 101.198,92.144 C100.357996,92.144 99.6500029,91.946002 99.074,91.55 C98.4979971,91.153998 98.0840013,90.6020035 97.832,89.894 C97.6039989,89.293997 97.49,88.4660053 97.49,87.41 C97.49,86.8939974 97.4989999,86.4830015 97.517,86.177 C97.5350001,85.8709985 97.5799996,85.5860013 97.652,85.322 C97.856001,84.5419961 98.2669969,83.9180023 98.885,83.45 C99.5030031,82.9819977 100.249996,82.748 101.126,82.748 C102.170005,82.748 102.988997,83.0179973 103.583,83.558 C104.177003,84.0980027 104.557999,84.8599951 104.726,85.844 C104.798,86.2280019 104.834,86.8279959 104.834,87.644 C104.834,87.8000008 104.756001,87.878 104.6,87.878 L98.84,87.878 C98.7799997,87.878 98.75,87.9079997 98.75,87.968 C98.75,88.568003 98.7859996,89.0059986 98.858,89.282 C98.9900007,89.8220027 99.2689979,90.2509984 99.695,90.569 C100.121002,90.8870016 100.657997,91.046 101.306,91.046 Z M101.126,83.864 C100.525997,83.864 100.034002,84.0169985 99.65,84.323 C99.2659981,84.6290015 99.0140006,85.0399974 98.894,85.556 C98.8219996,85.7960012 98.7740001,86.2039971 98.75,86.78 C98.75,86.8400003 98.7799997,86.87 98.84,86.87 L103.466,86.87 C103.526,86.87 103.556,86.8400003 103.556,86.78 C103.532,86.2519974 103.496,85.8680012 103.448,85.628 C103.315999,85.0879973 103.049002,84.6590016 102.647,84.341 C102.244998,84.0229984 101.738003,83.864 101.126,83.864 Z M112.97,79.634 C112.97,79.4779992 113.047999,79.4 113.204,79.4 L114.014,79.4 C114.170001,79.4 114.248,79.4779992 114.248,79.634 L114.248,91.766 C114.248,91.9220008 114.170001,92 114.014,92 L113.204,92 C113.047999,92 112.97,91.9220008 112.97,91.766 L112.97,91.082 C112.97,91.0459998 112.958,91.025 112.934,91.019 C112.91,91.013 112.886,91.0219999 112.862,91.046 C112.597999,91.3940017 112.271002,91.663999 111.881,91.856 C111.490998,92.048001 111.056002,92.144 110.576,92.144 C109.735996,92.144 109.031003,91.9280022 108.461,91.496 C107.890997,91.0639978 107.498001,90.4760037 107.282,89.732 C107.113999,89.1919973 107.03,88.4300049 107.03,87.446 C107.03,86.449995 107.101999,85.7060025 107.246,85.214 C107.462001,84.4459962 107.857997,83.8430022 108.434,83.405 C109.010003,82.9669978 109.723996,82.748 110.576,82.748 C111.044002,82.748 111.475998,82.8409991 111.872,83.027 C112.268002,83.2130009 112.597999,83.4799983 112.862,83.828 C112.886,83.8640002 112.91,83.8760001 112.934,83.864 C112.958,83.8519999 112.97,83.8280002 112.97,83.792 L112.97,79.634 Z M112.628,89.642 C112.736001,89.4019988 112.814,89.1200016 112.862,88.796 C112.91,88.4719984 112.934,88.0220029 112.934,87.446 C112.934,86.8699971 112.91,86.4170017 112.862,86.087 C112.814,85.7569984 112.730001,85.4660013 112.61,85.214 C112.465999,84.805998 112.229002,84.4790012 111.899,84.233 C111.568998,83.9869988 111.176002,83.864 110.72,83.864 C110.239998,83.864 109.826002,83.9839988 109.478,84.224 C109.129998,84.4640012 108.878001,84.781998 108.722,85.178 C108.577999,85.4420013 108.473,85.7389984 108.407,86.069 C108.341,86.3990017 108.308,86.8579971 108.308,87.446 C108.308,88.0100028 108.332,88.4509984 108.38,88.769 C108.428,89.0870016 108.511999,89.3719987 108.632,89.624 C108.776001,90.0560022 109.030998,90.3979987 109.397,90.65 C109.763002,90.9020013 110.197997,91.028 110.702,91.028 C111.182002,91.028 111.583998,90.9020013 111.908,90.65 C112.232002,90.3979987 112.471999,90.0620021 112.628,89.642 Z M121.502,81.254 C121.213999,81.254 120.980001,81.1670009 120.8,80.993 C120.619999,80.8189991 120.53,80.5940014 120.53,80.318 C120.53,80.0419986 120.619999,79.8200008 120.8,79.652 C120.980001,79.4839992 121.213999,79.4 121.502,79.4 C121.790001,79.4 122.023999,79.4839992 122.204,79.652 C122.384001,79.8200008 122.474,80.0419986 122.474,80.318 C122.474,80.5940014 122.384001,80.8189991 122.204,80.993 C122.023999,81.1670009 121.790001,81.254 121.502,81.254 Z M121.106,92 C120.949999,92 120.872,91.9220008 120.872,91.766 L120.872,83.126 C120.872,82.9699992 120.949999,82.892 121.106,82.892 L121.916,82.892 C122.072001,82.892 122.15,82.9699992 122.15,83.126 L122.15,91.766 C122.15,91.9220008 122.072001,92 121.916,92 L121.106,92 Z M128.918,82.766 C129.866005,82.766 130.624997,83.0479972 131.195,83.612 C131.765003,84.1760028 132.05,84.9319953 132.05,85.88 L132.05,91.766 C132.05,91.9220008 131.972001,92 131.816,92 L131.006,92 C130.849999,92 130.772,91.9220008 130.772,91.766 L130.772,86.132 C130.772,85.4599966 130.574002,84.9170021 130.178,84.503 C129.781998,84.0889979 129.266003,83.882 128.63,83.882 C128.017997,83.882 127.511002,84.0559983 127.109,84.404 C126.706998,84.7520017 126.476,85.2079972 126.416,85.772 L126.416,91.766 C126.416,91.9220008 126.338001,92 126.182,92 L125.372,92 C125.215999,92 125.138,91.9220008 125.138,91.766 L125.138,83.126 C125.138,82.9699992 125.215999,82.892 125.372,82.892 L126.182,82.892 C126.338001,82.892 126.416,82.9699992 126.416,83.126 L126.416,83.792 C126.416,83.8280002 126.428,83.8549999 126.452,83.873 C126.476,83.8910001 126.494,83.8820002 126.506,83.846 C127.034003,83.1259964 127.837995,82.766 128.918,82.766 Z" id="I’ve-worked-in" fill="#848484" mask="url(#mask-2)"></path>
            </g>
        </g>
    </g>
</svg>