<?xml version="1.0" encoding="UTF-8"?>
<svg width="200px" height="440px" viewBox="0 0 200 440" version="1.1" xmlns="http://www.w3.org/2000/svg" xmlns:xlink="http://www.w3.org/1999/xlink">
    <defs>
        <rect id="path-1" x="0" y="0" width="200" height="440"></rect>
    </defs>
    <g stroke="none" stroke-width="1" fill="none" fill-rule="evenodd">
        <g transform="translate(-620.000000, -289.000000)">
            <g transform="translate(620.000000, 289.000000)">
                <mask id="mask-2" fill="white">
                    <use xlink:href="#path-1"></use>
                </mask>
                <rect stroke="#373737" x="0.5" y="0.5" width="199" height="439"></rect>
                <path d="M29.926,92 C29.7699992,92 29.692,91.9220008 29.692,91.766 L29.692,79.634 C29.692,79.4779992 29.7699992,79.4 29.926,79.4 L30.736,79.4 C30.8920008,79.4 30.97,79.4779992 30.97,79.634 L30.97,91.766 C30.97,91.9220008 30.8920008,92 30.736,92 L29.926,92 Z M34.894,79.4 C34.9780004,79.4 35.0349998,79.4239998 35.065,79.472 C35.0950002,79.5200002 35.0980001,79.5859996 35.074,79.67 L33.778,82.91 C33.7299998,83.0300006 33.6400007,83.09 33.508,83.09 L32.95,83.09 C32.8659996,83.09 32.8060002,83.0660002 32.77,83.018 C32.7339998,82.9699998 32.7279999,82.9040004 32.752,82.82 L33.796,79.598 C33.8320002,79.4659993 33.9159993,79.4 34.048,79.4 L34.894,79.4 Z M38.98,92 C38.8359993,92 38.7460002,91.9340007 38.71,91.802 L35.794,83.162 C35.7819999,83.1379999 35.776,83.1080002 35.776,83.072 C35.776,83.0239998 35.7969998,82.9820002 35.839,82.946 C35.8810002,82.9099998 35.9319997,82.892 35.992,82.892 L36.91,82.892 C37.0420007,82.892 37.1259998,82.9579993 37.162,83.09 L39.412,90.092 C39.4240001,90.1400002 39.4419999,90.164 39.466,90.164 C39.4900001,90.164 39.5079999,90.1400002 39.52,90.092 L41.77,83.09 C41.8060002,82.9579993 41.8899993,82.892 42.022,82.892 L42.94,82.91 C43.0240004,82.91 43.0809998,82.9339998 43.111,82.982 C43.1410002,83.0300002 43.1440001,83.0959996 43.12,83.18 L40.222,91.802 C40.1859998,91.9340007 40.0960007,92 39.952,92 L38.98,92 Z M48.718,91.046 C49.2580027,91.0339999 49.7229981,90.9110012 50.113,90.677 C50.503002,90.4429988 50.8059989,90.1160021 51.022,89.696 C51.0460001,89.6359997 51.0879997,89.5940001 51.148,89.57 C51.2080003,89.5459999 51.2679997,89.5519998 51.328,89.588 L51.85,89.876 C51.9940007,89.9600004 52.0300004,90.0619994 51.958,90.182 C51.6699986,90.782003 51.2380029,91.2589982 50.662,91.613 C50.0859971,91.9670018 49.402004,92.144 48.61,92.144 C47.7699958,92.144 47.0620029,91.946002 46.486,91.55 C45.9099971,91.153998 45.4960013,90.6020035 45.244,89.894 C45.0159989,89.293997 44.902,88.4660053 44.902,87.41 C44.902,86.8939974 44.9109999,86.4830015 44.929,86.177 C44.9470001,85.8709985 44.9919996,85.5860013 45.064,85.322 C45.268001,84.5419961 45.6789969,83.9180023 46.297,83.45 C46.9150031,82.9819977 47.6619956,82.748 48.538,82.748 C49.5820052,82.748 50.400997,83.0179973 50.995,83.558 C51.589003,84.0980027 51.9699992,84.8599951 52.138,85.844 C52.2100004,86.2280019 52.246,86.8279959 52.246,87.644 C52.246,87.8000008 52.1680008,87.878 52.012,87.878 L46.252,87.878 C46.1919997,87.878 46.162,87.9079997 46.162,87.968 C46.162,88.568003 46.1979996,89.0059986 46.27,89.282 C46.4020007,89.8220027 46.6809979,90.2509984 47.107,90.569 C47.5330021,90.8870016 48.0699968,91.046 48.718,91.046 Z M48.538,83.864 C47.937997,83.864 47.4460019,84.0169985 47.062,84.323 C46.6779981,84.6290015 46.4260006,85.0399974 46.306,85.556 C46.2339996,85.7960012 46.1860001,86.2039971 46.162,86.78 C46.162,86.8400003 46.1919997,86.87 46.252,86.87 L50.878,86.87 C50.9380003,86.87 50.968,86.8400003 50.968,86.78 C50.9439999,86.2519974 50.9080002,85.8680012 50.86,85.628 C50.7279993,85.0879973 50.461002,84.6590016 50.059,84.341 C49.656998,84.0229984 49.1500031,83.864 48.538,83.864 Z M60.31,92 C60.1779993,92 60.0940002,91.9340007 60.058,91.802 L57.538,83.162 C57.5259999,83.1379999 57.52,83.1080002 57.52,83.072 C57.52,83.0239998 57.5409998,82.9820002 57.583,82.946 C57.6250002,82.9099998 57.6759997,82.892 57.736,82.892 L58.582,82.892 C58.7140007,82.892 58.7979998,82.9579993 58.834,83.09 L60.706,90.11 C60.7180001,90.1460002 60.7359999,90.164 60.76,90.164 C60.7840001,90.164 60.8019999,90.1460002 60.814,90.11 L62.74,83.09 C62.7760002,82.9579993 62.8599993,82.892 62.992,82.892 L63.784,82.892 C63.9160007,82.892 63.9999998,82.9579993 64.036,83.09 L65.998,90.11 C66.0100001,90.1460002 66.0279999,90.164 66.052,90.164 C66.0760001,90.164 66.0939999,90.1460002 66.106,90.11 L68.032,83.09 C68.0680002,82.9579993 68.1579993,82.892 68.302,82.892 L69.13,82.91 C69.2140004,82.91 69.2739998,82.9339998 69.31,82.982 C69.3460002,83.0300002 69.3520001,83.0959996 69.328,83.18 L66.772,91.802 C66.7359998,91.9340007 66.6520007,92 66.52,92 L65.638,92 C65.5059993,92 65.4220002,91.9340007 65.386,91.802 L63.442,85.16 C63.4299999,85.1239998 63.4120001,85.106 63.388,85.106 C63.3639999,85.106 63.3460001,85.1239998 63.334,85.16 L61.462,91.802 C61.4259998,91.9340007 61.3420007,92 61.21,92 L60.31,92 Z M74.854,92.144 C73.9779956,92.144 73.2310031,91.9220022 72.613,91.478 C71.9949969,91.0339978 71.5660012,90.4220039 71.326,89.642 C71.1579992,89.0899972 71.074,88.3520046 71.074,87.428 C71.074,86.5159954 71.1519992,85.7840028 71.308,85.232 C71.5480012,84.4639962 71.9769969,83.8580022 72.595,83.414 C73.2130031,82.9699978 73.9659956,82.748 74.854,82.748 C75.7180043,82.748 76.4589969,82.9699978 77.077,83.414 C77.6950031,83.8580022 78.1179989,84.4579962 78.346,85.214 C78.5140008,85.7900029 78.598,86.5279955 78.598,87.428 C78.598,88.3520046 78.5140008,89.0899972 78.346,89.642 C78.1059988,90.4220039 77.6770031,91.0339978 77.059,91.478 C76.4409969,91.9220022 75.7060043,92.144 74.854,92.144 Z M74.854,91.028 C75.4300029,91.028 75.921998,90.8690016 76.33,90.551 C76.738002,90.2329984 77.0139993,89.8040027 77.158,89.264 C77.2540005,88.8799981 77.302,88.2740041 77.302,87.446 C77.302,86.5819957 77.2540005,85.9760017 77.158,85.628 C77.0259993,85.0879973 76.7530021,84.6590016 76.339,84.341 C75.9249979,84.0229984 75.418003,83.864 74.818,83.864 C74.2419971,83.864 73.750002,84.0229984 73.342,84.341 C72.933998,84.6590016 72.6580007,85.0879973 72.514,85.628 C72.4179995,85.9760017 72.37,86.5819957 72.37,87.446 C72.37,88.3100043 72.4179995,88.9159983 72.514,89.264 C72.6460007,89.8040027 72.9189979,90.2329984 73.333,90.551 C73.7470021,90.8690016 74.253997,91.028 74.854,91.028 Z M84.862,82.802 C85.258002,82.802 85.5879987,82.8739993 85.852,83.018 C85.9720006,83.0660002 86.0140002,83.1619993 85.978,83.306 L85.798,84.098 C85.7619998,84.2420007 85.6660008,84.2900002 85.51,84.242 C85.2819989,84.1699996 84.9880018,84.1399999 84.628,84.152 C84.0039969,84.1760001 83.488002,84.4069978 83.08,84.845 C82.671998,85.2830022 82.468,85.8379966 82.468,86.51 L82.468,91.766 C82.468,91.9220008 82.3900008,92 82.234,92 L81.424,92 C81.2679992,92 81.19,91.9220008 81.19,91.766 L81.19,83.126 C81.19,82.9699992 81.2679992,82.892 81.424,82.892 L82.234,82.892 C82.3900008,82.892 82.468,82.9699992 82.468,83.126 L82.468,84.134 C82.468,84.1820002 82.4769999,84.209 82.495,84.215 C82.5130001,84.221 82.5339999,84.2060002 82.558,84.17 C82.8100013,83.7379978 83.1309981,83.4020012 83.521,83.162 C83.911002,82.9219988 84.3579975,82.802 84.862,82.802 Z M87.976,92 C87.8199992,92 87.742,91.9220008 87.742,91.766 L87.742,79.634 C87.742,79.4779992 87.8199992,79.4 87.976,79.4 L88.786,79.4 C88.9420008,79.4 89.02,79.4779992 89.02,79.634 L89.02,86.906 C89.02,86.9420002 89.0319999,86.9689999 89.056,86.987 C89.0800001,87.0050001 89.1039999,86.9960002 89.128,86.96 L92.89,83.018 C92.9620004,82.9339996 93.0579994,82.892 93.178,82.892 L94.132,82.892 C94.2640007,82.892 94.33,82.9399995 94.33,83.036 C94.33,83.0720002 94.3120002,83.1199997 94.276,83.18 L92.044,85.646 C92.0079998,85.6820002 92.0019999,85.7239998 92.026,85.772 L94.726,91.73 C94.7500001,91.7780002 94.762,91.8139999 94.762,91.838 C94.762,91.9460005 94.6900007,92 94.546,92 L93.7,92 C93.5799994,92 93.4900003,91.9400006 93.43,91.82 L91.144,86.618 C91.1319999,86.5939999 91.1140001,86.579 91.09,86.573 C91.0659999,86.567 91.0420001,86.5759999 91.018,86.6 L89.056,88.652 C89.0319999,88.7000002 89.02,88.7419998 89.02,88.778 L89.02,91.766 C89.02,91.9220008 88.9420008,92 88.786,92 L87.976,92 Z M100.306,91.046 C100.846003,91.0339999 101.310998,90.9110012 101.701,90.677 C102.091002,90.4429988 102.393999,90.1160021 102.61,89.696 C102.634,89.6359997 102.676,89.5940001 102.736,89.57 C102.796,89.5459999 102.856,89.5519998 102.916,89.588 L103.438,89.876 C103.582001,89.9600004 103.618,90.0619994 103.546,90.182 C103.257999,90.782003 102.826003,91.2589982 102.25,91.613 C101.673997,91.9670018 100.990004,92.144 100.198,92.144 C99.3579958,92.144 98.6500029,91.946002 98.074,91.55 C97.4979971,91.153998 97.0840013,90.6020035 96.832,89.894 C96.6039989,89.293997 96.49,88.4660053 96.49,87.41 C96.49,86.8939974 96.4989999,86.4830015 96.517,86.177 C96.5350001,85.8709985 96.5799996,85.5860013 96.652,85.322 C96.856001,84.5419961 97.2669969,83.9180023 97.885,83.45 C98.5030031,82.9819977 99.2499956,82.748 100.126,82.748 C101.170005,82.748 101.988997,83.0179973 102.583,83.558 C103.177003,84.0980027 103.557999,84.8599951 103.726,85.844 C103.798,86.2280019 103.834,86.8279959 103.834,87.644 C103.834,87.8000008 103.756001,87.878 103.6,87.878 L97.84,87.878 C97.7799997,87.878 97.75,87.9079997 97.75,87.968 C97.75,88.568003 97.7859996,89.0059986 97.858,89.282 C97.9900007,89.8220027 98.2689979,90.2509984 98.695,90.569 C99.1210021,90.8870016 99.6579968,91.046 100.306,91.046 Z M100.126,83.864 C99.525997,83.864 99.0340019,84.0169985 98.65,84.323 C98.2659981,84.6290015 98.0140006,85.0399974 97.894,85.556 C97.8219996,85.7960012 97.7740001,86.2039971 97.75,86.78 C97.75,86.8400003 97.7799997,86.87 97.84,86.87 L102.466,86.87 C102.526,86.87 102.556,86.8400003 102.556,86.78 C102.532,86.2519974 102.496,85.8680012 102.448,85.628 C102.315999,85.0879973 102.049002,84.6590016 101.647,84.341 C101.244998,84.0229984 100.738003,83.864 100.126,83.864 Z M111.97,79.634 C111.97,79.4779992 112.047999,79.4 112.204,79.4 L113.014,79.4 C113.170001,79.4 113.248,79.4779992 113.248,79.634 L113.248,91.766 C113.248,91.9220008 113.170001,92 113.014,92 L112.204,92 C112.047999,92 111.97,91.9220008 111.97,91.766 L111.97,91.082 C111.97,91.0459998 111.958,91.025 111.934,91.019 C111.91,91.013 111.886,91.0219999 111.862,91.046 C111.597999,91.3940017 111.271002,91.663999 110.881,91.856 C110.490998,92.048001 110.056002,92.144 109.576,92.144 C108.735996,92.144 108.031003,91.9280022 107.461,91.496 C106.890997,91.0639978 106.498001,90.4760037 106.282,89.732 C106.113999,89.1919973 106.03,88.4300049 106.03,87.446 C106.03,86.449995 106.101999,85.7060025 106.246,85.214 C106.462001,84.4459962 106.857997,83.8430022 107.434,83.405 C108.010003,82.9669978 108.723996,82.748 109.576,82.748 C110.044002,82.748 110.475998,82.8409991 110.872,83.027 C111.268002,83.2130009 111.597999,83.4799983 111.862,83.828 C111.886,83.8640002 111.91,83.8760001 111.934,83.864 C111.958,83.8519999 111.97,83.8280002 111.97,83.792 L111.97,79.634 Z M111.628,89.642 C111.736001,89.4019988 111.814,89.1200016 111.862,88.796 C111.91,88.4719984 111.934,88.0220029 111.934,87.446 C111.934,86.8699971 111.91,86.4170017 111.862,86.087 C111.814,85.7569984 111.730001,85.4660013 111.61,85.214 C111.465999,84.805998 111.229002,84.4790012 110.899,84.233 C110.568998,83.9869988 110.176002,83.864 109.72,83.864 C109.239998,83.864 108.826002,83.9839988 108.478,84.224 C108.129998,84.4640012 107.878001,84.781998 107.722,85.178 C107.577999,85.4420013 107.473,85.7389984 107.407,86.069 C107.341,86.3990017 107.308,86.8579971 107.308,87.446 C107.308,88.0100028 107.332,88.4509984 107.38,88.769 C107.428,89.0870016 107.511999,89.3719987 107.632,89.624 C107.776001,90.0560022 108.030998,90.3979987 108.397,90.65 C108.763002,90.9020013 109.197997,91.028 109.702,91.028 C110.182002,91.028 110.583998,90.9020013 110.908,90.65 C111.232002,90.3979987 111.471999,90.0620021 111.628,89.642 Z M123.328,80.516 C122.667997,80.516 122.218001,80.6629985 121.978,80.957 C121.737999,81.2510015 121.618,81.7519965 121.618,82.46 L121.618,82.802 C121.618,82.8620003 121.648,82.892 121.708,82.892 L123.652,82.892 C123.808001,82.892 123.886,82.9699992 123.886,83.126 L123.886,83.828 C123.886,83.9840008 123.808001,84.062 123.652,84.062 L121.708,84.062 C121.648,84.062 121.618,84.0919997 121.618,84.152 L121.618,91.766 C121.618,91.9220008 121.540001,92 121.384,92 L120.592,92 C120.435999,92 120.358,91.9220008 120.358,91.766 L120.358,84.152 C120.358,84.0919997 120.328,84.062 120.268,84.062 L119.134,84.062 C118.977999,84.062 118.9,83.9840008 118.9,83.828 L118.9,83.126 C118.9,82.9699992 118.977999,82.892 119.134,82.892 L120.268,82.892 C120.328,82.892 120.358,82.8620003 120.358,82.802 L120.358,82.388 C120.358,81.6439963 120.441999,81.0590021 120.61,80.633 C120.778001,80.2069979 121.068998,79.895001 121.483,79.697 C121.897002,79.498999 122.475996,79.4 123.22,79.4 L123.688,79.4 C123.844001,79.4 123.922,79.4779992 123.922,79.634 L123.922,80.282 C123.922,80.4380008 123.844001,80.516 123.688,80.516 L123.328,80.516 Z M129.628,92.144 C128.751996,92.144 128.005003,91.9220022 127.387,91.478 C126.768997,91.0339978 126.340001,90.4220039 126.1,89.642 C125.931999,89.0899972 125.848,88.3520046 125.848,87.428 C125.848,86.5159954 125.925999,85.7840028 126.082,85.232 C126.322001,84.4639962 126.750997,83.8580022 127.369,83.414 C127.987003,82.9699978 128.739996,82.748 129.628,82.748 C130.492004,82.748 131.232997,82.9699978 131.851,83.414 C132.469003,83.8580022 132.891999,84.4579962 133.12,85.214 C133.288001,85.7900029 133.372,86.5279955 133.372,87.428 C133.372,88.3520046 133.288001,89.0899972 133.12,89.642 C132.879999,90.4220039 132.451003,91.0339978 131.833,91.478 C131.214997,91.9220022 130.480004,92.144 129.628,92.144 Z M129.628,91.028 C130.204003,91.028 130.695998,90.8690016 131.104,90.551 C131.512002,90.2329984 131.787999,89.8040027 131.932,89.264 C132.028,88.8799981 132.076,88.2740041 132.076,87.446 C132.076,86.5819957 132.028,85.9760017 131.932,85.628 C131.799999,85.0879973 131.527002,84.6590016 131.113,84.341 C130.698998,84.0229984 130.192003,83.864 129.592,83.864 C129.015997,83.864 128.524002,84.0229984 128.116,84.341 C127.707998,84.6590016 127.432001,85.0879973 127.288,85.628 C127.192,85.9760017 127.144,86.5819957 127.144,87.446 C127.144,88.3100043 127.192,88.9159983 127.288,89.264 C127.420001,89.8040027 127.692998,90.2329984 128.107,90.551 C128.521002,90.8690016 129.027997,91.028 129.628,91.028 Z M139.636,82.802 C140.032002,82.802 140.361999,82.8739993 140.626,83.018 C140.746001,83.0660002 140.788,83.1619993 140.752,83.306 L140.572,84.098 C140.536,84.2420007 140.440001,84.2900002 140.284,84.242 C140.055999,84.1699996 139.762002,84.1399999 139.402,84.152 C138.777997,84.1760001 138.262002,84.4069978 137.854,84.845 C137.445998,85.2830022 137.242,85.8379966 137.242,86.51 L137.242,91.766 C137.242,91.9220008 137.164001,92 137.008,92 L136.198,92 C136.041999,92 135.964,91.9220008 135.964,91.766 L135.964,83.126 C135.964,82.9699992 136.041999,82.892 136.198,82.892 L137.008,82.892 C137.164001,82.892 137.242,82.9699992 137.242,83.126 L137.242,84.134 C137.242,84.1820002 137.251,84.209 137.269,84.215 C137.287,84.221 137.308,84.2060002 137.332,84.17 C137.584001,83.7379978 137.904998,83.4020012 138.295,83.162 C138.685002,82.9219988 139.131997,82.802 139.636,82.802 Z" id="I’ve-worked-for" fill="#848484" mask="url(#mask-2)"></path>
                <path d="M39.816,194.432 C38.3039924,194.432 36.9420061,194.180003 35.73,193.676 C34.5179939,193.171997 33.5220039,192.500004 32.742,191.66 C31.9619961,190.819996 31.3080026,189.824006 30.78,188.672 C30.2519974,187.519994 29.8800011,186.344006 29.664,185.144 C29.4479989,183.943994 29.34,182.696006 29.34,181.4 C29.34,179.863992 29.5319981,178.364007 29.916,176.9 C30.3000019,175.435993 30.8819961,174.050007 31.662,172.742 C32.4420039,171.433993 33.533993,170.378004 34.938,169.574 C36.342007,168.769996 37.9679908,168.368 39.816,168.368 C42.024011,168.368 43.8599927,168.853995 45.324,169.826 C46.7880073,170.798005 47.8079971,171.979993 48.384,173.372 L44.964,174.956 C44.3159968,173.923995 43.6020039,173.168002 42.822,172.688 C42.0419961,172.207998 41.0400061,171.968 39.816,171.968 C38.615994,171.968 37.5720044,172.255997 36.684,172.832 C35.7959956,173.408003 35.1120024,174.175995 34.632,175.136 C34.1519976,176.096005 33.7980011,177.097995 33.57,178.142 C33.3419989,179.186005 33.228,180.271994 33.228,181.4 C33.228,183.896012 33.7919944,186.091991 34.92,187.988 C36.0480056,189.884009 37.6799893,190.832 39.816,190.832 C41.9280106,190.832 43.6319935,189.752011 44.928,187.592 L48.42,188.924 C46.8359921,192.596018 43.9680208,194.432 39.816,194.432 Z M53.82,194 L53.82,168.8 L57.564,168.8 L57.564,194 L53.82,194 Z M73.8,194.432 C72.2879924,194.432 70.9260061,194.180003 69.714,193.676 C68.5019939,193.171997 67.5060039,192.500004 66.726,191.66 C65.9459961,190.819996 65.2920026,189.824006 64.764,188.672 C64.2359974,187.519994 63.8640011,186.344006 63.648,185.144 C63.4319989,183.943994 63.324,182.696006 63.324,181.4 C63.324,179.863992 63.5159981,178.364007 63.9,176.9 C64.2840019,175.435993 64.8659961,174.050007 65.646,172.742 C66.4260039,171.433993 67.517993,170.378004 68.922,169.574 C70.326007,168.769996 71.9519908,168.368 73.8,168.368 C76.008011,168.368 77.8439927,168.853995 79.308,169.826 C80.7720073,170.798005 81.7919971,171.979993 82.368,173.372 L78.948,174.956 C78.2999968,173.923995 77.5860039,173.168002 76.806,172.688 C76.0259961,172.207998 75.0240061,171.968 73.8,171.968 C72.599994,171.968 71.5560044,172.255997 70.668,172.832 C69.7799956,173.408003 69.0960024,174.175995 68.616,175.136 C68.1359976,176.096005 67.7820011,177.097995 67.554,178.142 C67.3259989,179.186005 67.212,180.271994 67.212,181.4 C67.212,183.896012 67.7759944,186.091991 68.904,187.988 C70.0320056,189.884009 71.6639893,190.832 73.8,190.832 C75.9120106,190.832 77.6159935,189.752011 78.912,187.592 L82.404,188.924 C80.8199921,192.596018 77.9520208,194.432 73.8,194.432 Z" id="CIC" fill="#848484" mask="url(#mask-2)"></path>
                <path d="M49.32,247 L45.792,247 L34.884,229.9 C34.5479983,229.371997 34.2120017,228.748004 33.876,228.028 C33.9480004,229.180006 33.984,229.804 33.984,229.9 L33.984,247 L30.24,247 L30.24,221.8 L34.02,221.8 L44.64,238.612 C44.9040013,239.044002 45.2519978,239.691996 45.684,240.556 C45.6119996,239.835996 45.576,239.200003 45.576,238.648 L45.576,221.8 L49.32,221.8 L49.32,247 Z M65.772,247 L65.772,245.416 C64.4759935,246.760007 62.7960103,247.432 60.732,247.432 C58.7879903,247.432 57.2100061,246.898005 55.998,245.83 C54.7859939,244.761995 54.18,243.24401 54.18,241.276 C54.18,239.28399 54.8639932,237.772005 56.232,236.74 C57.6000068,235.707995 59.2679902,235.192 61.236,235.192 C63.036009,235.192 64.5479939,235.551996 65.772,236.272 L65.772,235.264 C65.772,233.895993 65.4600031,232.924003 64.836,232.348 C64.2119969,231.771997 63.2160068,231.484 61.848,231.484 C59.8319899,231.484 58.0800074,232.035994 56.592,233.14 L55.476,230.08 C57.3240092,228.807994 59.6159863,228.172 62.352,228.172 C63.2640046,228.172 64.0799964,228.249999 64.8,228.406 C65.5200036,228.562001 66.2519963,228.861998 66.996,229.306 C67.7400037,229.750002 68.3219979,230.463995 68.742,231.448 C69.1620021,232.432005 69.372,233.643993 69.372,235.084 L69.372,247 L65.772,247 Z M61.416,244.12 C63.1440086,244.12 64.5959941,243.460007 65.772,242.14 L65.772,239.332 C64.6439944,238.731997 63.3360074,238.432 61.848,238.432 C60.647994,238.432 59.6700038,238.665998 58.914,239.134 C58.1579962,239.602002 57.78,240.315995 57.78,241.276 C57.78,242.164004 58.0919969,242.859997 58.716,243.364 C59.3400031,243.868003 60.2399941,244.12 61.416,244.12 Z M96.012,247 L96.012,235.984 C96.012,233.127986 94.8840113,231.7 92.628,231.7 C91.5719947,231.7 90.6960035,232.089996 90,232.87 C89.3039965,233.650004 88.956,234.747993 88.956,236.164 L88.956,247 L85.212,247 L85.212,235.984 C85.212,233.127986 84.0840113,231.7 81.828,231.7 C80.7719947,231.7 79.8960035,232.089996 79.2,232.87 C78.5039965,233.650004 78.156,234.747993 78.156,236.164 L78.156,247 L74.412,247 L74.412,228.604 L78.156,228.604 L78.156,230.296 C79.1400049,228.879993 80.6879894,228.172 82.8,228.172 C85.0800114,228.172 86.7119951,229.047991 87.696,230.8 C88.8240056,229.047991 90.6359875,228.172 93.132,228.172 C95.12401,228.172 96.7259939,228.747994 97.938,229.9 C99.1500061,231.052006 99.756,232.791988 99.756,235.12 L99.756,247 L96.012,247 Z M112.104,247.432 C109.631988,247.432 107.676007,246.580009 106.236,244.876 C104.795993,243.171991 104.076,240.820015 104.076,237.82 C104.076,234.819985 104.795993,232.462009 106.236,230.746 C107.676007,229.029991 109.631988,228.172 112.104,228.172 C115.680018,228.172 117.995995,229.755984 119.052,232.924 L115.488,234.148 C114.887997,232.563992 113.808008,231.772 112.248,231.772 C110.855993,231.772 109.782004,232.305995 109.026,233.374 C108.269996,234.442005 107.892,235.923991 107.892,237.82 C107.892,239.692009 108.263996,241.161995 109.008,242.23 C109.752004,243.298005 110.783993,243.832 112.104,243.832 C113.880009,243.832 115.031997,242.932009 115.56,241.132 L119.124,242.248 C118.139995,245.704017 115.800018,247.432 112.104,247.432 Z M137.268,244.876 C135.755992,246.580009 133.704013,247.432 131.112,247.432 C128.519987,247.432 126.474007,246.580009 124.974,244.876 C123.473993,243.171991 122.724,240.820015 122.724,237.82 C122.724,234.819985 123.473993,232.462009 124.974,230.746 C126.474007,229.029991 128.519987,228.172 131.112,228.172 C133.704013,228.172 135.755992,229.029991 137.268,230.746 C138.780008,232.462009 139.536,234.819985 139.536,237.82 C139.536,240.820015 138.780008,243.171991 137.268,244.876 Z M131.112,243.904 C132.552007,243.904 133.691996,243.364005 134.532,242.284 C135.372004,241.203995 135.792,239.716009 135.792,237.82 C135.792,235.923991 135.372004,234.430005 134.532,233.338 C133.691996,232.245995 132.552007,231.7 131.112,231.7 C129.695993,231.7 128.568004,232.245995 127.728,233.338 C126.887996,234.430005 126.468,235.923991 126.468,237.82 C126.468,239.692009 126.887996,241.173995 127.728,242.266 C128.568004,243.358005 129.695993,243.904 131.112,243.904 Z M153.216,221.8 L162.756,221.8 C165.540014,221.8 167.561994,222.435994 168.822,223.708 C170.082006,224.980006 170.712,226.58799 170.712,228.532 C170.712,229.612005 170.418003,230.613995 169.83,231.538 C169.241997,232.462005 168.384006,233.199997 167.256,233.752 C168.744007,234.280003 169.841996,235.071995 170.55,236.128 C171.258004,237.184005 171.612,238.347994 171.612,239.62 C171.612,240.532005 171.462002,241.401996 171.162,242.23 C170.861999,243.058004 170.400003,243.837996 169.776,244.57 C169.151997,245.302004 168.282006,245.889998 167.166,246.334 C166.049994,246.778002 164.760007,247 163.296,247 L153.216,247 L153.216,221.8 Z M162.144,232.204 C163.680008,232.204 164.855996,231.886003 165.672,231.25 C166.488004,230.613997 166.896,229.768005 166.896,228.712 C166.896,226.407988 165.552013,225.256 162.864,225.256 L156.96,225.256 L156.96,232.204 L162.144,232.204 Z M163.584,243.544 C165.096008,243.544 166.175997,243.184004 166.824,242.464 C167.472003,241.743996 167.796,240.856005 167.796,239.8 C167.796,237.039986 166.032018,235.66 162.504,235.66 L156.96,235.66 L156.96,243.544 L163.584,243.544 Z M187.164,247 L187.164,245.416 C185.867994,246.760007 184.18801,247.432 182.124,247.432 C180.17999,247.432 178.602006,246.898005 177.39,245.83 C176.177994,244.761995 175.572,243.24401 175.572,241.276 C175.572,239.28399 176.255993,237.772005 177.624,236.74 C178.992007,235.707995 180.65999,235.192 182.628,235.192 C184.428009,235.192 185.939994,235.551996 187.164,236.272 L187.164,235.264 C187.164,233.895993 186.852003,232.924003 186.228,232.348 C185.603997,231.771997 184.608007,231.484 183.24,231.484 C181.22399,231.484 179.472007,232.035994 177.984,233.14 L176.868,230.08 C178.716009,228.807994 181.007986,228.172 183.744,228.172 C184.656005,228.172 185.471996,228.249999 186.192,228.406 C186.912004,228.562001 187.643996,228.861998 188.388,229.306 C189.132004,229.750002 189.713998,230.463995 190.134,231.448 C190.554002,232.432005 190.764,233.643993 190.764,235.084 L190.764,247 L187.164,247 Z M182.808,244.12 C184.536009,244.12 185.987994,243.460007 187.164,242.14 L187.164,239.332 C186.035994,238.731997 184.728007,238.432 183.24,238.432 C182.039994,238.432 181.062004,238.665998 180.306,239.134 C179.549996,239.602002 179.172,240.315995 179.172,241.276 C179.172,242.164004 179.483997,242.859997 180.108,243.364 C180.732003,243.868003 181.631994,244.12 182.808,244.12 Z M207.18,247 L207.18,236.02 C207.18,234.555993 206.844003,233.470004 206.172,232.762 C205.499997,232.053996 204.612006,231.7 203.508,231.7 C200.867987,231.7 199.548,233.115986 199.548,235.948 L199.548,247 L195.804,247 L195.804,228.604 L199.548,228.604 L199.548,230.368 C200.700006,228.903993 202.28399,228.172 204.3,228.172 C208.716022,228.172 210.924,230.787974 210.924,236.02 L210.924,247 L207.18,247 Z M222.876,247.432 C220.547988,247.432 218.694007,246.574009 217.314,244.858 C215.933993,243.141991 215.244,240.784015 215.244,237.784 C215.244,234.807985 215.945993,232.462009 217.35,230.746 C218.754007,229.029991 220.595989,228.172 222.876,228.172 C224.676009,228.172 226.127994,228.747994 227.232,229.9 L227.232,222.736 L230.976,221.008 L230.976,247 L227.232,247 L227.232,245.704 C226.199995,246.856006 224.748009,247.432 222.876,247.432 Z M223.416,243.904 C225.096008,243.904 226.367996,243.208007 227.232,241.816 L227.232,233.716 C226.895998,233.163997 226.398003,232.690002 225.738,232.294 C225.077997,231.897998 224.304004,231.7 223.416,231.7 C221.999993,231.7 220.908004,232.227995 220.14,233.284 C219.371996,234.340005 218.988,235.83999 218.988,237.784 C218.988,239.608009 219.383996,241.083994 220.176,242.212 C220.968004,243.340006 222.047993,243.904 223.416,243.904 Z M246.888,247 L246.888,245.416 C245.591994,246.760007 243.91201,247.432 241.848,247.432 C239.90399,247.432 238.326006,246.898005 237.114,245.83 C235.901994,244.761995 235.296,243.24401 235.296,241.276 C235.296,239.28399 235.979993,237.772005 237.348,236.74 C238.716007,235.707995 240.38399,235.192 242.352,235.192 C244.152009,235.192 245.663994,235.551996 246.888,236.272 L246.888,235.264 C246.888,233.895993 246.576003,232.924003 245.952,232.348 C245.327997,231.771997 244.332007,231.484 242.964,231.484 C240.94799,231.484 239.196007,232.035994 237.708,233.14 L236.592,230.08 C238.440009,228.807994 240.731986,228.172 243.468,228.172 C244.380005,228.172 245.195996,228.249999 245.916,228.406 C246.636004,228.562001 247.367996,228.861998 248.112,229.306 C248.856004,229.750002 249.437998,230.463995 249.858,231.448 C250.278002,232.432005 250.488,233.643993 250.488,235.084 L250.488,247 L246.888,247 Z M242.532,244.12 C244.260009,244.12 245.711994,243.460007 246.888,242.14 L246.888,239.332 C245.759994,238.731997 244.452007,238.432 242.964,238.432 C241.763994,238.432 240.786004,238.665998 240.03,239.134 C239.273996,239.602002 238.896,240.315995 238.896,241.276 C238.896,242.164004 239.207997,242.859997 239.832,243.364 C240.456003,243.868003 241.355994,244.12 242.532,244.12 Z M259.02,225.076 C258.587998,225.508002 258.060003,225.724 257.436,225.724 C256.811997,225.724 256.278002,225.502002 255.834,225.058 C255.389998,224.613998 255.168,224.080003 255.168,223.456 C255.168,222.831997 255.389998,222.298002 255.834,221.854 C256.278002,221.409998 256.811997,221.188 257.436,221.188 C258.060003,221.188 258.593998,221.409998 259.038,221.854 C259.482002,222.298002 259.704,222.831997 259.704,223.456 C259.704,224.080003 259.476002,224.619998 259.02,225.076 Z M255.564,247 L255.564,228.604 L259.308,228.604 L259.308,247 L255.564,247 Z" id="Namco-Bandai" fill="#848484" mask="url(#mask-2)"></path>
                <path d="M53.704,301 L49.96,301 L49.96,287.212 C49.96,285.387991 50.0199994,284.032004 50.14,283.144 C49.5879972,284.776008 49.0720024,286.167994 48.592,287.32 L42.508,301.432 L36.388,287.212 C35.7399968,285.747993 35.212002,284.392006 34.804,283.144 C34.9240006,284.032004 34.984,285.387991 34.984,287.212 L34.984,301 L31.24,301 L31.24,275.8 L35.02,275.8 L41.788,291.532 C42.0280012,292.108003 42.2559989,292.767996 42.472,293.512 C42.6400008,292.983997 42.8799984,292.324004 43.192,291.532 L49.924,275.8 L53.704,275.8 L53.704,301 Z M70.156,301 L70.156,299.416 C68.8599935,300.760007 67.1800103,301.432 65.116,301.432 C63.1719903,301.432 61.5940061,300.898005 60.382,299.83 C59.1699939,298.761995 58.564,297.24401 58.564,295.276 C58.564,293.28399 59.2479932,291.772005 60.616,290.74 C61.9840068,289.707995 63.6519902,289.192 65.62,289.192 C67.420009,289.192 68.9319939,289.551996 70.156,290.272 L70.156,289.264 C70.156,287.895993 69.8440031,286.924003 69.22,286.348 C68.5959969,285.771997 67.6000068,285.484 66.232,285.484 C64.2159899,285.484 62.4640074,286.035994 60.976,287.14 L59.86,284.08 C61.7080092,282.807994 63.9999863,282.172 66.736,282.172 C67.6480046,282.172 68.4639964,282.249999 69.184,282.406 C69.9040036,282.562001 70.6359963,282.861998 71.38,283.306 C72.1240037,283.750002 72.7059979,284.463995 73.126,285.448 C73.5460021,286.432005 73.756,287.643993 73.756,289.084 L73.756,301 L70.156,301 Z M65.8,298.12 C67.5280086,298.12 68.9799941,297.460007 70.156,296.14 L70.156,293.332 C69.0279944,292.731997 67.7200074,292.432 66.232,292.432 C65.031994,292.432 64.0540038,292.665998 63.298,293.134 C62.5419962,293.602002 62.164,294.315995 62.164,295.276 C62.164,296.164004 62.4759969,296.859997 63.1,297.364 C63.7240031,297.868003 64.6239941,298.12 65.8,298.12 Z M78.796,301 L78.796,282.604 L82.54,282.604 L82.54,284.836 C83.3560041,283.059991 84.7239904,282.172 86.644,282.172 C87.844006,282.172 88.8759957,282.543996 89.74,283.288 L89.2,286.744 C88.3119956,286.143997 87.3400053,285.844 86.284,285.844 C85.275995,285.844 84.4000037,286.221996 83.656,286.978 C82.9119963,287.734004 82.54,288.963991 82.54,290.668 L82.54,301 L78.796,301 Z M103.6,301 L103.6,299.416 C102.303994,300.760007 100.62401,301.432 98.56,301.432 C96.6159903,301.432 95.0380061,300.898005 93.826,299.83 C92.6139939,298.761995 92.008,297.24401 92.008,295.276 C92.008,293.28399 92.6919932,291.772005 94.06,290.74 C95.4280068,289.707995 97.0959902,289.192 99.064,289.192 C100.864009,289.192 102.375994,289.551996 103.6,290.272 L103.6,289.264 C103.6,287.895993 103.288003,286.924003 102.664,286.348 C102.039997,285.771997 101.044007,285.484 99.676,285.484 C97.6599899,285.484 95.9080074,286.035994 94.42,287.14 L93.304,284.08 C95.1520092,282.807994 97.4439863,282.172 100.18,282.172 C101.092005,282.172 101.907996,282.249999 102.628,282.406 C103.348004,282.562001 104.079996,282.861998 104.824,283.306 C105.568004,283.750002 106.149998,284.463995 106.57,285.448 C106.990002,286.432005 107.2,287.643993 107.2,289.084 L107.2,301 L103.6,301 Z M99.244,298.12 C100.972009,298.12 102.423994,297.460007 103.6,296.14 L103.6,293.332 C102.471994,292.731997 101.164007,292.432 99.676,292.432 C98.475994,292.432 97.4980038,292.665998 96.742,293.134 C95.9859962,293.602002 95.608,294.315995 95.608,295.276 C95.608,296.164004 95.9199969,296.859997 96.544,297.364 C97.1680031,297.868003 98.0679941,298.12 99.244,298.12 Z M133.84,301 L133.84,289.984 C133.84,287.127986 132.712011,285.7 130.456,285.7 C129.399995,285.7 128.524003,286.089996 127.828,286.87 C127.131997,287.650004 126.784,288.747993 126.784,290.164 L126.784,301 L123.04,301 L123.04,289.984 C123.04,287.127986 121.912011,285.7 119.656,285.7 C118.599995,285.7 117.724003,286.089996 117.028,286.87 C116.331997,287.650004 115.984,288.747993 115.984,290.164 L115.984,301 L112.24,301 L112.24,282.604 L115.984,282.604 L115.984,284.296 C116.968005,282.879993 118.515989,282.172 120.628,282.172 C122.908011,282.172 124.539995,283.047991 125.524,284.8 C126.652006,283.047991 128.463988,282.172 130.96,282.172 C132.95201,282.172 134.553994,282.747994 135.766,283.9 C136.978006,285.052006 137.584,286.791988 137.584,289.12 L137.584,301 L133.84,301 Z M151.984,301 L151.984,275.8 L162.1,275.8 C164.956014,275.8 167.055993,276.543993 168.4,278.032 C169.744007,279.520007 170.416,281.343989 170.416,283.504 C170.416,285.52001 169.720007,287.307992 168.328,288.868 C166.935993,290.428008 164.860014,291.208 162.1,291.208 L155.728,291.208 L155.728,301 L151.984,301 Z M162.316,287.608 C163.756007,287.608 164.817997,287.206004 165.502,286.402 C166.186003,285.597996 166.528,284.632006 166.528,283.504 C166.528,282.423995 166.198003,281.470004 165.538,280.642 C164.877997,279.813996 163.804007,279.4 162.316,279.4 L155.728,279.4 L155.728,287.608 L162.316,287.608 Z M184.708,301 L184.708,299.416 C183.411994,300.760007 181.73201,301.432 179.668,301.432 C177.72399,301.432 176.146006,300.898005 174.934,299.83 C173.721994,298.761995 173.116,297.24401 173.116,295.276 C173.116,293.28399 173.799993,291.772005 175.168,290.74 C176.536007,289.707995 178.20399,289.192 180.172,289.192 C181.972009,289.192 183.483994,289.551996 184.708,290.272 L184.708,289.264 C184.708,287.895993 184.396003,286.924003 183.772,286.348 C183.147997,285.771997 182.152007,285.484 180.784,285.484 C178.76799,285.484 177.016007,286.035994 175.528,287.14 L174.412,284.08 C176.260009,282.807994 178.551986,282.172 181.288,282.172 C182.200005,282.172 183.015996,282.249999 183.736,282.406 C184.456004,282.562001 185.187996,282.861998 185.932,283.306 C186.676004,283.750002 187.257998,284.463995 187.678,285.448 C188.098002,286.432005 188.308,287.643993 188.308,289.084 L188.308,301 L184.708,301 Z M180.352,298.12 C182.080009,298.12 183.531994,297.460007 184.708,296.14 L184.708,293.332 C183.579994,292.731997 182.272007,292.432 180.784,292.432 C179.583994,292.432 178.606004,292.665998 177.85,293.134 C177.093996,293.602002 176.716,294.315995 176.716,295.276 C176.716,296.164004 177.027997,296.859997 177.652,297.364 C178.276003,297.868003 179.175994,298.12 180.352,298.12 Z M193.348,301 L193.348,282.604 L197.092,282.604 L197.092,284.836 C197.908004,283.059991 199.27599,282.172 201.196,282.172 C202.396006,282.172 203.427996,282.543996 204.292,283.288 L203.752,286.744 C202.863996,286.143997 201.892005,285.844 200.836,285.844 C199.827995,285.844 198.952004,286.221996 198.208,286.978 C197.463996,287.734004 197.092,288.963991 197.092,290.668 L197.092,301 L193.348,301 Z M211.132,279.076 C210.699998,279.508002 210.172003,279.724 209.548,279.724 C208.923997,279.724 208.390002,279.502002 207.946,279.058 C207.501998,278.613998 207.28,278.080003 207.28,277.456 C207.28,276.831997 207.501998,276.298002 207.946,275.854 C208.390002,275.409998 208.923997,275.188 209.548,275.188 C210.172003,275.188 210.705998,275.409998 211.15,275.854 C211.594002,276.298002 211.816,276.831997 211.816,277.456 C211.816,278.080003 211.588002,278.619998 211.132,279.076 Z M207.676,301 L207.676,282.604 L211.42,282.604 L211.42,301 L207.676,301 Z M222.544,301.432 C221.103993,301.432 219.748006,301.162003 218.476,300.622 C217.203994,300.081997 216.244003,299.356005 215.596,298.444 L218.26,296.176 C219.580007,297.424006 220.983993,298.048 222.472,298.048 C224.632011,298.048 225.712,297.388007 225.712,296.068 C225.712,295.611998 225.508002,295.192002 225.1,294.808 C224.691998,294.423998 224.284002,294.142001 223.876,293.962 C223.467998,293.781999 222.808005,293.512002 221.896,293.152 C219.87999,292.479997 218.398005,291.688005 217.45,290.776 C216.501995,289.863995 216.028,288.688007 216.028,287.248 C216.028,285.663992 216.633994,284.422005 217.846,283.522 C219.058006,282.621996 220.587991,282.172 222.436,282.172 C225.196014,282.172 227.343992,283.095991 228.88,284.944 L226.18,287.104 C225.195995,286.071995 223.948008,285.556 222.436,285.556 C221.643996,285.556 221.014002,285.705999 220.546,286.006 C220.077998,286.306001 219.844,286.719997 219.844,287.248 C219.844,287.800003 220.125997,288.249998 220.69,288.598 C221.254003,288.946002 222.159994,289.359998 223.408,289.84 C225.49601,290.536003 227.025995,291.351995 227.998,292.288 C228.970005,293.224005 229.456,294.483992 229.456,296.068 C229.456,297.796009 228.838006,299.121995 227.602,300.046 C226.365994,300.970005 224.680011,301.432 222.544,301.432 Z" id="Maram-Paris" fill="#848484" mask="url(#mask-2)"></path>
                <path d="M39.816,354.432 C38.3039924,354.432 36.9420061,354.180003 35.73,353.676 C34.5179939,353.171997 33.5220039,352.500004 32.742,351.66 C31.9619961,350.819996 31.3080026,349.824006 30.78,348.672 C30.2519974,347.519994 29.8800011,346.344006 29.664,345.144 C29.4479989,343.943994 29.34,342.696006 29.34,341.4 C29.34,339.863992 29.5319981,338.364007 29.916,336.9 C30.3000019,335.435993 30.8819961,334.050007 31.662,332.742 C32.4420039,331.433993 33.533993,330.378004 34.938,329.574 C36.342007,328.769996 37.9679908,328.368 39.816,328.368 C42.024011,328.368 43.8599927,328.853995 45.324,329.826 C46.7880073,330.798005 47.8079971,331.979993 48.384,333.372 L44.964,334.956 C44.3159968,333.923995 43.6020039,333.168002 42.822,332.688 C42.0419961,332.207998 41.0400061,331.968 39.816,331.968 C38.615994,331.968 37.5720044,332.255997 36.684,332.832 C35.7959956,333.408003 35.1120024,334.175995 34.632,335.136 C34.1519976,336.096005 33.7980011,337.097995 33.57,338.142 C33.3419989,339.186005 33.228,340.271994 33.228,341.4 C33.228,343.896012 33.7919944,346.091991 34.92,347.988 C36.0480056,349.884009 37.6799893,350.832 39.816,350.832 C41.9280106,350.832 43.6319935,349.752011 44.928,347.592 L48.42,348.924 C46.8359921,352.596018 43.9680208,354.432 39.816,354.432 Z M53.1,354 L53.1,329.736 L56.844,328.008 L56.844,337.368 C57.9960058,335.903993 59.5799899,335.172 61.596,335.172 C66.0120221,335.172 68.22,337.787974 68.22,343.02 L68.22,354 L64.476,354 L64.476,343.02 C64.476,341.555993 64.1400034,340.470004 63.468,339.762 C62.7959966,339.053996 61.9080055,338.7 60.804,338.7 C58.1639868,338.7 56.844,340.115986 56.844,342.948 L56.844,354 L53.1,354 Z M83.952,354 L83.952,352.416 C82.6559935,353.760007 80.9760103,354.432 78.912,354.432 C76.9679903,354.432 75.3900061,353.898005 74.178,352.83 C72.9659939,351.761995 72.36,350.24401 72.36,348.276 C72.36,346.28399 73.0439932,344.772005 74.412,343.74 C75.7800068,342.707995 77.4479902,342.192 79.416,342.192 C81.216009,342.192 82.7279939,342.551996 83.952,343.272 L83.952,342.264 C83.952,340.895993 83.6400031,339.924003 83.016,339.348 C82.3919969,338.771997 81.3960068,338.484 80.028,338.484 C78.0119899,338.484 76.2600074,339.035994 74.772,340.14 L73.656,337.08 C75.5040092,335.807994 77.7959863,335.172 80.532,335.172 C81.4440046,335.172 82.2599964,335.249999 82.98,335.406 C83.7000036,335.562001 84.4319963,335.861998 85.176,336.306 C85.9200037,336.750002 86.5019979,337.463995 86.922,338.448 C87.3420021,339.432005 87.552,340.643993 87.552,342.084 L87.552,354 L83.952,354 Z M79.596,351.12 C81.3240086,351.12 82.7759941,350.460007 83.952,349.14 L83.952,346.332 C82.8239944,345.731997 81.5160074,345.432 80.028,345.432 C78.827994,345.432 77.8500038,345.665998 77.094,346.134 C76.3379962,346.602002 75.96,347.315995 75.96,348.276 C75.96,349.164004 76.2719969,349.859997 76.896,350.364 C77.5200031,350.868003 78.4199941,351.12 79.596,351.12 Z M114.192,354 L114.192,342.984 C114.192,340.127986 113.064011,338.7 110.808,338.7 C109.751995,338.7 108.876003,339.089996 108.18,339.87 C107.483997,340.650004 107.136,341.747993 107.136,343.164 L107.136,354 L103.392,354 L103.392,342.984 C103.392,340.127986 102.264011,338.7 100.008,338.7 C98.9519947,338.7 98.0760035,339.089996 97.38,339.87 C96.6839965,340.650004 96.336,341.747993 96.336,343.164 L96.336,354 L92.592,354 L92.592,335.604 L96.336,335.604 L96.336,337.296 C97.3200049,335.879993 98.8679894,335.172 100.98,335.172 C103.260011,335.172 104.891995,336.047991 105.876,337.8 C107.004006,336.047991 108.815988,335.172 111.312,335.172 C113.30401,335.172 114.905994,335.747994 116.118,336.9 C117.330006,338.052006 117.936,339.791988 117.936,342.12 L117.936,354 L114.192,354 Z M131.256,354.432 C129.503991,354.432 128.052006,353.796006 126.9,352.524 L126.9,354 L123.156,354 L123.156,329.736 L126.9,328.008 L126.9,337.008 C128.004006,335.783994 129.455991,335.172 131.256,335.172 C133.536011,335.172 135.377993,336.029991 136.782,337.746 C138.186007,339.462009 138.888,341.807985 138.888,344.784 C138.888,347.856015 138.210007,350.231992 136.854,351.912 C135.497993,353.592008 133.632012,354.432 131.256,354.432 Z M130.788,350.904 C132.180007,350.904 133.253996,350.358005 134.01,349.266 C134.766004,348.173995 135.144,346.680009 135.144,344.784 C135.144,342.81599 134.772004,341.310005 134.028,340.266 C133.283996,339.221995 132.204007,338.7 130.788,338.7 C129.923996,338.7 129.144003,338.909998 128.448,339.33 C127.751997,339.750002 127.236002,340.235997 126.9,340.788 L126.9,348.816 C127.764004,350.208007 129.059991,350.904 130.788,350.904 Z M143.388,354 L143.388,335.604 L147.132,335.604 L147.132,337.836 C147.948004,336.059991 149.31599,335.172 151.236,335.172 C152.436006,335.172 153.467996,335.543996 154.332,336.288 L153.792,339.744 C152.903996,339.143997 151.932005,338.844 150.876,338.844 C149.867995,338.844 148.992004,339.221996 148.248,339.978 C147.503996,340.734004 147.132,341.963991 147.132,343.668 L147.132,354 L143.388,354 Z M165.132,354.432 C162.563987,354.432 160.530008,353.574009 159.03,351.858 C157.529993,350.141991 156.78,347.784015 156.78,344.784 C156.78,341.783985 157.535992,339.432009 159.048,337.728 C160.560008,336.023991 162.587987,335.172 165.132,335.172 C167.436012,335.172 169.331993,335.903993 170.82,337.368 C172.308007,338.832007 173.052,340.967986 173.052,343.776 C173.052,344.808005 173.004,345.611997 172.908,346.188 L160.524,346.188 C160.548,347.652007 161.021995,348.839995 161.946,349.752 C162.870005,350.664005 163.943994,351.12 165.168,351.12 C166.752008,351.12 168.023995,350.496006 168.984,349.248 L171.432,351.768 C169.943993,353.544009 167.844014,354.432 165.132,354.432 Z M160.524,343.164 L169.308,343.164 C169.284,341.579992 168.864004,340.404004 168.048,339.636 C167.231996,338.867996 166.260006,338.484 165.132,338.484 C163.859994,338.484 162.798004,338.861996 161.946,339.618 C161.093996,340.374004 160.62,341.555992 160.524,343.164 Z M192.744,354.432 C190.415988,354.432 188.562007,353.574009 187.182,351.858 C185.801993,350.141991 185.112,347.784015 185.112,344.784 C185.112,341.807985 185.813993,339.462009 187.218,337.746 C188.622007,336.029991 190.463989,335.172 192.744,335.172 C194.544009,335.172 195.995994,335.747994 197.1,336.9 L197.1,329.736 L200.844,328.008 L200.844,354 L197.1,354 L197.1,352.704 C196.067995,353.856006 194.616009,354.432 192.744,354.432 Z M193.284,350.904 C194.964008,350.904 196.235996,350.208007 197.1,348.816 L197.1,340.716 C196.763998,340.163997 196.266003,339.690002 195.606,339.294 C194.945997,338.897998 194.172004,338.7 193.284,338.7 C191.867993,338.7 190.776004,339.227995 190.008,340.284 C189.239996,341.340005 188.856,342.83999 188.856,344.784 C188.856,346.608009 189.251996,348.083994 190.044,349.212 C190.836004,350.340006 191.915993,350.904 193.284,350.904 Z M217.44,354 L217.44,352.236 C216.287994,353.700007 214.70401,354.432 212.688,354.432 C208.271978,354.432 206.064,351.816026 206.064,346.584 L206.064,335.604 L209.808,335.604 L209.808,346.584 C209.808,348.048007 210.143997,349.133996 210.816,349.842 C211.488003,350.550004 212.375994,350.904 213.48,350.904 C216.120013,350.904 217.44,349.488014 217.44,346.656 L217.44,335.604 L221.184,335.604 L221.184,354 L217.44,354 Z M245.34,354.432 C243.827992,354.432 242.466006,354.180003 241.254,353.676 C240.041994,353.171997 239.046004,352.500004 238.266,351.66 C237.485996,350.819996 236.832003,349.824006 236.304,348.672 C235.775997,347.519994 235.404001,346.344006 235.188,345.144 C234.971999,343.943994 234.864,342.696006 234.864,341.4 C234.864,339.863992 235.055998,338.364007 235.44,336.9 C235.824002,335.435993 236.405996,334.050007 237.186,332.742 C237.966004,331.433993 239.057993,330.378004 240.462,329.574 C241.866007,328.769996 243.491991,328.368 245.34,328.368 C247.548011,328.368 249.383993,328.853995 250.848,329.826 C252.312007,330.798005 253.331997,331.979993 253.908,333.372 L250.488,334.956 C249.839997,333.923995 249.126004,333.168002 248.346,332.688 C247.565996,332.207998 246.564006,331.968 245.34,331.968 C244.139994,331.968 243.096004,332.255997 242.208,332.832 C241.319996,333.408003 240.636002,334.175995 240.156,335.136 C239.675998,336.096005 239.322001,337.097995 239.094,338.142 C238.865999,339.186005 238.752,340.271994 238.752,341.4 C238.752,343.896012 239.315994,346.091991 240.444,347.988 C241.572006,349.884009 243.203989,350.832 245.34,350.832 C247.452011,350.832 249.155994,349.752011 250.452,347.592 L253.944,348.924 C252.359992,352.596018 249.492021,354.432 245.34,354.432 Z M272.268,351.876 C270.755992,353.580009 268.704013,354.432 266.112,354.432 C263.519987,354.432 261.474008,353.580009 259.974,351.876 C258.473993,350.171991 257.724,347.820015 257.724,344.82 C257.724,341.819985 258.473993,339.462009 259.974,337.746 C261.474008,336.029991 263.519987,335.172 266.112,335.172 C268.704013,335.172 270.755992,336.029991 272.268,337.746 C273.780008,339.462009 274.536,341.819985 274.536,344.82 C274.536,347.820015 273.780008,350.171991 272.268,351.876 Z M266.112,350.904 C267.552007,350.904 268.691996,350.364005 269.532,349.284 C270.372004,348.203995 270.792,346.716009 270.792,344.82 C270.792,342.923991 270.372004,341.430005 269.532,340.338 C268.691996,339.245995 267.552007,338.7 266.112,338.7 C264.695993,338.7 263.568004,339.245995 262.728,340.338 C261.887996,341.430005 261.468,342.923991 261.468,344.82 C261.468,346.692009 261.887996,348.173995 262.728,349.266 C263.568004,350.358005 264.695993,350.904 266.112,350.904 Z M300.636,354 L300.636,342.984 C300.636,340.127986 299.508011,338.7 297.252,338.7 C296.195995,338.7 295.320003,339.089996 294.624,339.87 C293.927997,340.650004 293.58,341.747993 293.58,343.164 L293.58,354 L289.836,354 L289.836,342.984 C289.836,340.127986 288.708011,338.7 286.452,338.7 C285.395995,338.7 284.520003,339.089996 283.824,339.87 C283.127997,340.650004 282.78,341.747993 282.78,343.164 L282.78,354 L279.036,354 L279.036,335.604 L282.78,335.604 L282.78,337.296 C283.764005,335.879993 285.311989,335.172 287.424,335.172 C289.704011,335.172 291.335995,336.047991 292.32,337.8 C293.448006,336.047991 295.259988,335.172 297.756,335.172 C299.74801,335.172 301.349994,335.747994 302.562,336.9 C303.774006,338.052006 304.38,339.791988 304.38,342.12 L304.38,354 L300.636,354 Z M331.2,354 L331.2,342.984 C331.2,340.127986 330.072011,338.7 327.816,338.7 C326.759995,338.7 325.884003,339.089996 325.188,339.87 C324.491997,340.650004 324.144,341.747993 324.144,343.164 L324.144,354 L320.4,354 L320.4,342.984 C320.4,340.127986 319.272011,338.7 317.016,338.7 C315.959995,338.7 315.084003,339.089996 314.388,339.87 C313.691997,340.650004 313.344,341.747993 313.344,343.164 L313.344,354 L309.6,354 L309.6,335.604 L313.344,335.604 L313.344,337.296 C314.328005,335.879993 315.875989,335.172 317.988,335.172 C320.268011,335.172 321.899995,336.047991 322.884,337.8 C324.012006,336.047991 325.823988,335.172 328.32,335.172 C330.31201,335.172 331.913994,335.747994 333.126,336.9 C334.338006,338.052006 334.944,339.791988 334.944,342.12 L334.944,354 L331.2,354 Z M347.616,354.432 C345.047987,354.432 343.014008,353.574009 341.514,351.858 C340.013993,350.141991 339.264,347.784015 339.264,344.784 C339.264,341.783985 340.019992,339.432009 341.532,337.728 C343.044008,336.023991 345.071987,335.172 347.616,335.172 C349.920012,335.172 351.815993,335.903993 353.304,337.368 C354.792007,338.832007 355.536,340.967986 355.536,343.776 C355.536,344.808005 355.488,345.611997 355.392,346.188 L343.008,346.188 C343.032,347.652007 343.505995,348.839995 344.43,349.752 C345.354005,350.664005 346.427994,351.12 347.652,351.12 C349.236008,351.12 350.507995,350.496006 351.468,349.248 L353.916,351.768 C352.427993,353.544009 350.328014,354.432 347.616,354.432 Z M343.008,343.164 L351.792,343.164 C351.768,341.579992 351.348004,340.404004 350.532,339.636 C349.715996,338.867996 348.744006,338.484 347.616,338.484 C346.343994,338.484 345.282004,338.861996 344.43,339.618 C343.577996,340.374004 343.104,341.555992 343.008,343.164 Z M359.856,354 L359.856,335.604 L363.6,335.604 L363.6,337.836 C364.416004,336.059991 365.78399,335.172 367.704,335.172 C368.904006,335.172 369.935996,335.543996 370.8,336.288 L370.26,339.744 C369.371996,339.143997 368.400005,338.844 367.344,338.844 C366.335995,338.844 365.460004,339.221996 364.716,339.978 C363.971996,340.734004 363.6,341.963991 363.6,343.668 L363.6,354 L359.856,354 Z M381.276,354.432 C378.803988,354.432 376.848007,353.580009 375.408,351.876 C373.967993,350.171991 373.248,347.820015 373.248,344.82 C373.248,341.819985 373.967993,339.462009 375.408,337.746 C376.848007,336.029991 378.803988,335.172 381.276,335.172 C384.852018,335.172 387.167995,336.755984 388.224,339.924 L384.66,341.148 C384.059997,339.563992 382.980008,338.772 381.42,338.772 C380.027993,338.772 378.954004,339.305995 378.198,340.374 C377.441996,341.442005 377.064,342.923991 377.064,344.82 C377.064,346.692009 377.435996,348.161995 378.18,349.23 C378.924004,350.298005 379.955993,350.832 381.276,350.832 C383.052009,350.832 384.203997,349.932009 384.732,348.132 L388.296,349.248 C387.311995,352.704017 384.972018,354.432 381.276,354.432 Z M400.248,354.432 C397.679987,354.432 395.646008,353.574009 394.146,351.858 C392.645993,350.141991 391.896,347.784015 391.896,344.784 C391.896,341.783985 392.651992,339.432009 394.164,337.728 C395.676008,336.023991 397.703987,335.172 400.248,335.172 C402.552012,335.172 404.447993,335.903993 405.936,337.368 C407.424007,338.832007 408.168,340.967986 408.168,343.776 C408.168,344.808005 408.12,345.611997 408.024,346.188 L395.64,346.188 C395.664,347.652007 396.137995,348.839995 397.062,349.752 C397.986005,350.664005 399.059994,351.12 400.284,351.12 C401.868008,351.12 403.139995,350.496006 404.1,349.248 L406.548,351.768 C405.059993,353.544009 402.960014,354.432 400.248,354.432 Z M395.64,343.164 L404.424,343.164 C404.4,341.579992 403.980004,340.404004 403.164,339.636 C402.347996,338.867996 401.376006,338.484 400.248,338.484 C398.975994,338.484 397.914004,338.861996 397.062,339.618 C396.209996,340.374004 395.736,341.555992 395.64,343.164 Z M421.668,354 L421.668,328.8 L437.292,328.8 L437.292,332.328 L425.412,332.328 L425.412,339.24 L433.08,339.24 L433.08,342.768 L425.412,342.768 L425.412,354 L421.668,354 Z M441.252,354 L441.252,335.604 L444.996,335.604 L444.996,337.836 C445.812004,336.059991 447.17999,335.172 449.1,335.172 C450.300006,335.172 451.331996,335.543996 452.196,336.288 L451.656,339.744 C450.767996,339.143997 449.796005,338.844 448.74,338.844 C447.731995,338.844 446.856004,339.221996 446.112,339.978 C445.367996,340.734004 444.996,341.963991 444.996,343.668 L444.996,354 L441.252,354 Z M466.056,354 L466.056,352.416 C464.759994,353.760007 463.08001,354.432 461.016,354.432 C459.07199,354.432 457.494006,353.898005 456.282,352.83 C455.069994,351.761995 454.464,350.24401 454.464,348.276 C454.464,346.28399 455.147993,344.772005 456.516,343.74 C457.884007,342.707995 459.55199,342.192 461.52,342.192 C463.320009,342.192 464.831994,342.551996 466.056,343.272 L466.056,342.264 C466.056,340.895993 465.744003,339.924003 465.12,339.348 C464.495997,338.771997 463.500007,338.484 462.132,338.484 C460.11599,338.484 458.364007,339.035994 456.876,340.14 L455.76,337.08 C457.608009,335.807994 459.899986,335.172 462.636,335.172 C463.548005,335.172 464.363996,335.249999 465.084,335.406 C465.804004,335.562001 466.535996,335.861998 467.28,336.306 C468.024004,336.750002 468.605998,337.463995 469.026,338.448 C469.446002,339.432005 469.656,340.643993 469.656,342.084 L469.656,354 L466.056,354 Z M461.7,351.12 C463.428009,351.12 464.879994,350.460007 466.056,349.14 L466.056,346.332 C464.927994,345.731997 463.620007,345.432 462.132,345.432 C460.931994,345.432 459.954004,345.665998 459.198,346.134 C458.441996,346.602002 458.064,347.315995 458.064,348.276 C458.064,349.164004 458.375997,349.859997 459,350.364 C459.624003,350.868003 460.523994,351.12 461.7,351.12 Z M486.072,354 L486.072,343.02 C486.072,341.555993 485.736003,340.470004 485.064,339.762 C484.391997,339.053996 483.504006,338.7 482.4,338.7 C479.759987,338.7 478.44,340.115986 478.44,342.948 L478.44,354 L474.696,354 L474.696,335.604 L478.44,335.604 L478.44,337.368 C479.592006,335.903993 481.17599,335.172 483.192,335.172 C487.608022,335.172 489.816,337.787974 489.816,343.02 L489.816,354 L486.072,354 Z M502.164,354.432 C499.691988,354.432 497.736007,353.580009 496.296,351.876 C494.855993,350.171991 494.136,347.820015 494.136,344.82 C494.136,341.819985 494.855993,339.462009 496.296,337.746 C497.736007,336.029991 499.691988,335.172 502.164,335.172 C505.740018,335.172 508.055995,336.755984 509.112,339.924 L505.548,341.148 C504.947997,339.563992 503.868008,338.772 502.308,338.772 C500.915993,338.772 499.842004,339.305995 499.086,340.374 C498.329996,341.442005 497.952,342.923991 497.952,344.82 C497.952,346.692009 498.323996,348.161995 499.068,349.23 C499.812004,350.298005 500.843993,350.832 502.164,350.832 C503.940009,350.832 505.091997,349.932009 505.62,348.132 L509.184,349.248 C508.199995,352.704017 505.860018,354.432 502.164,354.432 Z M521.136,354.432 C518.567987,354.432 516.534008,353.574009 515.034,351.858 C513.533993,350.141991 512.784,347.784015 512.784,344.784 C512.784,341.783985 513.539992,339.432009 515.052,337.728 C516.564008,336.023991 518.591987,335.172 521.136,335.172 C523.440012,335.172 525.335993,335.903993 526.824,337.368 C528.312007,338.832007 529.056,340.967986 529.056,343.776 C529.056,344.808005 529.008,345.611997 528.912,346.188 L516.528,346.188 C516.552,347.652007 517.025995,348.839995 517.95,349.752 C518.874005,350.664005 519.947994,351.12 521.172,351.12 C522.756008,351.12 524.027995,350.496006 524.988,349.248 L527.436,351.768 C525.947993,353.544009 523.848014,354.432 521.136,354.432 Z M516.528,343.164 L525.312,343.164 C525.288,341.579992 524.868004,340.404004 524.052,339.636 C523.235996,338.867996 522.264006,338.484 521.136,338.484 C519.863994,338.484 518.802004,338.861996 517.95,339.618 C517.097996,340.374004 516.624,341.555992 516.528,343.164 Z M552.132,354.432 C550.619992,354.432 549.258006,354.180003 548.046,353.676 C546.833994,353.171997 545.838004,352.500004 545.058,351.66 C544.277996,350.819996 543.624003,349.824006 543.096,348.672 C542.567997,347.519994 542.196001,346.344006 541.98,345.144 C541.763999,343.943994 541.656,342.696006 541.656,341.4 C541.656,339.863992 541.847998,338.364007 542.232,336.9 C542.616002,335.435993 543.197996,334.050007 543.978,332.742 C544.758004,331.433993 545.849993,330.378004 547.254,329.574 C548.658007,328.769996 550.283991,328.368 552.132,328.368 C554.340011,328.368 556.175993,328.853995 557.64,329.826 C559.104007,330.798005 560.123997,331.979993 560.7,333.372 L557.28,334.956 C556.631997,333.923995 555.918004,333.168002 555.138,332.688 C554.357996,332.207998 553.356006,331.968 552.132,331.968 C550.931994,331.968 549.888004,332.255997 549,332.832 C548.111996,333.408003 547.428002,334.175995 546.948,335.136 C546.467998,336.096005 546.114001,337.097995 545.886,338.142 C545.657999,339.186005 545.544,340.271994 545.544,341.4 C545.544,343.896012 546.107994,346.091991 547.236,347.988 C548.364006,349.884009 549.995989,350.832 552.132,350.832 C554.244011,350.832 555.947994,349.752011 557.244,347.592 L560.736,348.924 C559.151992,352.596018 556.284021,354.432 552.132,354.432 Z M575.928,354 L575.928,352.416 C574.631994,353.760007 572.95201,354.432 570.888,354.432 C568.94399,354.432 567.366006,353.898005 566.154,352.83 C564.941994,351.761995 564.336,350.24401 564.336,348.276 C564.336,346.28399 565.019993,344.772005 566.388,343.74 C567.756007,342.707995 569.42399,342.192 571.392,342.192 C573.192009,342.192 574.703994,342.551996 575.928,343.272 L575.928,342.264 C575.928,340.895993 575.616003,339.924003 574.992,339.348 C574.367997,338.771997 573.372007,338.484 572.004,338.484 C569.98799,338.484 568.236007,339.035994 566.748,340.14 L565.632,337.08 C567.480009,335.807994 569.771986,335.172 572.508,335.172 C573.420005,335.172 574.235996,335.249999 574.956,335.406 C575.676004,335.562001 576.407996,335.861998 577.152,336.306 C577.896004,336.750002 578.477998,337.463995 578.898,338.448 C579.318002,339.432005 579.528,340.643993 579.528,342.084 L579.528,354 L575.928,354 Z M571.572,351.12 C573.300009,351.12 574.751994,350.460007 575.928,349.14 L575.928,346.332 C574.799994,345.731997 573.492007,345.432 572.004,345.432 C570.803994,345.432 569.826004,345.665998 569.07,346.134 C568.313996,346.602002 567.936,347.315995 567.936,348.276 C567.936,349.164004 568.247997,349.859997 568.872,350.364 C569.496003,350.868003 570.395994,351.12 571.572,351.12 Z M595.944,354 L595.944,343.02 C595.944,341.555993 595.608003,340.470004 594.936,339.762 C594.263997,339.053996 593.376006,338.7 592.272,338.7 C589.631987,338.7 588.312,340.115986 588.312,342.948 L588.312,354 L584.568,354 L584.568,335.604 L588.312,335.604 L588.312,337.368 C589.464006,335.903993 591.04799,335.172 593.064,335.172 C597.480022,335.172 599.688,337.787974 599.688,343.02 L599.688,354 L595.944,354 Z M615.42,354 L615.42,352.416 C614.123994,353.760007 612.44401,354.432 610.38,354.432 C608.43599,354.432 606.858006,353.898005 605.646,352.83 C604.433994,351.761995 603.828,350.24401 603.828,348.276 C603.828,346.28399 604.511993,344.772005 605.88,343.74 C607.248007,342.707995 608.91599,342.192 610.884,342.192 C612.684009,342.192 614.195994,342.551996 615.42,343.272 L615.42,342.264 C615.42,340.895993 615.108003,339.924003 614.484,339.348 C613.859997,338.771997 612.864007,338.484 611.496,338.484 C609.47999,338.484 607.728007,339.035994 606.24,340.14 L605.124,337.08 C606.972009,335.807994 609.263986,335.172 612,335.172 C612.912005,335.172 613.727996,335.249999 614.448,335.406 C615.168004,335.562001 615.899996,335.861998 616.644,336.306 C617.388004,336.750002 617.969998,337.463995 618.39,338.448 C618.810002,339.432005 619.02,340.643993 619.02,342.084 L619.02,354 L615.42,354 Z M611.064,351.12 C612.792009,351.12 614.243994,350.460007 615.42,349.14 L615.42,346.332 C614.291994,345.731997 612.984007,345.432 611.496,345.432 C610.295994,345.432 609.318004,345.665998 608.562,346.134 C607.805996,346.602002 607.428,347.315995 607.428,348.276 C607.428,349.164004 607.739997,349.859997 608.364,350.364 C608.988003,350.868003 609.887994,351.12 611.064,351.12 Z M630.792,354.432 C628.463988,354.432 626.610007,353.574009 625.23,351.858 C623.849993,350.141991 623.16,347.784015 623.16,344.784 C623.16,341.807985 623.861993,339.462009 625.266,337.746 C626.670007,336.029991 628.511989,335.172 630.792,335.172 C632.592009,335.172 634.043994,335.747994 635.148,336.9 L635.148,329.736 L638.892,328.008 L638.892,354 L635.148,354 L635.148,352.704 C634.115995,353.856006 632.664009,354.432 630.792,354.432 Z M631.332,350.904 C633.012008,350.904 634.283996,350.208007 635.148,348.816 L635.148,340.716 C634.811998,340.163997 634.314003,339.690002 633.654,339.294 C632.993997,338.897998 632.220004,338.7 631.332,338.7 C629.915993,338.7 628.824004,339.227995 628.056,340.284 C627.287996,341.340005 626.904,342.83999 626.904,344.784 C626.904,346.608009 627.299996,348.083994 628.092,349.212 C628.884004,350.340006 629.963993,350.904 631.332,350.904 Z M654.804,354 L654.804,352.416 C653.507994,353.760007 651.82801,354.432 649.764,354.432 C647.81999,354.432 646.242006,353.898005 645.03,352.83 C643.817994,351.761995 643.212,350.24401 643.212,348.276 C643.212,346.28399 643.895993,344.772005 645.264,343.74 C646.632007,342.707995 648.29999,342.192 650.268,342.192 C652.068009,342.192 653.579994,342.551996 654.804,343.272 L654.804,342.264 C654.804,340.895993 654.492003,339.924003 653.868,339.348 C653.243997,338.771997 652.248007,338.484 650.88,338.484 C648.86399,338.484 647.112007,339.035994 645.624,340.14 L644.508,337.08 C646.356009,335.807994 648.647986,335.172 651.384,335.172 C652.296005,335.172 653.111996,335.249999 653.832,335.406 C654.552004,335.562001 655.283996,335.861998 656.028,336.306 C656.772004,336.750002 657.353998,337.463995 657.774,338.448 C658.194002,339.432005 658.404,340.643993 658.404,342.084 L658.404,354 L654.804,354 Z M650.448,351.12 C652.176009,351.12 653.627994,350.460007 654.804,349.14 L654.804,346.332 C653.675994,345.731997 652.368007,345.432 650.88,345.432 C649.679994,345.432 648.702004,345.665998 647.946,346.134 C647.189996,346.602002 646.812,347.315995 646.812,348.276 C646.812,349.164004 647.123997,349.859997 647.748,350.364 C648.372003,350.868003 649.271994,351.12 650.448,351.12 Z" id="Chambre-du-Commerce" fill="#848484" mask="url(#mask-2)"></path>
                <path d="M111.32,194.432 C109.759992,194.432 108.344006,194.180003 107.072,193.676 C105.799994,193.171997 104.756004,192.500004 103.94,191.66 C103.123996,190.819996 102.440003,189.824006 101.888,188.672 C101.335997,187.519994 100.940001,186.344006 100.7,185.144 C100.459999,183.943994 100.34,182.696006 100.34,181.4 C100.34,180.103994 100.459999,178.856006 100.7,177.656 C100.940001,176.455994 101.335997,175.280006 101.888,174.128 C102.440003,172.975994 103.123996,171.980004 103.94,171.14 C104.756004,170.299996 105.799994,169.628003 107.072,169.124 C108.344006,168.619997 109.759992,168.368 111.32,168.368 C112.880008,168.368 114.295994,168.619997 115.568,169.124 C116.840006,169.628003 117.883996,170.299996 118.7,171.14 C119.516004,171.980004 120.199997,172.975994 120.752,174.128 C121.304003,175.280006 121.699999,176.455994 121.94,177.656 C122.180001,178.856006 122.3,180.103994 122.3,181.4 C122.3,183.48801 121.982003,185.461991 121.346,187.322 C120.709997,189.182009 119.720007,190.723994 118.376,191.948 L120.068,194.468 L117.188,196.412 L115.388,193.748 C114.139994,194.204002 112.784007,194.432 111.32,194.432 Z M111.32,190.832 C112.064004,190.832 112.699997,190.748001 113.228,190.58 L111.32,187.7 L114.272,185.756 L116.144,188.6 C117.656008,186.823991 118.412,184.424015 118.412,181.4 C118.412,180.247994 118.286001,179.138005 118.034,178.07 C117.781999,177.001995 117.392003,176.000005 116.864,175.064 C116.335997,174.127995 115.592005,173.378003 114.632,172.814 C113.671995,172.249997 112.568006,171.968 111.32,171.968 C110.071994,171.968 108.968005,172.261997 108.008,172.85 C107.047995,173.438003 106.304003,174.211995 105.776,175.172 C105.247997,176.132005 104.858001,177.133995 104.606,178.178 C104.353999,179.222005 104.228,180.295994 104.228,181.4 C104.228,182.552006 104.353999,183.661995 104.606,184.73 C104.858001,185.798005 105.247997,186.799995 105.776,187.736 C106.304003,188.672005 107.047995,189.421997 108.008,189.986 C108.968005,190.550003 110.071994,190.832 111.32,190.832 Z M138.536,194 L138.536,192.236 C137.383994,193.700007 135.80001,194.432 133.784,194.432 C129.367978,194.432 127.16,191.816026 127.16,186.584 L127.16,175.604 L130.904,175.604 L130.904,186.584 C130.904,188.048007 131.239997,189.133996 131.912,189.842 C132.584003,190.550004 133.471994,190.904 134.576,190.904 C137.216013,190.904 138.536,189.488014 138.536,186.656 L138.536,175.604 L142.28,175.604 L142.28,194 L138.536,194 Z M155.132,194.432 C152.563987,194.432 150.530008,193.574009 149.03,191.858 C147.529992,190.141991 146.78,187.784015 146.78,184.784 C146.78,181.783985 147.535992,179.432009 149.048,177.728 C150.560008,176.023991 152.587987,175.172 155.132,175.172 C157.436012,175.172 159.331993,175.903993 160.82,177.368 C162.308007,178.832007 163.052,180.967986 163.052,183.776 C163.052,184.808005 163.004,185.611997 162.908,186.188 L150.524,186.188 C150.548,187.652007 151.021995,188.839995 151.946,189.752 C152.870005,190.664005 153.943994,191.12 155.168,191.12 C156.752008,191.12 158.023995,190.496006 158.984,189.248 L161.432,191.768 C159.943993,193.544009 157.844014,194.432 155.132,194.432 Z M150.524,183.164 L159.308,183.164 C159.284,181.579992 158.864004,180.404004 158.048,179.636 C157.231996,178.867996 156.260006,178.484 155.132,178.484 C153.859994,178.484 152.798004,178.861996 151.946,179.618 C151.093996,180.374004 150.62,181.555992 150.524,183.164 Z M174.5,194.432 C172.027988,194.432 170.072007,193.580009 168.632,191.876 C167.191993,190.171991 166.472,187.820015 166.472,184.82 C166.472,181.819985 167.191993,179.462009 168.632,177.746 C170.072007,176.029991 172.027988,175.172 174.5,175.172 C178.076018,175.172 180.391995,176.755984 181.448,179.924 L177.884,181.148 C177.283997,179.563992 176.204008,178.772 174.644,178.772 C173.251993,178.772 172.178004,179.305995 171.422,180.374 C170.665996,181.442005 170.288,182.923991 170.288,184.82 C170.288,186.692009 170.659996,188.161995 171.404,189.23 C172.148004,190.298005 173.179993,190.832 174.5,190.832 C176.276009,190.832 177.427997,189.932009 177.956,188.132 L181.52,189.248 C180.535995,192.704017 178.196018,194.432 174.5,194.432 Z M186.02,194 L186.02,169.736 L189.764,168.008 L189.764,177.368 C190.916006,175.903993 192.49999,175.172 194.516,175.172 C198.932022,175.172 201.14,177.787974 201.14,183.02 L201.14,194 L197.396,194 L197.396,183.02 C197.396,181.555993 197.060003,180.470004 196.388,179.762 C195.715997,179.053996 194.828006,178.7 193.724,178.7 C191.083987,178.7 189.764,180.115986 189.764,182.948 L189.764,194 L186.02,194 Z M217.556,194 L217.556,192.236 C216.403994,193.700007 214.82001,194.432 212.804,194.432 C208.387978,194.432 206.18,191.816026 206.18,186.584 L206.18,175.604 L209.924,175.604 L209.924,186.584 C209.924,188.048007 210.259997,189.133996 210.932,189.842 C211.604003,190.550004 212.491994,190.904 213.596,190.904 C216.236013,190.904 217.556,189.488014 217.556,186.656 L217.556,175.604 L221.3,175.604 L221.3,194 L217.556,194 Z M237.212,194 L237.212,192.416 C235.915994,193.760007 234.23601,194.432 232.172,194.432 C230.22799,194.432 228.650006,193.898005 227.438,192.83 C226.225994,191.761995 225.62,190.24401 225.62,188.276 C225.62,186.28399 226.303993,184.772005 227.672,183.74 C229.040007,182.707995 230.70799,182.192 232.676,182.192 C234.476009,182.192 235.987994,182.551996 237.212,183.272 L237.212,182.264 C237.212,180.895993 236.900003,179.924003 236.276,179.348 C235.651997,178.771997 234.656007,178.484 233.288,178.484 C231.27199,178.484 229.520007,179.035994 228.032,180.14 L226.916,177.08 C228.764009,175.807994 231.055986,175.172 233.792,175.172 C234.704005,175.172 235.519996,175.249999 236.24,175.406 C236.960004,175.562001 237.691996,175.861998 238.436,176.306 C239.180004,176.750002 239.761998,177.463995 240.182,178.448 C240.602002,179.432005 240.812,180.643993 240.812,182.084 L240.812,194 L237.212,194 Z M232.856,191.12 C234.584009,191.12 236.035994,190.460007 237.212,189.14 L237.212,186.332 C236.083994,185.731997 234.776007,185.432 233.288,185.432 C232.087994,185.432 231.110004,185.665998 230.354,186.134 C229.597996,186.602002 229.22,187.315995 229.22,188.276 C229.22,189.164004 229.531997,189.859997 230.156,190.364 C230.780003,190.868003 231.679994,191.12 232.856,191.12 Z" id="Quechua" fill="#848484" mask="url(#mask-2)"></path>
            </g>
        </g>
    </g>
</svg>