<?xml version="1.0" encoding="UTF-8"?>
<svg width="200px" height="440px" viewBox="0 0 200 440" version="1.1" xmlns="http://www.w3.org/2000/svg" xmlns:xlink="http://www.w3.org/1999/xlink">
    <defs>
        <rect id="path-1" x="0" y="0" width="200" height="440"></rect>
    </defs>
    <g stroke="none" stroke-width="1" fill="none" fill-rule="evenodd">
        <g transform="translate(-854.000000, -289.000000)">
            <g transform="translate(854.000000, 289.000000)">
                <mask id="mask-2" fill="white">
                    <use xlink:href="#path-1"></use>
                </mask>
                <rect stroke="#373737" x="0.5" y="0.5" width="199" height="439"></rect>
                <path d="M38.828,80.282 C38.828,80.4380008 38.7500008,80.516 38.594,80.516 L32.06,80.516 C31.9999997,80.516 31.97,80.5459997 31.97,80.606 L31.97,85.016 C31.97,85.0760003 31.9999997,85.106 32.06,85.106 L36.614,85.106 C36.7700008,85.106 36.848,85.1839992 36.848,85.34 L36.848,85.988 C36.848,86.1440008 36.7700008,86.222 36.614,86.222 L32.06,86.222 C31.9999997,86.222 31.97,86.2519997 31.97,86.312 L31.97,91.766 C31.97,91.9220008 31.8920008,92 31.736,92 L30.926,92 C30.7699992,92 30.692,91.9220008 30.692,91.766 L30.692,79.634 C30.692,79.4779992 30.7699992,79.4 30.926,79.4 L38.594,79.4 C38.7500008,79.4 38.828,79.4779992 38.828,79.634 L38.828,80.282 Z M44.21,91.046 C44.7500027,91.0339999 45.2149981,90.9110012 45.605,90.677 C45.995002,90.4429988 46.2979989,90.1160021 46.514,89.696 C46.5380001,89.6359997 46.5799997,89.5940001 46.64,89.57 C46.7000003,89.5459999 46.7599997,89.5519998 46.82,89.588 L47.342,89.876 C47.4860007,89.9600004 47.5220004,90.0619994 47.45,90.182 C47.1619986,90.782003 46.7300029,91.2589982 46.154,91.613 C45.5779971,91.9670018 44.894004,92.144 44.102,92.144 C43.2619958,92.144 42.5540029,91.946002 41.978,91.55 C41.4019971,91.153998 40.9880013,90.6020035 40.736,89.894 C40.5079989,89.293997 40.394,88.4660053 40.394,87.41 C40.394,86.8939974 40.4029999,86.4830015 40.421,86.177 C40.4390001,85.8709985 40.4839996,85.5860013 40.556,85.322 C40.760001,84.5419961 41.1709969,83.9180023 41.789,83.45 C42.4070031,82.9819977 43.1539956,82.748 44.03,82.748 C45.0740052,82.748 45.892997,83.0179973 46.487,83.558 C47.081003,84.0980027 47.4619992,84.8599951 47.63,85.844 C47.7020004,86.2280019 47.738,86.8279959 47.738,87.644 C47.738,87.8000008 47.6600008,87.878 47.504,87.878 L41.744,87.878 C41.6839997,87.878 41.654,87.9079997 41.654,87.968 C41.654,88.568003 41.6899996,89.0059986 41.762,89.282 C41.8940007,89.8220027 42.1729979,90.2509984 42.599,90.569 C43.0250021,90.8870016 43.5619968,91.046 44.21,91.046 Z M44.03,83.864 C43.429997,83.864 42.9380019,84.0169985 42.554,84.323 C42.1699981,84.6290015 41.9180006,85.0399974 41.798,85.556 C41.7259996,85.7960012 41.6780001,86.2039971 41.654,86.78 C41.654,86.8400003 41.6839997,86.87 41.744,86.87 L46.37,86.87 C46.4300003,86.87 46.46,86.8400003 46.46,86.78 C46.4359999,86.2519974 46.4000002,85.8680012 46.352,85.628 C46.2199993,85.0879973 45.953002,84.6590016 45.551,84.341 C45.148998,84.0229984 44.6420031,83.864 44.03,83.864 Z M53.426,82.748 C54.5060054,82.748 55.342997,83.0239972 55.937,83.576 C56.531003,84.1280028 56.828,84.8599954 56.828,85.772 L56.828,91.766 C56.828,91.9220008 56.7500008,92 56.594,92 L55.784,92 C55.6279992,92 55.55,91.9220008 55.55,91.766 L55.55,91.118 C55.55,91.0819998 55.5380001,91.0580001 55.514,91.046 C55.4899999,91.0339999 55.4660001,91.0459998 55.442,91.082 C55.1179984,91.4300017 54.7130024,91.6939991 54.227,91.874 C53.7409976,92.0540009 53.2100029,92.144 52.634,92.144 C51.7939958,92.144 51.0890029,91.9280022 50.519,91.496 C49.9489972,91.0639978 49.664,90.4040044 49.664,89.516 C49.664,88.6159955 49.9909967,87.9050026 50.645,87.383 C51.2990033,86.8609974 52.2079942,86.6 53.372,86.6 L55.46,86.6 C55.5200003,86.6 55.55,86.5700003 55.55,86.51 L55.55,85.844 C55.55,85.2319969 55.3790017,84.7490018 55.037,84.395 C54.6949983,84.0409982 54.1640036,83.864 53.444,83.864 C52.8799972,83.864 52.4180018,83.9719989 52.058,84.188 C51.6979982,84.4040011 51.4700005,84.7039981 51.374,85.088 C51.3379998,85.2320007 51.2480007,85.2920001 51.104,85.268 L50.222,85.16 C50.0659992,85.1359999 49.9939999,85.0700005 50.006,84.962 C50.1260006,84.3019967 50.4949969,83.768002 51.113,83.36 C51.7310031,82.951998 52.5019954,82.748 53.426,82.748 Z M52.922,91.046 C53.6300035,91.046 54.2449974,90.8690018 54.767,90.515 C55.2890026,90.1609982 55.55,89.684003 55.55,89.084 L55.55,87.698 C55.55,87.6379997 55.5200003,87.608 55.46,87.608 L53.57,87.608 C52.777996,87.608 52.1420024,87.7699984 51.662,88.094 C51.1819976,88.4180016 50.942,88.8679971 50.942,89.444 C50.942,89.9720026 51.1279981,90.3709987 51.5,90.641 C51.8720019,90.9110013 52.3459971,91.046 52.922,91.046 Z M63.56,83.72 C63.56,83.8760008 63.4820008,83.954 63.326,83.954 L61.364,83.954 C61.3039997,83.954 61.274,83.9839997 61.274,84.044 L61.274,89.3 C61.274,89.8760029 61.4029987,90.2809988 61.661,90.515 C61.9190013,90.7490012 62.3239972,90.866 62.876,90.866 L63.272,90.866 C63.4280008,90.866 63.506,90.9439992 63.506,91.1 L63.506,91.73 C63.506,91.8860008 63.4280008,91.9699999 63.272,91.982 L62.66,91.982 C61.7959957,91.982 61.1420022,91.8200016 60.698,91.496 C60.2539978,91.1719984 60.032,90.5720044 60.032,89.696 L60.032,84.044 C60.032,83.9839997 60.0020003,83.954 59.942,83.954 L58.916,83.954 C58.7599992,83.954 58.682,83.8760008 58.682,83.72 L58.682,83.126 C58.682,82.9699992 58.7599992,82.892 58.916,82.892 L59.942,82.892 C60.0020003,82.892 60.032,82.8620003 60.032,82.802 L60.032,80.786 C60.032,80.6299992 60.1099992,80.552 60.266,80.552 L61.04,80.552 C61.1960008,80.552 61.274,80.6299992 61.274,80.786 L61.274,82.802 C61.274,82.8620003 61.3039997,82.892 61.364,82.892 L63.326,82.892 C63.4820008,82.892 63.56,82.9699992 63.56,83.126 L63.56,83.72 Z M71.534,83.126 C71.534,82.9699992 71.6119992,82.892 71.768,82.892 L72.578,82.892 C72.7340008,82.892 72.812,82.9699992 72.812,83.126 L72.812,91.766 C72.812,91.9220008 72.7340008,92 72.578,92 L71.768,92 C71.6119992,92 71.534,91.9220008 71.534,91.766 L71.534,91.082 C71.534,91.0459998 71.5220001,91.0220001 71.498,91.01 C71.4739999,90.9979999 71.4500001,91.0099998 71.426,91.046 C70.9099974,91.7660036 70.1180053,92.126 69.05,92.126 C68.4739971,92.126 67.9430024,92.0090012 67.457,91.775 C66.9709976,91.5409988 66.5870014,91.2020022 66.305,90.758 C66.0229986,90.3139978 65.882,89.7800031 65.882,89.156 L65.882,83.126 C65.882,82.9699992 65.9599992,82.892 66.116,82.892 L66.926,82.892 C67.0820008,82.892 67.16,82.9699992 67.16,83.126 L67.16,88.778 C67.16,89.4620034 67.3519981,90.004998 67.736,90.407 C68.1200019,90.809002 68.6419967,91.01 69.302,91.01 C69.9860034,91.01 70.528998,90.806002 70.931,90.398 C71.333002,89.989998 71.534,89.4500034 71.534,88.778 L71.534,83.126 Z M79.346,82.802 C79.742002,82.802 80.0719987,82.8739993 80.336,83.018 C80.4560006,83.0660002 80.4980002,83.1619993 80.462,83.306 L80.282,84.098 C80.2459998,84.2420007 80.1500008,84.2900002 79.994,84.242 C79.7659989,84.1699996 79.4720018,84.1399999 79.112,84.152 C78.4879969,84.1760001 77.972002,84.4069978 77.564,84.845 C77.155998,85.2830022 76.952,85.8379966 76.952,86.51 L76.952,91.766 C76.952,91.9220008 76.8740008,92 76.718,92 L75.908,92 C75.7519992,92 75.674,91.9220008 75.674,91.766 L75.674,83.126 C75.674,82.9699992 75.7519992,82.892 75.908,82.892 L76.718,82.892 C76.8740008,82.892 76.952,82.9699992 76.952,83.126 L76.952,84.134 C76.952,84.1820002 76.9609999,84.209 76.979,84.215 C76.9970001,84.221 77.0179999,84.2060002 77.042,84.17 C77.2940013,83.7379978 77.614998,83.4020012 78.005,83.162 C78.3950019,82.9219988 78.8419975,82.802 79.346,82.802 Z M85.772,91.046 C86.3120027,91.0339999 86.7769981,90.9110012 87.167,90.677 C87.557002,90.4429988 87.8599989,90.1160021 88.076,89.696 C88.1000001,89.6359997 88.1419997,89.5940001 88.202,89.57 C88.2620003,89.5459999 88.3219997,89.5519998 88.382,89.588 L88.904,89.876 C89.0480007,89.9600004 89.0840004,90.0619994 89.012,90.182 C88.7239986,90.782003 88.2920029,91.2589982 87.716,91.613 C87.1399971,91.9670018 86.456004,92.144 85.664,92.144 C84.8239958,92.144 84.1160029,91.946002 83.54,91.55 C82.9639971,91.153998 82.5500013,90.6020035 82.298,89.894 C82.0699989,89.293997 81.956,88.4660053 81.956,87.41 C81.956,86.8939974 81.9649999,86.4830015 81.983,86.177 C82.0010001,85.8709985 82.0459996,85.5860013 82.118,85.322 C82.322001,84.5419961 82.7329969,83.9180023 83.351,83.45 C83.9690031,82.9819977 84.7159956,82.748 85.592,82.748 C86.6360052,82.748 87.454997,83.0179973 88.049,83.558 C88.643003,84.0980027 89.0239992,84.8599951 89.192,85.844 C89.2640004,86.2280019 89.3,86.8279959 89.3,87.644 C89.3,87.8000008 89.2220008,87.878 89.066,87.878 L83.306,87.878 C83.2459997,87.878 83.216,87.9079997 83.216,87.968 C83.216,88.568003 83.2519996,89.0059986 83.324,89.282 C83.4560007,89.8220027 83.7349979,90.2509984 84.161,90.569 C84.5870021,90.8870016 85.1239968,91.046 85.772,91.046 Z M85.592,83.864 C84.991997,83.864 84.5000019,84.0169985 84.116,84.323 C83.7319981,84.6290015 83.4800006,85.0399974 83.36,85.556 C83.2879996,85.7960012 83.2400001,86.2039971 83.216,86.78 C83.216,86.8400003 83.2459997,86.87 83.306,86.87 L87.932,86.87 C87.9920003,86.87 88.022,86.8400003 88.022,86.78 C87.9979999,86.2519974 87.9620002,85.8680012 87.914,85.628 C87.7819993,85.0879973 87.515002,84.6590016 87.113,84.341 C86.710998,84.0229984 86.2040031,83.864 85.592,83.864 Z M94.826,92.09 C94.1539966,92.09 93.5570026,91.9820011 93.035,91.766 C92.5129974,91.5499989 92.1110014,91.2620018 91.829,90.902 C91.5469986,90.5419982 91.406,90.1400022 91.406,89.696 L91.406,89.534 C91.406,89.3779992 91.4839992,89.3 91.64,89.3 L92.414,89.3 C92.4860004,89.3 92.5429998,89.3149998 92.585,89.345 C92.6270002,89.3750002 92.648,89.4139998 92.648,89.462 L92.648,89.624 C92.648,90.020002 92.851998,90.3649985 93.26,90.659 C93.668002,90.9530015 94.1839969,91.1 94.808,91.1 C95.4320031,91.1 95.9359981,90.9590014 96.32,90.677 C96.7040019,90.3949986 96.896,90.0380022 96.896,89.606 C96.896,89.3059985 96.800001,89.060001 96.608,88.868 C96.415999,88.675999 96.1820014,88.5260005 95.906,88.418 C95.6299986,88.3099995 95.2160028,88.1720008 94.664,88.004 C93.9919966,87.811999 93.4400022,87.620001 93.008,87.428 C92.5759978,87.235999 92.2100015,86.9690017 91.91,86.627 C91.6099985,86.2849983 91.46,85.8500026 91.46,85.322 C91.46,84.5539962 91.762997,83.9420023 92.369,83.486 C92.975003,83.0299977 93.7699951,82.802 94.754,82.802 C95.4140033,82.802 95.9989975,82.9099989 96.509,83.126 C97.0190026,83.3420011 97.4119986,83.6389981 97.688,84.017 C97.9640014,84.3950019 98.102,84.8179977 98.102,85.286 C98.102,85.4420008 98.0240008,85.52 97.868,85.52 L97.13,85.52 C96.9739992,85.52 96.896,85.4780004 96.896,85.394 L96.896,85.286 C96.896,84.877998 96.701002,84.5360014 96.311,84.26 C95.9209981,83.9839986 95.3960033,83.846 94.736,83.846 C94.1239969,83.846 93.6320019,83.9689988 93.26,84.215 C92.8879981,84.4610012 92.702,84.7999978 92.702,85.232 C92.702,85.640002 92.8789982,85.9519989 93.233,86.168 C93.5870018,86.3840011 94.1419962,86.5999989 94.898,86.816 C95.5940035,87.008001 96.1579978,87.1939991 96.59,87.374 C97.0220022,87.5540009 97.3939984,87.8179983 97.706,88.166 C98.0180016,88.5140017 98.174,88.9639972 98.174,89.516 C98.174,90.2960039 97.871003,90.9199977 97.265,91.388 C96.658997,91.8560023 95.8460051,92.09 94.826,92.09 Z M113.366,91.712 C113.402,91.7600002 113.42,91.8079998 113.42,91.856 C113.42,91.9520005 113.354001,92 113.222,92 L112.322,92 C112.201999,92 112.106,91.9580004 112.034,91.874 L111.008,90.686 C110.972,90.6379998 110.93,90.6319998 110.882,90.668 C110.317997,91.1840026 109.742003,91.5589988 109.154,91.793 C108.565997,92.0270012 107.924003,92.144 107.228,92.144 C106.171995,92.144 105.320003,91.8950025 104.672,91.397 C104.023997,90.8989975 103.7,90.1760047 103.7,89.228 C103.7,88.3999959 103.933998,87.689003 104.402,87.095 C104.870002,86.500997 105.523996,85.9280028 106.364,85.376 C106.412,85.3279998 106.418,85.2860002 106.382,85.25 C105.685997,84.3979957 105.224001,83.7620021 104.996,83.342 C104.767999,82.9219979 104.654,82.5020021 104.654,82.082 C104.654,81.2299957 104.929997,80.5460026 105.482,80.03 C106.034003,79.5139974 106.765995,79.256 107.678,79.256 C108.602005,79.256 109.354997,79.5079975 109.937,80.012 C110.519003,80.5160025 110.81,81.1819959 110.81,82.01 C110.81,82.7420037 110.585002,83.3719974 110.135,83.9 C109.684998,84.4280026 109.052004,84.9619973 108.236,85.502 C108.2,85.5380002 108.194,85.5799998 108.218,85.628 L110.324,88.094 L110.918,88.814 C110.966,88.8620002 111.008,88.8620002 111.044,88.814 C111.428002,88.3579977 111.811998,87.8600027 112.196,87.32 C112.28,87.1999994 112.387999,87.1759996 112.52,87.248 L113.096,87.59 C113.18,87.6380002 113.222,87.6979996 113.222,87.77 C113.222,87.8060002 113.204,87.8539997 113.168,87.914 C112.555997,88.7780043 112.094002,89.3899982 111.782,89.75 L111.764,89.786 C111.764,89.8340002 111.8,89.8939996 111.872,89.966 L112.646,90.884 L113.366,91.712 Z M107.714,80.444 C107.173997,80.444 106.742002,80.5909985 106.418,80.885 C106.093998,81.1790015 105.932,81.5779975 105.932,82.082 C105.932,82.3700014 106.021999,82.6759984 106.202,83 C106.382001,83.3240016 106.771997,83.8519963 107.372,84.584 C107.408,84.6320002 107.45,84.6380002 107.498,84.602 C108.158003,84.1459977 108.661998,83.7230019 109.01,83.333 C109.358002,82.942998 109.532,82.5020025 109.532,82.01 C109.532,81.5419977 109.364002,81.1640014 109.028,80.876 C108.691998,80.5879986 108.254003,80.444 107.714,80.444 Z M107.264,91.046 C107.792003,91.046 108.283998,90.944001 108.74,90.74 C109.196002,90.535999 109.657998,90.2180022 110.126,89.786 C110.174,89.7499998 110.18,89.7080002 110.144,89.66 L109.352,88.742 C109.111999,88.4539986 108.914001,88.2260008 108.758,88.058 C107.977996,87.1579955 107.468001,86.5640014 107.228,86.276 C107.192,86.2279998 107.15,86.2219998 107.102,86.258 C106.417997,86.7500025 105.893002,87.2209977 105.527,87.671 C105.160998,88.1210023 104.978,88.6339971 104.978,89.21 C104.978,89.7860029 105.184998,90.2359984 105.599,90.56 C106.013002,90.8840016 106.567997,91.046 107.264,91.046 Z M127.388,92 C127.255999,92 127.172,91.9340007 127.136,91.802 L126.416,89.606 C126.392,89.5579998 126.362,89.534 126.326,89.534 L120.962,89.534 C120.926,89.534 120.896,89.5579998 120.872,89.606 L120.17,91.802 C120.134,91.9340007 120.050001,92 119.918,92 L119.054,92 C118.97,92 118.91,91.9760002 118.874,91.928 C118.838,91.8799998 118.832,91.8140004 118.856,91.73 L122.816,79.598 C122.852,79.4659993 122.935999,79.4 123.068,79.4 L124.22,79.4 C124.352001,79.4 124.436,79.4659993 124.472,79.598 L128.45,91.73 C128.462,91.7540001 128.468,91.7839998 128.468,91.82 C128.468,91.8680002 128.447,91.9099998 128.405,91.946 C128.363,91.9820002 128.312,92 128.252,92 L127.388,92 Z M121.268,88.382 C121.256,88.4540004 121.28,88.49 121.34,88.49 L125.966,88.49 C126.038,88.49 126.062,88.4540004 126.038,88.382 L123.698,81.02 C123.686,80.9719998 123.668,80.948 123.644,80.948 C123.62,80.948 123.602,80.9719998 123.59,81.02 L121.268,88.382 Z M132.482,92 C132.349999,92 132.266,91.9340007 132.23,91.802 L129.71,83.162 C129.698,83.1379999 129.692,83.1080002 129.692,83.072 C129.692,83.0239998 129.713,82.9820002 129.755,82.946 C129.797,82.9099998 129.848,82.892 129.908,82.892 L130.754,82.892 C130.886001,82.892 130.97,82.9579993 131.006,83.09 L132.878,90.11 C132.89,90.1460002 132.908,90.164 132.932,90.164 C132.956,90.164 132.974,90.1460002 132.986,90.11 L134.912,83.09 C134.948,82.9579993 135.031999,82.892 135.164,82.892 L135.956,82.892 C136.088001,82.892 136.172,82.9579993 136.208,83.09 L138.17,90.11 C138.182,90.1460002 138.2,90.164 138.224,90.164 C138.248,90.164 138.266,90.1460002 138.278,90.11 L140.204,83.09 C140.24,82.9579993 140.329999,82.892 140.474,82.892 L141.302,82.91 C141.386,82.91 141.446,82.9339998 141.482,82.982 C141.518,83.0300002 141.524,83.0959996 141.5,83.18 L138.944,91.802 C138.908,91.9340007 138.824001,92 138.692,92 L137.81,92 C137.677999,92 137.594,91.9340007 137.558,91.802 L135.614,85.16 C135.602,85.1239998 135.584,85.106 135.56,85.106 C135.536,85.106 135.518,85.1239998 135.506,85.16 L133.634,91.802 C133.598,91.9340007 133.514001,92 133.382,92 L132.482,92 Z M146.684,82.748 C147.764005,82.748 148.600997,83.0239972 149.195,83.576 C149.789003,84.1280028 150.086,84.8599954 150.086,85.772 L150.086,91.766 C150.086,91.9220008 150.008001,92 149.852,92 L149.042,92 C148.885999,92 148.808,91.9220008 148.808,91.766 L148.808,91.118 C148.808,91.0819998 148.796,91.0580001 148.772,91.046 C148.748,91.0339999 148.724,91.0459998 148.7,91.082 C148.375998,91.4300017 147.971002,91.6939991 147.485,91.874 C146.998998,92.0540009 146.468003,92.144 145.892,92.144 C145.051996,92.144 144.347003,91.9280022 143.777,91.496 C143.206997,91.0639978 142.922,90.4040044 142.922,89.516 C142.922,88.6159955 143.248997,87.9050026 143.903,87.383 C144.557003,86.8609974 145.465994,86.6 146.63,86.6 L148.718,86.6 C148.778,86.6 148.808,86.5700003 148.808,86.51 L148.808,85.844 C148.808,85.2319969 148.637002,84.7490018 148.295,84.395 C147.952998,84.0409982 147.422004,83.864 146.702,83.864 C146.137997,83.864 145.676002,83.9719989 145.316,84.188 C144.955998,84.4040011 144.728,84.7039981 144.632,85.088 C144.596,85.2320007 144.506001,85.2920001 144.362,85.268 L143.48,85.16 C143.323999,85.1359999 143.252,85.0700005 143.264,84.962 C143.384001,84.3019967 143.752997,83.768002 144.371,83.36 C144.989003,82.951998 145.759995,82.748 146.684,82.748 Z M146.18,91.046 C146.888004,91.046 147.502997,90.8690018 148.025,90.515 C148.547003,90.1609982 148.808,89.684003 148.808,89.084 L148.808,87.698 C148.808,87.6379997 148.778,87.608 148.718,87.608 L146.828,87.608 C146.035996,87.608 145.400002,87.7699984 144.92,88.094 C144.439998,88.4180016 144.2,88.8679971 144.2,89.444 C144.2,89.9720026 144.385998,90.3709987 144.758,90.641 C145.130002,90.9110013 145.603997,91.046 146.18,91.046 Z M156.404,82.802 C156.800002,82.802 157.129999,82.8739993 157.394,83.018 C157.514001,83.0660002 157.556,83.1619993 157.52,83.306 L157.34,84.098 C157.304,84.2420007 157.208001,84.2900002 157.052,84.242 C156.823999,84.1699996 156.530002,84.1399999 156.17,84.152 C155.545997,84.1760001 155.030002,84.4069978 154.622,84.845 C154.213998,85.2830022 154.01,85.8379966 154.01,86.51 L154.01,91.766 C154.01,91.9220008 153.932001,92 153.776,92 L152.966,92 C152.809999,92 152.732,91.9220008 152.732,91.766 L152.732,83.126 C152.732,82.9699992 152.809999,82.892 152.966,82.892 L153.776,82.892 C153.932001,82.892 154.01,82.9699992 154.01,83.126 L154.01,84.134 C154.01,84.1820002 154.019,84.209 154.037,84.215 C154.055,84.221 154.076,84.2060002 154.1,84.17 C154.352001,83.7379978 154.672998,83.4020012 155.063,83.162 C155.453002,82.9219988 155.899997,82.802 156.404,82.802 Z M164.882,79.634 C164.882,79.4779992 164.959999,79.4 165.116,79.4 L165.926,79.4 C166.082001,79.4 166.16,79.4779992 166.16,79.634 L166.16,91.766 C166.16,91.9220008 166.082001,92 165.926,92 L165.116,92 C164.959999,92 164.882,91.9220008 164.882,91.766 L164.882,91.082 C164.882,91.0459998 164.87,91.025 164.846,91.019 C164.822,91.013 164.798,91.0219999 164.774,91.046 C164.509999,91.3940017 164.183002,91.663999 163.793,91.856 C163.402998,92.048001 162.968002,92.144 162.488,92.144 C161.647996,92.144 160.943003,91.9280022 160.373,91.496 C159.802997,91.0639978 159.410001,90.4760037 159.194,89.732 C159.025999,89.1919973 158.942,88.4300049 158.942,87.446 C158.942,86.449995 159.013999,85.7060025 159.158,85.214 C159.374001,84.4459962 159.769997,83.8430022 160.346,83.405 C160.922003,82.9669978 161.635996,82.748 162.488,82.748 C162.956002,82.748 163.387998,82.8409991 163.784,83.027 C164.180002,83.2130009 164.509999,83.4799983 164.774,83.828 C164.798,83.8640002 164.822,83.8760001 164.846,83.864 C164.87,83.8519999 164.882,83.8280002 164.882,83.792 L164.882,79.634 Z M164.54,89.642 C164.648001,89.4019988 164.726,89.1200016 164.774,88.796 C164.822,88.4719984 164.846,88.0220029 164.846,87.446 C164.846,86.8699971 164.822,86.4170017 164.774,86.087 C164.726,85.7569984 164.642001,85.4660013 164.522,85.214 C164.377999,84.805998 164.141002,84.4790012 163.811,84.233 C163.480998,83.9869988 163.088002,83.864 162.632,83.864 C162.151998,83.864 161.738002,83.9839988 161.39,84.224 C161.041998,84.4640012 160.790001,84.781998 160.634,85.178 C160.489999,85.4420013 160.385,85.7389984 160.319,86.069 C160.253,86.3990017 160.22,86.8579971 160.22,87.446 C160.22,88.0100028 160.244,88.4509984 160.292,88.769 C160.34,89.0870016 160.423999,89.3719987 160.544,89.624 C160.688001,90.0560022 160.942998,90.3979987 161.309,90.65 C161.675002,90.9020013 162.109997,91.028 162.614,91.028 C163.094002,91.028 163.495998,90.9020013 163.82,90.65 C164.144002,90.3979987 164.383999,90.0620021 164.54,89.642 Z M172.028,92.09 C171.355997,92.09 170.759003,91.9820011 170.237,91.766 C169.714997,91.5499989 169.313001,91.2620018 169.031,90.902 C168.748999,90.5419982 168.608,90.1400022 168.608,89.696 L168.608,89.534 C168.608,89.3779992 168.685999,89.3 168.842,89.3 L169.616,89.3 C169.688,89.3 169.745,89.3149998 169.787,89.345 C169.829,89.3750002 169.85,89.4139998 169.85,89.462 L169.85,89.624 C169.85,90.020002 170.053998,90.3649985 170.462,90.659 C170.870002,90.9530015 171.385997,91.1 172.01,91.1 C172.634003,91.1 173.137998,90.9590014 173.522,90.677 C173.906002,90.3949986 174.098,90.0380022 174.098,89.606 C174.098,89.3059985 174.002001,89.060001 173.81,88.868 C173.617999,88.675999 173.384001,88.5260005 173.108,88.418 C172.831999,88.3099995 172.418003,88.1720008 171.866,88.004 C171.193997,87.811999 170.642002,87.620001 170.21,87.428 C169.777998,87.235999 169.412001,86.9690017 169.112,86.627 C168.811998,86.2849983 168.662,85.8500026 168.662,85.322 C168.662,84.5539962 168.964997,83.9420023 169.571,83.486 C170.177003,83.0299977 170.971995,82.802 171.956,82.802 C172.616003,82.802 173.200997,82.9099989 173.711,83.126 C174.221003,83.3420011 174.613999,83.6389981 174.89,84.017 C175.166001,84.3950019 175.304,84.8179977 175.304,85.286 C175.304,85.4420008 175.226001,85.52 175.07,85.52 L174.332,85.52 C174.175999,85.52 174.098,85.4780004 174.098,85.394 L174.098,85.286 C174.098,84.877998 173.903002,84.5360014 173.513,84.26 C173.122998,83.9839986 172.598003,83.846 171.938,83.846 C171.325997,83.846 170.834002,83.9689988 170.462,84.215 C170.089998,84.4610012 169.904,84.7999978 169.904,85.232 C169.904,85.640002 170.080998,85.9519989 170.435,86.168 C170.789002,86.3840011 171.343996,86.5999989 172.1,86.816 C172.796003,87.008001 173.359998,87.1939991 173.792,87.374 C174.224002,87.5540009 174.595998,87.8179983 174.908,88.166 C175.220002,88.5140017 175.376,88.9639972 175.376,89.516 C175.376,90.2960039 175.073003,90.9199977 174.467,91.388 C173.860997,91.8560023 173.048005,92.09 172.028,92.09 Z" id="Features-&amp;-Awards" fill="#848484" mask="url(#mask-2)"></path>
                <path d="M127.6,445.8 C103.866548,445.8 83.533418,440.000058 66.6,428.4 C49.666582,416.799942 37.066708,400.866768 28.8,380.6 L72.8,363 C84.533392,387.800124 103.06654,400.2 128.4,400.2 C142.533404,400.2 154.133288,396.666702 163.2,389.6 C172.266712,382.533298 176.8,372.466732 176.8,359.4 C176.8,347.39994 172.80004,337.533372 164.8,329.8 C156.79996,322.066628 144.666748,318.2 128.4,318.2 L104,318.2 L104,272.6 L128.4,272.6 C139.866724,272.6 149.133298,269.400032 156.2,263 C163.266702,256.599968 166.8,248.200052 166.8,237.8 C166.8,226.866612 163.400034,218.133366 156.6,211.6 C149.799966,205.066634 140.133396,201.8 127.6,201.8 C107.5999,201.8 92.533384,211.266572 82.4,230.2 L38.4,213.4 C46.133372,195.799912 57.733256,181.866718 73.2,171.6 C88.666744,161.333282 107.06656,156.2 128.4,156.2 C153.73346,156.2 174.599918,163.599926 191,178.4 C207.400082,193.200074 215.6,211.533224 215.6,233.4 C215.6,260.866804 203.866784,280.999936 180.4,293.8 C194.000068,299.13336 204.933292,307.399944 213.2,318.6 C221.466708,329.800056 225.6,343.133256 225.6,358.6 C225.6,386.066804 216.60009,407.46659 198.6,422.8 C180.59991,438.13341 156.93348,445.8 127.6,445.8 Z" id="3" fill="#E9E9E9" mask="url(#mask-2)"></path>
                <g id="awwwards-logo" mask="url(#mask-2)">
                    <g transform="translate(133.000000, 292.000000)" id="Group">
                        <g>
                            <path d="M86.3892757,0.46680597 L81.9628829,19.0379104 C81.6242883,20.5486567 81.5114234,21.8696716 81.5114234,21.8696716 L81.4336721,21.8696716 C81.3939604,21.8696716 81.3559207,20.584597 80.9416649,19.0379104 L76.1770955,0.46680597 L71.942155,0.46680597 L67.1027604,19.0379104 C66.6847423,20.5808358 66.6496288,21.8696716 66.6107532,21.8696716 L66.5355099,21.8696716 C66.5355099,21.8696716 66.4167928,20.5465672 66.0832144,19.0379104 L62.9138018,5.1319403 L60.5319351,15.2687761 L63.545845,27.3079403 L69.1811459,27.3079403 L73.3040577,11.4311045 C73.7576072,9.69092537 73.9866811,7.91522388 73.9866811,7.91522388 L74.0581622,7.91522388 C74.0581622,7.91522388 74.2847279,9.69134328 74.7416216,11.4311045 L78.8691315,27.3079403 L84.5002523,27.3079403 L91.4268108,0.461373134 L86.3892757,0.46680597 Z" id="Shape" fill="#000000" fill-rule="nonzero"></path>
                            <path d="M16.7194667,20.425791 L7.30068468,20.425791 L5.0321009,27.3079403 L0,27.3079403 L9.45598559,0.46680597 L14.5637477,0.46680597 L24.0184793,27.3079403 L18.9867964,27.3079403 L16.7194667,20.425791 Z M11.9912649,5.11438806 C11.9912649,5.11438806 11.3834667,7.76268657 10.856764,9.27176119 L8.47364324,16.4527164 L15.5084685,16.4527164 L13.1215856,9.27468657 C12.6325045,7.76059701 12.0627459,5.11438806 12.0627459,5.11438806 L11.9912649,5.11438806 Z" id="Shape" fill="#000000" fill-rule="nonzero"></path>
                            <path d="M50.646645,19.0341493 C51.0617369,20.5812537 51.0976865,21.8675821 51.1348901,21.8675821 L51.2113874,21.8675821 C51.2113874,21.8675821 51.3275964,20.5411343 51.6645189,19.0341493 L56.0896577,0.461373134 L61.1209225,0.461373134 L54.1968721,27.3079403 L48.5640793,27.3079403 L44.4432577,11.4290149 C43.9909622,9.69008955 43.7589622,7.91397015 43.7589622,7.91397015 L43.6837189,7.91397015 C43.6837189,7.91397015 43.4596613,9.69008955 43.0027676,11.4290149 L38.8790198,27.3066866 L33.2437189,27.3066866 L26.5127928,0.46680597 L31.5436396,0.46680597 L35.7810883,19.0379104 C36.122191,20.5486567 36.2350559,21.8696716 36.2350559,21.8696716 L36.3111351,21.8696716 C36.3516829,21.8696716 36.3826162,20.584597 36.8031423,19.0379104 L41.644209,0.46680597 L45.8732973,0.46680597 L50.646645,19.0341493 Z" id="Shape" fill="#000000" fill-rule="nonzero"></path>
                        </g>
                    </g>
                </g>
            </g>
        </g>
    </g>
</svg>